<svg width="159" height="48" viewBox="0 0 159 48" fill="none" xmlns="http://www.w3.org/2000/svg">
<g clip-path="url(#clip0_4004_15593)">
<path d="M98.5204 37.4254C89.3392 44.1927 76.0315 47.8033 64.5739 47.8033C48.5084 47.8033 34.0453 41.8613 23.1035 31.9786C22.2438 31.2014 23.0141 30.1423 24.0457 30.7475C35.8541 37.618 50.4547 41.7513 65.5367 41.7513C75.7083 41.7513 86.8977 39.6468 97.1862 35.2797C98.7405 34.6195 100.04 36.2975 98.5204 37.4254Z" fill="#FF9900"/>
<path d="M102.337 33.0593C101.168 31.56 94.5798 32.3509 91.6225 32.7017C90.7216 32.8117 90.584 32.0277 91.3956 31.4637C96.643 27.7706 105.253 28.8366 106.257 30.0745C107.262 31.3193 105.996 39.9504 101.065 44.0699C100.309 44.7026 99.5865 44.3656 99.9235 43.5266C101.031 40.7619 103.513 34.5654 102.337 33.0593Z" fill="#FF9900"/>
<path d="M91.8288 5.39231V1.80234C91.8288 1.25903 92.2414 0.894531 92.7366 0.894531H108.809C109.325 0.894531 109.737 1.26591 109.737 1.80234V4.87651C109.73 5.39231 109.297 6.06629 108.527 7.13228L100.198 19.0232C103.293 18.9476 106.56 19.4083 109.366 20.9901C109.999 21.3477 110.171 21.8704 110.219 22.3862V26.2169C110.219 26.7396 109.641 27.3517 109.036 27.0353C104.091 24.4425 97.5232 24.1606 92.0557 27.0628C91.4986 27.3654 90.9141 26.7602 90.9141 26.2375V22.5994C90.9141 22.0148 90.9209 21.0176 91.5055 20.1305L101.154 6.29324H92.7572C92.2414 6.29324 91.8288 5.92875 91.8288 5.39231Z" fill="#221F1F"/>
<path d="M33.1997 27.7897H28.3099C27.8423 27.7553 27.4709 27.4046 27.4365 26.9575V1.86213C27.4365 1.36009 27.856 0.961197 28.3787 0.961197H32.9384C33.4129 0.981815 33.7912 1.34633 33.8256 1.80023V5.08073H33.915C35.1048 1.91027 37.3399 0.431641 40.3522 0.431641C43.4126 0.431641 45.3245 1.91027 46.7 5.08073C47.8829 1.91027 50.5719 0.431641 53.4535 0.431641C55.503 0.431641 57.745 1.27755 59.1136 3.1757C60.661 5.28704 60.3446 8.35434 60.3446 11.0434L60.3377 26.8819C60.3377 27.3839 59.9182 27.7897 59.3955 27.7897H54.5126C54.0243 27.7553 53.6323 27.3633 53.6323 26.8819V13.5811C53.6323 12.522 53.7286 9.88111 53.4948 8.87701C53.1303 7.19207 52.0368 6.71753 50.62 6.71753C49.4371 6.71753 48.1992 7.50842 47.6972 8.77386C47.1951 10.0393 47.2433 12.1575 47.2433 13.5811V26.8819C47.2433 27.3839 46.8237 27.7897 46.3011 27.7897H41.4182C40.923 27.7553 40.5379 27.3633 40.5379 26.8819L40.531 13.5811C40.531 10.782 40.9918 6.66251 37.5187 6.66251C34.0044 6.66251 34.1419 10.6789 34.1419 13.5811V26.8819C34.1419 27.3839 33.7224 27.7897 33.1997 27.7897Z" fill="#221F1F"/>
<path d="M123.575 0.431641C130.83 0.431641 134.757 6.66251 134.757 14.5852C134.757 22.2397 130.418 28.3124 123.575 28.3124C116.45 28.3124 112.571 22.0815 112.571 14.317C112.571 6.50433 116.498 0.431641 123.575 0.431641ZM123.616 5.55526C120.012 5.55526 119.785 10.4657 119.785 13.5261C119.785 16.5934 119.737 23.1406 123.575 23.1406C127.364 23.1406 127.543 17.8588 127.543 14.6402C127.543 12.522 127.453 9.99115 126.814 7.98296C126.264 6.23612 125.17 5.55526 123.616 5.55526Z" fill="#221F1F"/>
<path d="M144.166 27.7897H139.296C138.808 27.7553 138.416 27.3633 138.416 26.8819L138.409 1.7796C138.45 1.31882 138.856 0.961197 139.351 0.961197H143.884C144.31 0.981815 144.661 1.27068 144.757 1.66269V5.50024H144.846C146.215 2.06845 148.134 0.431641 151.511 0.431641C153.704 0.431641 155.843 1.22254 157.219 3.3889C158.498 5.39708 158.498 8.77386 158.498 11.2016V26.9988C158.443 27.439 158.037 27.7897 157.556 27.7897H152.652C152.205 27.7553 151.834 27.4252 151.786 26.9988V13.3679C151.786 10.6239 152.102 6.60749 148.725 6.60749C147.535 6.60749 146.442 7.40527 145.899 8.61567C145.211 10.1493 145.121 11.6761 145.121 13.3679V26.8819C145.115 27.3839 144.688 27.7897 144.166 27.7897Z" fill="#221F1F"/>
<path d="M79.0164 15.803V14.7439C75.4815 14.7439 71.7471 15.5004 71.7471 19.668C71.7471 21.7794 72.8406 23.2099 74.7181 23.2099C76.0936 23.2099 77.3246 22.364 78.1017 20.9885C79.0646 19.2967 79.0164 17.708 79.0164 15.803ZM83.9475 27.7214C83.6242 28.0102 83.1566 28.0309 82.7921 27.8383C81.169 26.4904 80.8802 25.8645 79.9861 24.5785C77.304 27.3156 75.4058 28.134 71.9259 28.134C67.8132 28.134 64.6084 25.5963 64.6084 20.514C64.6084 16.5457 66.761 13.8429 69.8214 12.5225C72.4761 11.3533 76.183 11.147 79.0164 10.8238V10.1911C79.0164 9.02879 79.1058 7.65332 78.425 6.64923C77.8266 5.7483 76.685 5.37692 75.6809 5.37692C73.8172 5.37692 72.1528 6.33287 71.7471 8.31354C71.6645 8.7537 71.3413 9.18697 70.9012 9.2076L66.1558 8.69867C65.7569 8.60927 65.3168 8.28603 65.4268 7.67396C66.5203 1.9245 71.7127 0.191406 76.3618 0.191406C78.7413 0.191406 81.8499 0.824122 83.7274 2.62598C86.107 4.84736 85.88 7.8115 85.88 11.037V18.6571C85.88 20.9472 86.8291 21.9513 87.7231 23.1892C88.0395 23.6294 88.1083 24.1589 87.7094 24.4891C86.7122 25.3212 84.9378 26.8686 83.9612 27.7352L83.9475 27.7214Z" fill="#221F1F"/>
<path d="M14.9129 15.803V14.7439C11.378 14.7439 7.64356 15.5004 7.64356 19.668C7.64356 21.7794 8.73706 23.2099 10.6146 23.2099C11.99 23.2099 13.2211 22.364 13.9982 20.9885C14.961 19.2967 14.9129 17.708 14.9129 15.803ZM19.844 27.7214C19.5207 28.0102 19.0531 28.0309 18.6886 27.8383C17.0655 26.4904 16.7767 25.8645 15.8826 24.5785C13.2004 27.3156 11.3023 28.134 7.82237 28.134C3.70972 28.134 0.504883 25.5963 0.504883 20.514C0.504883 16.5457 2.65749 13.8429 5.71791 12.5225C8.37256 11.3533 12.0794 11.147 14.9129 10.8238V10.1911C14.9129 9.02879 15.0023 7.65332 14.3215 6.64923C13.7231 5.7483 12.5815 5.37692 11.5774 5.37692C9.71364 5.37692 8.04932 6.33287 7.64356 8.31354C7.56103 8.7537 7.2378 9.18697 6.79765 9.2076L2.05228 8.69867C1.6534 8.60927 1.21325 8.28603 1.32329 7.67396C2.41678 1.9245 7.60917 0.191406 12.2583 0.191406C14.6378 0.191406 17.7464 0.824122 19.6239 2.62598C22.0034 4.84736 21.7765 7.8115 21.7765 11.037V18.6571C21.7765 20.9472 22.7256 21.9513 23.6196 23.1892C23.936 23.6294 24.0048 24.1589 23.6059 24.4891C22.6087 25.3212 20.8343 26.8686 19.8577 27.7352L19.844 27.7214Z" fill="#221F1F"/>
</g>
<defs>
<clipPath id="clip0_4004_15593">
<rect width="158.182" height="47.7432" fill="white" transform="translate(0.40918 0.126953)"/>
</clipPath>
</defs>
</svg>
