<svg width="238" height="196" viewBox="0 0 238 196" fill="none" xmlns="http://www.w3.org/2000/svg">
<path d="M24.1511 147.482C-6.61204 129.775 -6.61204 100.803 24.1511 83.0967L41.5945 73.0554C72.3577 55.3487 122.694 55.3487 153.451 73.0554L213.997 107.899C244.76 125.606 244.76 154.577 213.997 172.284L196.553 182.325C165.79 200.032 115.453 200.032 84.6967 182.325L24.1511 147.482Z" fill="#281D18"/>
<path d="M38.0709 97.9275L31.5377 101.689L25.0045 97.9275L31.5377 94.166L38.0709 97.9275Z" fill="#17CCD4" stroke="#281D18" stroke-width="1.12" stroke-linecap="round" stroke-linejoin="round"/>
<path d="M39.5221 95.3318V137.795L35.5671 135.523L32.9889 91.5703L39.5221 95.3318Z" fill="#17CCD4" stroke="#281D18" stroke-linecap="round" stroke-linejoin="round"/>
<path d="M46.057 91.5703L43.4723 135.523L39.5238 137.795V95.3318L46.057 91.5703Z" fill="#17CCD4" stroke="#281D18" stroke-linecap="round" stroke-linejoin="round"/>
<path d="M118.643 140.871V183.334L114.695 181.062L112.11 137.109L118.643 140.871Z" fill="#17CCD4" stroke="#281D18" stroke-linecap="round" stroke-linejoin="round"/>
<path d="M125.174 137.109L122.59 181.062L118.641 183.334V140.871L125.174 137.109Z" fill="#17CCD4" stroke="#281D18" stroke-linecap="round" stroke-linejoin="round"/>
<path d="M197.76 95.3318V137.795L193.812 135.523L191.227 91.5703L197.76 95.3318Z" fill="#17CCD4" stroke="#281D18" stroke-linecap="round" stroke-linejoin="round"/>
<path d="M204.296 91.5703L201.711 135.523L197.762 137.795V95.3318L204.296 91.5703Z" fill="#17CCD4" stroke="#281D18" stroke-linecap="round" stroke-linejoin="round"/>
<path d="M35.9017 109.49C9.10651 94.0688 9.10651 68.8327 35.9017 53.4114L47.4744 46.7496C74.2695 31.3283 118.112 31.3283 144.907 46.7496L192.815 74.3228C219.61 89.7441 219.61 114.98 192.815 130.401L181.242 137.063C154.447 152.485 110.605 152.485 83.8095 137.063L35.9017 109.49Z" fill="#17CCD4"/>
<path d="M35.9017 109.49C9.10651 94.0688 9.10651 68.8327 35.9017 53.4114L47.4744 46.7496C74.2695 31.3283 118.112 31.3283 144.907 46.7496L192.815 74.3228C219.61 89.7441 219.61 114.98 192.815 130.401L181.242 137.063C154.447 152.485 110.605 152.485 83.8095 137.063L35.9017 109.49Z" stroke="#281D18" stroke-linecap="round" stroke-linejoin="round"/>
<path d="M195.601 102.11C188.347 97.9347 188.347 91.1045 195.601 86.9287C202.855 82.7529 214.72 82.7529 221.974 86.9287C229.228 91.1045 229.228 97.9347 221.974 102.11C214.72 106.286 202.855 106.286 195.601 102.11Z" fill="#17CCD4"/>
<path d="M195.601 102.11C188.347 97.9347 188.347 91.1045 195.601 86.9287C202.855 82.7529 214.72 82.7529 221.974 86.9287C229.228 91.1045 229.228 97.9347 221.974 102.11C214.72 106.286 202.855 106.286 195.601 102.11Z" stroke="#281D18" stroke-width="1.12" stroke-linecap="round" stroke-linejoin="round"/>
<path d="M208.789 64.5281V95.947L204.86 93.6875L206.412 63.1621L208.789 64.5281Z" stroke="#281D18" stroke-width="1.12" stroke-linecap="round" stroke-linejoin="round"/>
<path d="M212.719 93.6875L208.79 95.947V64.5281L211.167 63.1621L212.719 93.6875Z" stroke="#281D18" stroke-width="1.12" stroke-linecap="round" stroke-linejoin="round"/>
<path d="M225.544 39.7063C230.097 42.3283 234.006 48.7506 234.227 53.9882L234.747 66.0883C234.974 71.3258 231.434 77.7481 226.882 80.3701L217.063 86.022C212.51 88.644 205.048 88.657 200.49 86.0609L190.417 80.3313C185.852 77.7352 185.852 73.4817 190.417 70.8856L200.49 65.1495C205.055 62.5534 209.049 56.144 209.361 50.9194L209.984 40.5933C210.302 35.3622 214.283 33.2257 218.836 35.8477L225.544 39.7063Z" fill="#17CCD4"/>
<path d="M225.544 39.7063C230.097 42.3283 234.006 48.7506 234.227 53.9882L234.747 66.0883C234.974 71.3258 231.434 77.7481 226.882 80.3701L217.063 86.022C212.51 88.644 205.048 88.657 200.49 86.0609L190.417 80.3313C185.852 77.7352 185.852 73.4817 190.417 70.8856L200.49 65.1495C205.055 62.5534 209.049 56.144 209.361 50.9194L209.984 40.5933C210.302 35.3622 214.283 33.2257 218.836 35.8477L225.544 39.7063Z" stroke="#281D18" stroke-width="1.12" stroke-linecap="round" stroke-linejoin="round"/>
<path d="M225.544 37.7961C230.097 40.4182 234.006 46.8405 234.227 52.078L234.747 64.1781C234.974 69.4157 231.434 75.838 226.882 78.46L217.063 84.1119C212.51 86.7339 205.048 86.7468 200.49 84.1507L190.417 78.4211C185.852 75.825 185.852 71.5715 190.417 68.9754L200.49 63.2394C205.055 60.6433 209.049 54.2339 209.361 49.0093L209.984 38.6831C210.302 33.452 214.283 31.3156 218.836 33.9376L225.544 37.7961Z" fill="#17CCD4"/>
<path d="M225.544 37.7961C230.097 40.4182 234.006 46.8405 234.227 52.078L234.747 64.1781C234.974 69.4157 231.434 75.838 226.882 78.46L217.063 84.1119C212.51 86.7339 205.048 86.7468 200.49 84.1507L190.417 78.4211C185.852 75.825 185.852 71.5715 190.417 68.9754L200.49 63.2394C205.055 60.6433 209.049 54.2339 209.361 49.0093L209.984 38.6831C210.302 33.452 214.283 31.3156 218.836 33.9376L225.544 37.7961Z" stroke="#281D18" stroke-width="1.12" stroke-linecap="round" stroke-linejoin="round"/>
<path d="M223.283 71.7466C220.01 67.7456 215.38 64.8776 210.34 63.7188" stroke="#281D18" stroke-width="1.12" stroke-linecap="round" stroke-linejoin="round"/>
<path d="M138.996 70.257C131.742 66.0812 131.742 59.251 138.996 55.0752C146.25 50.8994 158.115 50.8994 165.369 55.0752C172.623 59.251 172.623 66.0812 165.369 70.257C158.115 74.4328 146.25 74.4328 138.996 70.257Z" fill="#17CCD4"/>
<path d="M138.996 70.257C131.742 66.0812 131.742 59.251 138.996 55.0752C146.25 50.8994 158.115 50.8994 165.369 55.0752C172.623 59.251 172.623 66.0812 165.369 70.257C158.115 74.4328 146.25 74.4328 138.996 70.257Z" stroke="#281D18" stroke-width="1.12" stroke-linecap="round" stroke-linejoin="round"/>
<path d="M152.18 32.6746V64.0935L148.251 61.834L149.803 31.3086L152.18 32.6746Z" stroke="#281D18" stroke-width="1.12" stroke-linecap="round" stroke-linejoin="round"/>
<path d="M156.109 61.834L152.18 64.0935V32.6746L154.557 31.3086L156.109 61.834Z" stroke="#281D18" stroke-width="1.12" stroke-linecap="round" stroke-linejoin="round"/>
<path d="M168.935 7.85473C173.487 10.4767 177.397 16.8991 177.618 22.1366L178.137 34.2367C178.364 39.4743 174.825 45.8966 170.273 48.5186L160.453 54.1705C155.901 56.7925 148.439 56.8054 143.88 54.2093L133.807 48.4797C129.242 45.8836 129.242 41.6301 133.807 39.034L143.88 33.298C148.445 30.7018 152.439 24.2925 152.751 19.0679L153.375 8.74169C153.693 3.51061 157.674 1.37416 162.226 3.99617L168.935 7.85473Z" fill="#17CCD4"/>
<path d="M168.935 7.85474C173.487 10.4767 177.397 16.8991 177.618 22.1366L178.137 34.2367C178.364 39.4743 174.825 45.8966 170.273 48.5186L160.453 54.1705C155.901 56.7925 148.439 56.8054 143.88 54.2093L133.807 48.4797C129.242 45.8836 129.242 41.6301 133.807 39.034L143.88 33.298C148.445 30.7018 152.439 24.2925 152.751 19.0679L153.375 8.74169C153.693 3.51061 157.674 1.37416 162.226 3.99617L168.935 7.85474Z" stroke="#281D18" stroke-width="1.12" stroke-linecap="round" stroke-linejoin="round"/>
<path d="M168.935 5.95044C173.487 8.57245 177.397 14.9948 177.618 20.2323L178.137 32.3324C178.364 37.57 174.825 43.9923 170.273 46.6143L160.453 52.2662C155.901 54.8882 148.439 54.9011 143.88 52.305L133.807 46.5754C129.242 43.9793 129.242 39.7258 133.807 37.1297L143.88 31.3937C148.445 28.7975 152.439 22.3882 152.751 17.1636L153.375 6.83739C153.693 1.60632 157.674 -0.530139 162.226 2.09187L168.935 5.95044Z" fill="#17CCD4"/>
<path d="M168.935 5.95044C173.487 8.57245 177.397 14.9948 177.618 20.2323L178.137 32.3324C178.364 37.57 174.825 43.9923 170.273 46.6143L160.453 52.2662C155.901 54.8882 148.439 54.9011 143.88 52.305L133.807 46.5754C129.242 43.9793 129.242 39.7258 133.807 37.1297L143.88 31.3937C148.445 28.7975 152.439 22.3882 152.751 17.1636L153.375 6.83739C153.693 1.60632 157.674 -0.530139 162.226 2.09187L168.935 5.95044Z" stroke="#281D18" stroke-width="1.12" stroke-linecap="round" stroke-linejoin="round"/>
<path d="M166.096 39.1177C162.823 35.1167 158.193 32.2487 153.153 31.0898" stroke="#281D18" stroke-width="1.12" stroke-linecap="round" stroke-linejoin="round"/>
<path d="M35.9017 105.012C9.10651 89.5903 9.10651 64.3542 35.9017 48.9329L47.4744 42.2711C74.2695 26.8497 118.112 26.8497 144.907 42.2711L192.815 69.8443C219.61 85.2656 219.61 110.502 192.815 125.923L181.242 132.585C154.447 148.006 110.605 148.006 83.8095 132.585L35.9017 105.012Z" fill="#17CCD4"/>
<path d="M35.9017 105.012C9.10651 89.5903 9.10651 64.3542 35.9017 48.9329L47.4744 42.2711C74.2695 26.8497 118.112 26.8497 144.907 42.2711L192.815 69.8443C219.61 85.2656 219.61 110.502 192.815 125.923L181.242 132.585C154.447 148.006 110.605 148.006 83.8095 132.585L35.9017 105.012Z" stroke="#281D18" stroke-linecap="round" stroke-linejoin="round"/>
<path d="M39.4196 159.296C46.6737 155.12 46.6737 148.29 39.4196 144.114C32.1656 139.938 20.3007 139.938 13.0466 144.114C5.79257 148.29 5.79257 155.12 13.0466 159.296C20.3007 163.472 32.1656 163.472 39.4196 159.296Z" fill="#17CCD4"/>
<path d="M39.4196 159.296C46.6737 155.12 46.6737 148.29 39.4196 144.114C32.1656 139.938 20.3007 139.938 13.0466 144.114C5.79257 148.29 5.79257 155.12 13.0466 159.296C20.3007 163.472 32.1656 163.472 39.4196 159.296Z" stroke="#281D18" stroke-width="1.12" stroke-linecap="round" stroke-linejoin="round"/>
<path d="M26.235 121.65V153.069L30.164 150.809L28.6119 120.277L26.235 121.65Z" stroke="#281D18" stroke-width="1.12" stroke-linecap="round" stroke-linejoin="round"/>
<path d="M22.3053 150.809L26.2343 153.069V121.65L23.8574 120.277L22.3053 150.809Z" stroke="#281D18" stroke-width="1.12" stroke-linecap="round" stroke-linejoin="round"/>
<path d="M47.7196 130.04C47.3559 131.419 46.2649 132.733 44.44 133.782L35.6403 138.857H34.4779C29.8864 138.857 26.0743 135.342 25.7172 130.778L25.0482 122.277C24.9833 121.144 24.743 119.959 24.3599 118.768C27.9771 118.406 31.8412 119.027 34.6272 120.626L44.4465 126.285C46.2778 127.346 47.3689 128.661 47.7261 130.04H47.7196Z" fill="#17CCD4" stroke="#281D18" stroke-width="1.12" stroke-linecap="round" stroke-linejoin="round"/>
<path d="M47.7192 130.039C47.3555 131.418 46.2645 132.733 44.4396 133.781L35.6399 138.857H34.4774C29.886 138.857 26.0739 135.342 25.7167 130.777L25.0478 122.277C24.9829 121.144 24.7426 119.959 24.3595 118.768C24.1581 118.12 23.9114 117.467 23.6256 116.826C27.4442 116.295 31.6525 116.897 34.6268 118.6L44.4461 124.258C47.1736 125.831 48.2647 127.993 47.7257 130.039H47.7192Z" fill="#17CCD4" stroke="#281D18" stroke-width="1.12" stroke-linecap="round" stroke-linejoin="round"/>
<path d="M44.44 135.814L35.6403 140.89H35.6273L34.6207 141.473C30.38 143.9 23.6195 144.075 19.0476 141.965C18.9696 141.926 18.8917 141.893 18.8203 141.855C18.5605 141.738 18.3137 141.609 18.0734 141.473L8.24768 135.814C7.96843 135.652 7.70217 135.478 7.4424 135.296C3.2926 132.422 0.214336 126.453 0.461116 121.539L0.487093 121.021C0.441634 120.503 0.43514 119.998 0.461116 119.506L0.987148 109.024C1.24692 103.787 5.18891 101.657 9.74785 104.272L16.2161 107.995C19.2489 109.743 22.0219 113.174 23.639 116.819C23.9247 117.467 24.1715 118.121 24.3728 118.762C24.756 119.953 24.9963 121.138 25.0612 122.27L25.7301 130.771C26.0873 135.335 29.8994 138.851 34.4908 138.851H35.6533L44.4529 133.775C46.2778 132.726 47.3689 131.412 47.7325 130.033C48.2715 132.079 47.174 134.241 44.4529 135.808L44.44 135.814Z" fill="#17CCD4" stroke="#281D18" stroke-width="1.12" stroke-linecap="round" stroke-linejoin="round"/>
<path d="M100.822 191.48C108.076 187.304 108.076 180.474 100.822 176.298C93.5679 172.122 81.703 172.122 74.449 176.298C67.1949 180.474 67.1949 187.304 74.449 191.48C81.703 195.655 93.5679 195.655 100.822 191.48Z" fill="#17CCD4"/>
<path d="M100.822 191.48C108.076 187.304 108.076 180.474 100.822 176.298C93.5679 172.122 81.703 172.122 74.449 176.298C67.1949 180.474 67.1949 187.304 74.449 191.48C81.703 195.655 93.5679 195.655 100.822 191.48Z" stroke="#281D18" stroke-width="1.12" stroke-linecap="round" stroke-linejoin="round"/>
<path d="M87.6334 153.825V185.25L91.5624 182.984L90.0103 152.459L87.6334 153.825Z" stroke="#281D18" stroke-width="1.12" stroke-linecap="round" stroke-linejoin="round"/>
<path d="M83.7037 182.984L87.6327 185.25V153.825L85.2559 152.459L83.7037 182.984Z" stroke="#281D18" stroke-width="1.12" stroke-linecap="round" stroke-linejoin="round"/>
<path d="M109.117 162.223C108.753 163.602 107.662 164.916 105.837 165.965L97.0246 171.041H95.8621C91.2772 171.041 87.4651 167.525 87.1079 162.961L86.439 154.46C86.3676 153.327 86.1273 152.143 85.7506 150.945C89.3679 150.589 93.232 151.21 96.018 152.809L105.837 158.468C107.669 159.53 108.76 160.844 109.117 162.223Z" fill="#17CCD4" stroke="#281D18" stroke-width="1.12" stroke-linecap="round" stroke-linejoin="round"/>
<path d="M109.116 162.223C108.753 163.602 107.662 164.916 105.837 165.965L97.024 171.041H95.8616C91.2767 171.041 87.4646 167.525 87.1074 162.961L86.4385 154.46C86.367 153.327 86.1267 152.143 85.7501 150.945C85.5488 150.298 85.302 149.657 85.0162 149.009C88.8348 148.478 93.0431 149.08 96.0174 150.783L105.837 156.442C108.564 158.008 109.655 160.177 109.116 162.223Z" fill="#17CCD4" stroke="#281D18" stroke-width="1.12" stroke-linecap="round" stroke-linejoin="round"/>
<path d="M105.836 167.99L97.0234 173.059H97.0169L96.0103 173.642C91.7695 176.076 85.0091 176.251 80.4371 174.134C80.3592 174.108 80.2813 174.069 80.2098 174.03C79.9501 173.907 79.7033 173.778 79.463 173.642L69.6372 167.99C69.358 167.828 69.0917 167.653 68.832 167.472C64.6757 164.598 61.5909 158.629 61.8507 153.715L61.8767 153.197C61.8312 152.692 61.8182 152.18 61.8507 151.682L62.3767 141.2C62.6365 135.963 66.5785 133.833 71.1309 136.448L77.6057 140.171C80.6385 141.919 83.4115 145.35 85.0285 148.995C85.3143 149.642 85.5611 150.283 85.7624 150.931C86.1391 152.129 86.3793 153.32 86.4508 154.446L87.1197 162.947C87.4769 167.511 91.289 171.026 95.8739 171.026H97.0364L105.849 165.951C107.674 164.902 108.765 163.588 109.129 162.209C109.668 164.255 108.57 166.417 105.849 167.984L105.836 167.99Z" fill="#17CCD4" stroke="#281D18" stroke-width="1.12" stroke-linecap="round" stroke-linejoin="round"/>
<path d="M182.48 181.976C175.226 177.8 175.226 170.97 182.48 166.794C189.734 162.618 201.599 162.618 208.853 166.794C216.107 170.97 216.107 177.8 208.853 181.976C201.599 186.152 189.734 186.152 182.48 181.976Z" fill="#17CCD4"/>
<path d="M182.48 181.976C175.226 177.8 175.226 170.97 182.48 166.794C189.734 162.618 201.599 162.618 208.853 166.794C216.107 170.97 216.107 177.8 208.853 181.976C201.599 186.152 189.734 186.152 182.48 181.976Z" stroke="#281D18" stroke-linecap="round" stroke-linejoin="round"/>
<path d="M195.672 144.327V175.746L191.743 173.486L193.295 142.961L195.672 144.327Z" stroke="#281D18" stroke-linecap="round" stroke-linejoin="round"/>
<path d="M199.601 173.486L195.672 175.746V144.327L198.049 142.961L199.601 173.486Z" stroke="#281D18" stroke-linecap="round" stroke-linejoin="round"/>
<path d="M198.289 139.505C198.003 140.153 197.756 140.807 197.555 141.448C197.172 142.645 196.938 143.824 196.867 144.963L196.198 153.457C195.841 158.021 192.029 161.537 187.444 161.537H186.281L177.469 156.461C175.644 155.412 174.553 154.098 174.189 152.719C173.65 150.673 174.741 148.511 177.469 146.938L187.288 141.279C190.262 139.577 194.47 138.974 198.289 139.505Z" fill="#17CCD4" stroke="#281D18" stroke-linecap="round" stroke-linejoin="round"/>
<path d="M221.453 144.218C221.707 149.132 218.622 155.101 214.472 157.975C214.212 158.157 213.94 158.332 213.667 158.493L203.841 164.152C203.601 164.288 203.354 164.417 203.094 164.534C203.023 164.573 202.951 164.605 202.867 164.644C198.289 166.754 191.535 166.58 187.294 164.152L186.287 163.569H186.281L177.468 158.493C174.747 156.927 173.649 154.764 174.189 152.718C174.552 154.097 175.643 155.412 177.468 156.461L186.281 161.536H187.443C192.028 161.536 195.84 158.021 196.197 153.457L196.866 144.962C196.938 143.823 197.172 142.645 197.555 141.447C197.756 140.8 198.003 140.146 198.289 139.505C199.906 135.86 202.672 132.435 205.711 130.681L212.186 126.958C216.732 124.342 220.674 126.472 220.94 131.71L221.466 142.192C221.492 142.69 221.479 143.202 221.44 143.707L221.466 144.224L221.453 144.218Z" fill="#17CCD4" stroke="#281D18" stroke-linecap="round" stroke-linejoin="round"/>
<path d="M44.4342 93.623L65.5014 105.749L79.2172 97.8571L58.1305 85.7246L44.4342 93.623Z" fill="#17CCD4" stroke="#281D18" stroke-width="1.12" stroke-linecap="round" stroke-linejoin="round"/>
<path d="M43.4186 93.0332L44.4317 93.6223L65.4989 105.748L79.2147 97.8564L80.2148 97.2932L80.2343 97.2802L80.2148 97.2673L58.128 84.5586L43.4186 93.0332Z" fill="#17CCD4" stroke="#281D18" stroke-linecap="round" stroke-linejoin="round"/>
<path d="M52.317 98.1605L55.8109 96.1406L61.0323 99.2029L57.5773 101.19L52.317 98.1605Z" fill="#17CCD4" stroke="#281D18" stroke-linecap="round" stroke-linejoin="round"/>
<path d="M84.0179 80.0263L61.9116 67.3047L59.1256 83.9237L81.2124 96.6388L84.0179 80.0263Z" fill="#17CCD4" stroke="#281D18" stroke-width="1.12" stroke-linecap="round" stroke-linejoin="round"/>
<path d="M43.4186 93.0332V94.2115L65.4989 106.927L80.2343 98.4456L80.2148 97.2932L79.2147 97.8564L65.4989 105.748L44.4317 93.6223L43.4186 93.0332Z" fill="#17CCD4" stroke="#281D18" stroke-linecap="round" stroke-linejoin="round"/>
<path d="M80.2194 97.2936V97.2676" stroke="#281D18" stroke-width="1.12" stroke-linecap="round" stroke-linejoin="round"/>
<path d="M83.0219 80.6611L60.9155 67.9395L58.1295 84.5585L80.2164 97.2671L83.0219 80.6611Z" fill="#17CCD4" stroke="#281D18" stroke-linecap="round" stroke-linejoin="round"/>
<path d="M81.4192 81.4126L62.008 70.2383L59.735 83.8015L79.1267 94.9694L81.4192 81.4126Z" stroke="#281D18" stroke-linecap="round" stroke-linejoin="round"/>
<path d="M60.9147 67.9392L61.9083 67.3047" stroke="#281D18" stroke-width="1.12" stroke-linecap="round" stroke-linejoin="round"/>
<path d="M83.024 80.6618L84.0177 80.0273" stroke="#281D18" stroke-width="1.12" stroke-linecap="round" stroke-linejoin="round"/>
<path d="M80.2194 97.2686L81.213 96.6406" stroke="#281D18" stroke-width="1.12" stroke-linecap="round" stroke-linejoin="round"/>
<path d="M57.3717 86.9609L75.7633 97.5461" stroke="#281D18" stroke-linecap="round" stroke-linejoin="round"/>
<path d="M55.2858 88.2422L73.6774 98.8209" stroke="#281D18" stroke-linecap="round" stroke-linejoin="round"/>
<path d="M53.1998 89.5176L71.598 100.096" stroke="#281D18" stroke-linecap="round" stroke-linejoin="round"/>
<path d="M51.1178 90.793L69.5159 101.378" stroke="#281D18" stroke-linecap="round" stroke-linejoin="round"/>
<path d="M50.5162 91.9519L59.1665 86.9668" stroke="#281D18" stroke-linecap="round" stroke-linejoin="round"/>
<path d="M52.8834 93.2917L61.5272 88.3066" stroke="#281D18" stroke-linecap="round" stroke-linejoin="round"/>
<path d="M55.2389 94.6335L63.8827 89.6484" stroke="#281D18" stroke-linecap="round" stroke-linejoin="round"/>
<path d="M57.5944 95.9733L66.2382 90.9883" stroke="#281D18" stroke-linecap="round" stroke-linejoin="round"/>
<path d="M59.9537 97.3132L68.5975 92.3281" stroke="#281D18" stroke-linecap="round" stroke-linejoin="round"/>
<path d="M62.3131 98.653L70.9569 93.668" stroke="#281D18" stroke-linecap="round" stroke-linejoin="round"/>
<path d="M64.6686 99.9942L73.3124 95.0156" stroke="#281D18" stroke-linecap="round" stroke-linejoin="round"/>
<path d="M67.0319 101.334L75.6757 96.3555" stroke="#281D18" stroke-linecap="round" stroke-linejoin="round"/>
<path d="M156.575 113.913L170.135 106.105L188.552 116.678L175.005 124.479L156.575 113.913Z" fill="#17CCD4" stroke="#281D18" stroke-linecap="round" stroke-linejoin="round"/>
<path d="M156.575 112.694L170.135 104.887L188.552 115.459L175.005 123.254L156.575 112.694Z" fill="#17CCD4" stroke="#281D18" stroke-linecap="round" stroke-linejoin="round"/>
<path d="M156.575 112.695V113.912L175.005 124.478V123.255L156.575 112.695Z" fill="#17CCD4" stroke="#281D18" stroke-linecap="round" stroke-linejoin="round"/>
<path d="M108.761 75.9673C108.599 75.8054 108.469 75.6371 108.352 75.4688H108.541C108.605 75.6371 108.683 75.8054 108.761 75.9673Z" fill="#17CCD4" stroke="#281D18" stroke-linecap="round" stroke-linejoin="round"/>
<path d="M123.091 75.4688C122.987 75.6177 122.87 75.773 122.727 75.9155C122.799 75.7666 122.864 75.6177 122.922 75.4688H123.084H123.091Z" fill="#17CCD4" stroke="#281D18" stroke-linecap="round" stroke-linejoin="round"/>
<path d="M124.293 75.9219L120.597 83.4707C120.597 84.1958 120.123 84.9144 119.169 85.4582C117.272 86.5524 114.175 86.5524 112.278 85.4582C111.33 84.9144 110.856 84.1958 110.856 83.4772L107.161 75.9413C107.589 76.6793 108.31 77.3721 109.323 77.9547C109.856 78.259 110.447 78.5245 111.064 78.7381C113.947 79.7287 117.597 79.7222 120.461 78.7057C121.052 78.4986 121.604 78.2526 122.11 77.9612C123.137 77.3721 123.864 76.6664 124.286 75.9219H124.293Z" fill="#17CCD4" stroke="#281D18" stroke-linecap="round" stroke-linejoin="round"/>
<path d="M107.16 75.9478C107.063 75.786 106.985 75.6306 106.926 75.4688L107.16 75.9478Z" fill="#17CCD4" stroke="#281D18" stroke-linecap="round" stroke-linejoin="round"/>
<path d="M108.758 75.9677C108.595 75.8059 108.465 75.6375 108.349 75.4692C108.089 75.0808 107.946 74.6858 107.946 74.2845C107.946 74.0902 107.978 73.8895 108.05 73.6953C108.141 74.3104 108.303 74.8995 108.537 75.4692C108.602 75.6375 108.68 75.8059 108.758 75.9677Z" fill="#17CCD4" stroke="#281D18" stroke-linecap="round" stroke-linejoin="round"/>
<path d="M124.514 75.4692L124.293 75.9224C123.864 76.6669 123.143 77.3726 122.117 77.9617C121.611 78.253 121.059 78.5055 120.468 78.7062C117.604 79.7227 113.954 79.7291 111.071 78.7386C110.454 78.5249 109.869 78.266 109.33 77.9552C108.317 77.3726 107.59 76.6798 107.168 75.9418L106.934 75.4627C106.414 74.1614 106.759 72.7695 107.979 71.5977V72.5688C107.979 72.9443 108.012 73.3198 108.057 73.6888C107.992 73.883 107.953 74.0837 107.953 74.2779C107.953 74.6793 108.09 75.0742 108.356 75.4627C108.473 75.6375 108.603 75.7993 108.765 75.9612C109.083 76.2849 109.48 76.5892 109.96 76.8611C111.454 77.7222 113.551 78.2142 115.721 78.2142C117.89 78.2142 119.994 77.7222 121.481 76.8611C121.987 76.5698 122.403 76.2461 122.728 75.9094C122.864 75.7605 122.988 75.6116 123.091 75.4627C123.351 75.0742 123.488 74.6729 123.494 74.2715C123.494 74.0902 123.462 73.9089 123.403 73.7276C123.462 73.3457 123.494 72.9702 123.494 72.5752V71.6106C124.696 72.7824 125.04 74.1679 124.52 75.4627L124.514 75.4692Z" fill="#17CCD4" stroke="#281D18" stroke-linecap="round" stroke-linejoin="round"/>
<path d="M123.403 73.7344C123.461 73.9156 123.493 74.0969 123.493 74.2782C123.493 74.6796 123.357 75.081 123.091 75.4694C122.987 75.6183 122.87 75.7737 122.727 75.9161C122.799 75.7672 122.864 75.6183 122.922 75.4694C123.149 74.9127 123.312 74.3365 123.396 73.7344H123.403Z" fill="#17CCD4" stroke="#281D18" stroke-linecap="round" stroke-linejoin="round"/>
<path d="M124.507 75.4766C124.448 75.6255 124.377 75.7808 124.286 75.9233L124.507 75.4766Z" fill="#17CCD4" stroke="#281D18" stroke-linecap="round" stroke-linejoin="round"/>
<path d="M108.758 75.9677C108.595 75.8059 108.465 75.6375 108.349 75.4692C108.089 75.0808 107.946 74.6858 107.946 74.2845C107.946 74.0902 107.978 73.8895 108.05 73.6953C108.141 74.3104 108.303 74.8995 108.537 75.4692C108.602 75.6375 108.68 75.8059 108.758 75.9677Z" fill="#17CCD4" stroke="#281D18" stroke-linecap="round" stroke-linejoin="round"/>
<path d="M123.486 74.2841C123.486 74.6855 123.349 75.0868 123.083 75.4753C122.979 75.6242 122.862 75.7796 122.719 75.922C122.791 75.7731 122.856 75.6242 122.914 75.4753C123.141 74.9185 123.304 74.3423 123.388 73.7402C123.447 73.9215 123.479 74.1028 123.479 74.2841H123.486Z" fill="#17CCD4" stroke="#281D18" stroke-linecap="round" stroke-linejoin="round"/>
<path d="M107.16 75.9478C107.063 75.786 106.985 75.6306 106.926 75.4688L107.16 75.9478Z" fill="#17CCD4" stroke="#281D18" stroke-linecap="round" stroke-linejoin="round"/>
<path d="M108.758 75.9677C108.595 75.8059 108.465 75.6375 108.349 75.4692C108.089 75.0808 107.946 74.6858 107.946 74.2845C107.946 74.0902 107.978 73.8895 108.05 73.6953C108.141 74.3104 108.303 74.8995 108.537 75.4692C108.602 75.6375 108.68 75.8059 108.758 75.9677Z" fill="#17CCD4" stroke="#281D18" stroke-linecap="round" stroke-linejoin="round"/>
<path d="M123.403 73.7344C123.461 73.9156 123.493 74.0969 123.493 74.2782C123.493 74.6796 123.357 75.081 123.091 75.4694C122.987 75.6183 122.87 75.7737 122.727 75.9161C122.799 75.7672 122.864 75.6183 122.922 75.4694C123.149 74.9127 123.312 74.3365 123.396 73.7344H123.403Z" fill="#17CCD4" stroke="#281D18" stroke-linecap="round" stroke-linejoin="round"/>
<path d="M124.507 75.4766C124.448 75.6255 124.377 75.7808 124.286 75.9233L124.507 75.4766Z" fill="#17CCD4" stroke="#281D18" stroke-linecap="round" stroke-linejoin="round"/>
<path d="M108.758 75.9677C108.595 75.8059 108.465 75.6375 108.349 75.4692C108.089 75.0808 107.946 74.6858 107.946 74.2845C107.946 74.0902 107.978 73.8895 108.05 73.6953C108.141 74.3104 108.303 74.8995 108.537 75.4692C108.602 75.6375 108.68 75.8059 108.758 75.9677Z" fill="#17CCD4" stroke="#281D18" stroke-linecap="round" stroke-linejoin="round"/>
<path d="M123.486 74.2841C123.486 74.6855 123.349 75.0868 123.083 75.4753C122.979 75.6242 122.862 75.7796 122.719 75.922C122.791 75.7731 122.856 75.6242 122.914 75.4753C123.141 74.9185 123.304 74.3423 123.388 73.7402C123.447 73.9215 123.479 74.1028 123.479 74.2841H123.486Z" fill="#17CCD4" stroke="#281D18" stroke-linecap="round" stroke-linejoin="round"/>
<path d="M123.485 63.6027V72.5887C123.485 72.9772 123.453 73.3591 123.394 73.7346C123.304 74.3367 123.148 74.9194 122.92 75.4762C122.862 75.6251 122.797 75.7804 122.726 75.9229C122.401 76.266 121.985 76.5832 121.479 76.8746C119.985 77.7356 117.887 78.2277 115.718 78.2277C113.549 78.2277 111.445 77.7356 109.958 76.8746C109.484 76.6026 109.081 76.2919 108.763 75.9747C108.685 75.8063 108.607 75.638 108.542 75.4697C108.308 74.9 108.153 74.3108 108.055 73.6958C108.003 73.3268 107.977 72.9513 107.977 72.5758V63.6027C107.977 60.8706 109.425 58.3392 111.789 56.9537H111.802C114.231 55.5165 117.251 55.5165 119.68 56.9473C120.862 57.64 121.816 58.6241 122.472 59.77C123.135 60.9159 123.498 62.2301 123.498 63.5962L123.485 63.6027Z" fill="#17CCD4" stroke="#281D18" stroke-linecap="round" stroke-linejoin="round"/>
<path d="M109.036 61.0897L112.043 63.4333C112.172 63.5369 112.289 63.6405 112.406 63.7635C112.582 63.9512 112.737 64.1519 112.861 64.3721C112.893 64.4303 112.932 64.4951 112.958 64.5533C112.991 64.7476 112.984 64.9742 112.958 65.2137C112.861 65.9323 112.478 66.761 111.906 67.4796C111.335 68.1983 110.627 68.7745 109.951 69.0464C109.737 69.1305 109.529 69.1888 109.341 69.2082C109.263 69.1953 109.192 69.1758 109.114 69.15C108.867 69.0787 108.627 68.9752 108.393 68.8521C108.256 68.7745 108.127 68.6838 107.997 68.5867L104.996 66.2496C104.081 65.5374 103.613 64.398 103.762 63.252C103.918 62.0673 104.704 61.0638 105.815 60.6236C106.354 60.4099 106.932 60.3517 107.49 60.4293C108.049 60.507 108.581 60.7271 109.036 61.0897Z" fill="#17CCD4" stroke="#281D18" stroke-linecap="round" stroke-linejoin="round"/>
<path d="M123.897 59.595L122.293 61.5113C122.222 61.5955 122.151 61.6667 122.073 61.7379C121.949 61.8479 121.806 61.9451 121.663 62.0227C121.624 62.0422 121.586 62.0616 121.54 62.081C121.41 62.094 121.261 62.0875 121.105 62.0616C120.631 61.9774 120.098 61.712 119.637 61.3235C119.176 60.9351 118.812 60.4625 118.65 60.0158C118.598 59.8733 118.566 59.7374 118.559 59.6144C118.572 59.5626 118.585 59.5173 118.598 59.4655C118.65 59.3036 118.722 59.1482 118.812 58.9993C118.864 58.9087 118.929 58.8245 118.994 58.7469L120.598 56.837C121.085 56.2543 121.845 55.9759 122.599 56.0989C123.371 56.2284 124.014 56.7593 124.274 57.4973C124.404 57.8534 124.43 58.2354 124.365 58.5979C124.3 58.9605 124.144 59.3036 123.897 59.595Z" fill="#17CCD4" stroke="#281D18" stroke-linecap="round" stroke-linejoin="round"/>
<path d="M121.343 57.0838L121.18 54.6172" stroke="#281D18" stroke-linecap="round" stroke-linejoin="round"/>
<path d="M123.403 58.7988L125.384 59.0448" stroke="#281D18" stroke-linecap="round" stroke-linejoin="round"/>
<path d="M106.777 61.6736L106.044 59.7832" stroke="#281D18" stroke-linecap="round" stroke-linejoin="round"/>
<path d="M105.109 64.8008L103.297 65.0468" stroke="#281D18" stroke-linecap="round" stroke-linejoin="round"/>
<path d="M110.962 63.9L111.124 62.0938" stroke="#281D18" stroke-linecap="round" stroke-linejoin="round"/>
<path d="M122.868 64.5925L124.524 63.207" stroke="#281D18" stroke-linecap="round" stroke-linejoin="round"/>
<path d="M122.739 69.0739L125.129 68.0898" stroke="#281D18" stroke-linecap="round" stroke-linejoin="round"/>
<path d="M108.563 71.1455L106.426 70.3945" stroke="#281D18" stroke-linecap="round" stroke-linejoin="round"/>
<path d="M115.018 56.9856L113.446 54.1953" stroke="#281D18" stroke-linecap="round" stroke-linejoin="round"/>
<path d="M117.633 56.9979L118.705 54.5312" stroke="#281D18" stroke-linecap="round" stroke-linejoin="round"/>
<path d="M117.368 66.6778L118.868 64.7227" stroke="#281D18" stroke-linecap="round" stroke-linejoin="round"/>
<path d="M117.969 72.4521L120.528 71.2285" stroke="#281D18" stroke-linecap="round" stroke-linejoin="round"/>
<path d="M114.257 69.8119L112.79 68.3164" stroke="#281D18" stroke-linecap="round" stroke-linejoin="round"/>
<path d="M111.212 59.2068L109.153 57.0703" stroke="#281D18" stroke-linecap="round" stroke-linejoin="round"/>
</svg>
