<svg width="301" height="248" viewBox="0 0 301 248" fill="none" xmlns="http://www.w3.org/2000/svg">
<path d="M31.1449 186.565C-7.79571 164.137 -7.79571 127.44 31.1449 105.011L53.2253 92.292C92.1659 69.8636 155.883 69.8636 194.816 92.292L271.456 136.427C310.396 158.856 310.396 195.553 271.456 217.982L249.375 230.701C210.435 253.129 146.717 253.129 107.785 230.701L31.1449 186.565Z" fill="#A89D92"/>
<path d="M48.7604 123.798L40.4906 128.562L32.2207 123.798L40.4906 119.033L48.7604 123.798Z" fill="#F6F4F2" stroke="#281D18" stroke-width="1.12" stroke-linecap="round" stroke-linejoin="round"/>
<path d="M50.5999 120.509V174.296L45.5936 171.418L42.3301 115.744L50.5999 120.509Z" fill="#F6F4F2" stroke="#281D18" stroke-linecap="round" stroke-linejoin="round"/>
<path d="M58.8695 115.744L55.5977 171.418L50.5996 174.296V120.509L58.8695 115.744Z" fill="#F6F4F2" stroke="#281D18" stroke-linecap="round" stroke-linejoin="round"/>
<path d="M150.752 178.192V231.98L145.754 229.101L142.482 173.428L150.752 178.192Z" fill="#F6F4F2" stroke="#281D18" stroke-linecap="round" stroke-linejoin="round"/>
<path d="M159.022 173.428L155.75 229.101L150.752 231.98V178.192L159.022 173.428Z" fill="#F6F4F2" stroke="#281D18" stroke-linecap="round" stroke-linejoin="round"/>
<path d="M250.901 120.509V174.296L245.903 171.418L242.631 115.744L250.901 120.509Z" fill="#F6F4F2" stroke="#281D18" stroke-linecap="round" stroke-linejoin="round"/>
<path d="M259.17 115.744L255.898 171.418L250.9 174.296V120.509L259.17 115.744Z" fill="#F6F4F2" stroke="#281D18" stroke-linecap="round" stroke-linejoin="round"/>
<path d="M46.0146 138.444C12.0967 118.91 12.0967 86.9445 46.0146 67.4109L60.6636 58.9725C94.5815 39.4388 150.078 39.4388 183.996 58.9725L244.639 93.8986C278.557 113.432 278.557 145.398 244.639 164.932L229.99 173.37C196.072 192.904 140.575 192.904 106.657 173.37L46.0146 138.444Z" fill="#F6F4F2"/>
<path d="M46.0146 138.444C12.0967 118.91 12.0967 86.9445 46.0146 67.4109L60.6636 58.9725C94.5815 39.4388 150.078 39.4388 183.996 58.9725L244.639 93.8986C278.557 113.432 278.557 145.398 244.639 164.932L229.99 173.37C196.072 192.904 140.575 192.904 106.657 173.37L46.0146 138.444Z" stroke="#281D18" stroke-linecap="round" stroke-linejoin="round"/>
<path d="M248.166 129.098C238.984 123.808 238.984 115.157 248.166 109.867C257.348 104.578 272.367 104.578 281.55 109.867C290.732 115.157 290.732 123.808 281.55 129.098C272.367 134.387 257.348 134.387 248.166 129.098Z" fill="#F6F4F2"/>
<path d="M248.166 129.098C238.984 123.808 238.984 115.157 248.166 109.867C257.348 104.578 272.367 104.578 281.55 109.867C290.732 115.157 290.732 123.808 281.55 129.098C272.367 134.387 257.348 134.387 248.166 129.098Z" stroke="#281D18" stroke-width="1.12" stroke-linecap="round" stroke-linejoin="round"/>
<path d="M264.858 81.494V121.291L259.885 118.429L261.849 79.7637L264.858 81.494Z" stroke="#281D18" stroke-width="1.12" stroke-linecap="round" stroke-linejoin="round"/>
<path d="M269.835 118.429L264.862 121.291V81.494L267.87 79.7637L269.835 118.429Z" stroke="#281D18" stroke-width="1.12" stroke-linecap="round" stroke-linejoin="round"/>
<path d="M286.067 50.0518C291.829 53.373 296.778 61.5079 297.058 68.1422L297.715 83.469C298.003 90.1032 293.523 98.2381 287.76 101.559L275.331 108.718C269.568 112.04 260.123 112.056 254.352 108.768L241.602 101.51C235.823 98.2217 235.823 92.834 241.602 89.5456L254.352 82.2799C260.131 78.9915 265.187 70.873 265.581 64.2551L266.37 51.1753C266.773 44.5492 271.812 41.8431 277.575 45.1643L286.067 50.0518Z" fill="#F6F4F2"/>
<path d="M286.067 50.0518C291.829 53.373 296.778 61.5079 297.058 68.1422L297.715 83.469C298.003 90.1032 293.523 98.2381 287.76 101.559L275.331 108.718C269.568 112.04 260.123 112.056 254.352 108.768L241.602 101.51C235.823 98.2217 235.823 92.834 241.602 89.5456L254.352 82.2799C260.131 78.9915 265.187 70.873 265.581 64.2551L266.37 51.1753C266.773 44.5492 271.812 41.8431 277.575 45.1643L286.067 50.0518Z" stroke="#281D18" stroke-width="1.12" stroke-linecap="round" stroke-linejoin="round"/>
<path d="M286.067 47.6338C291.829 50.955 296.778 59.09 297.058 65.7242L297.715 81.051C298.003 87.6852 293.523 95.8201 287.76 99.1414L275.331 106.3C269.568 109.622 260.123 109.638 254.352 106.35L241.602 99.0922C235.823 95.8037 235.823 90.416 241.602 87.1276L254.352 79.8619C260.131 76.5735 265.187 68.455 265.581 61.8372L266.37 48.7573C266.773 42.1313 271.812 39.4251 277.575 42.7463L286.067 47.6338Z" fill="#F6F4F2"/>
<path d="M286.067 47.6338C291.829 50.955 296.778 59.09 297.058 65.7242L297.715 81.051C298.003 87.6852 293.523 95.8202 287.76 99.1414L275.331 106.3C269.568 109.622 260.123 109.638 254.352 106.35L241.602 99.0922C235.823 95.8037 235.823 90.416 241.602 87.1276L254.352 79.8619C260.131 76.5735 265.187 68.455 265.581 61.8372L266.37 48.7573C266.773 42.1313 271.812 39.4251 277.575 42.7463L286.067 47.6338Z" stroke="#281D18" stroke-width="1.12" stroke-linecap="round" stroke-linejoin="round"/>
<path d="M283.21 90.6355C279.067 85.5675 273.205 81.9347 266.826 80.4668" stroke="#281D18" stroke-width="1.12" stroke-linecap="round" stroke-linejoin="round"/>
<path d="M176.514 88.75C167.331 83.4606 167.331 74.8091 176.514 69.5197C185.696 64.2304 200.715 64.2304 209.897 69.5197C219.08 74.8091 219.08 83.4606 209.897 88.75C200.715 94.0393 185.696 94.0393 176.514 88.75Z" fill="#F6F4F2"/>
<path d="M176.514 88.75C167.331 83.4606 167.331 74.8091 176.514 69.5197C185.696 64.2304 200.715 64.2304 209.897 69.5197C219.08 74.8091 219.08 83.4606 209.897 88.75C200.715 94.0393 185.696 94.0393 176.514 88.75Z" stroke="#281D18" stroke-width="1.12" stroke-linecap="round" stroke-linejoin="round"/>
<path d="M193.202 41.1463V80.9435L188.229 78.0815L190.193 39.416L193.202 41.1463Z" stroke="#281D18" stroke-width="1.12" stroke-linecap="round" stroke-linejoin="round"/>
<path d="M198.175 78.0815L193.201 80.9435V41.1463L196.21 39.416L198.175 78.0815Z" stroke="#281D18" stroke-width="1.12" stroke-linecap="round" stroke-linejoin="round"/>
<path d="M214.41 9.70415C220.173 13.0254 225.122 21.1603 225.401 27.7945L226.059 43.1213C226.347 49.7555 221.866 57.8905 216.104 61.2117L203.674 68.3707C197.912 71.692 188.466 71.7084 182.696 68.4199L169.946 61.1625C164.167 57.8741 164.167 52.4863 169.946 49.1979L182.696 41.9322C188.475 38.6438 193.53 30.5253 193.925 23.9075L194.714 10.8276C195.117 4.20159 200.156 1.49542 205.919 4.81663L214.41 9.70415Z" fill="#F6F4F2"/>
<path d="M214.41 9.70415C220.173 13.0254 225.122 21.1603 225.401 27.7945L226.059 43.1213C226.347 49.7555 221.866 57.8905 216.104 61.2117L203.674 68.3707C197.912 71.692 188.466 71.7084 182.696 68.4199L169.946 61.1625C164.167 57.8741 164.167 52.4863 169.946 49.1979L182.696 41.9322C188.475 38.6438 193.53 30.5253 193.925 23.9075L194.714 10.8276C195.117 4.20159 200.156 1.49542 205.919 4.81663L214.41 9.70415Z" stroke="#281D18" stroke-width="1.12" stroke-linecap="round" stroke-linejoin="round"/>
<path d="M214.41 7.29399C220.173 10.6152 225.122 18.7501 225.401 25.3844L226.059 40.7111C226.347 47.3454 221.866 55.4803 216.104 58.8015L203.674 65.9606C197.912 69.2818 188.466 69.2982 182.696 66.0098L169.946 58.7523C164.167 55.4639 164.167 50.0762 169.946 46.7877L182.696 39.5221C188.475 36.2337 193.53 28.1151 193.925 21.4973L194.714 8.41746C195.117 1.79144 200.156 -0.914739 205.919 2.40648L214.41 7.29399Z" fill="#F6F4F2"/>
<path d="M214.41 7.29399C220.173 10.6152 225.122 18.7501 225.401 25.3844L226.059 40.7111C226.347 47.3454 221.866 55.4803 216.104 58.8015L203.674 65.9606C197.912 69.2818 188.466 69.2982 182.696 66.0098L169.946 58.7523C164.167 55.4639 164.167 50.0762 169.946 46.7877L182.696 39.5221C188.475 36.2337 193.53 28.1151 193.925 21.4973L194.714 8.41746C195.117 1.79144 200.156 -0.914739 205.919 2.40648L214.41 7.29399Z" stroke="#281D18" stroke-width="1.12" stroke-linecap="round" stroke-linejoin="round"/>
<path d="M210.819 49.3034C206.676 44.2355 200.815 40.6027 194.436 39.1348" stroke="#281D18" stroke-width="1.12" stroke-linecap="round" stroke-linejoin="round"/>
<path d="M46.0146 132.772C12.0967 113.238 12.0967 81.2726 46.0146 61.739L60.6636 53.3006C94.5815 33.767 150.078 33.767 183.996 53.3006L244.639 88.2267C278.557 107.76 278.557 139.726 244.639 159.26L229.99 167.698C196.072 187.232 140.575 187.232 106.657 167.698L46.0146 132.772Z" fill="#F6F4F2"/>
<path d="M46.0146 132.772C12.0967 113.238 12.0967 81.2726 46.0146 61.739L60.6636 53.3006C94.5815 33.767 150.078 33.767 183.996 53.3006L244.639 88.2267C278.557 107.76 278.557 139.726 244.639 159.26L229.99 167.698C196.072 187.232 140.575 187.232 106.657 167.698L46.0146 132.772Z" stroke="#281D18" stroke-linecap="round" stroke-linejoin="round"/>
<path d="M50.4715 201.531C59.6538 196.242 59.6538 187.59 50.4715 182.301C41.2892 177.012 26.2703 177.012 17.0879 182.301C7.90559 187.59 7.90559 196.242 17.0879 201.531C26.2703 206.821 41.2892 206.821 50.4715 201.531Z" fill="#F6F4F2"/>
<path d="M50.4715 201.531C59.6538 196.242 59.6538 187.59 50.4715 182.301C41.2892 177.012 26.2703 177.012 17.0879 182.301C7.90559 187.59 7.90559 196.242 17.0879 201.531C26.2703 206.821 41.2892 206.821 50.4715 201.531Z" stroke="#281D18" stroke-width="1.12" stroke-linecap="round" stroke-linejoin="round"/>
<path d="M33.7832 153.846V193.643L38.7566 190.781L36.7919 152.107L33.7832 153.846Z" stroke="#281D18" stroke-width="1.12" stroke-linecap="round" stroke-linejoin="round"/>
<path d="M28.8066 190.781L33.7801 193.643V153.846L30.7713 152.107L28.8066 190.781Z" stroke="#281D18" stroke-width="1.12" stroke-linecap="round" stroke-linejoin="round"/>
<path d="M60.9775 164.472C60.5171 166.219 59.136 167.884 56.8261 169.212L45.6873 175.642H44.2158C38.4039 175.642 33.5784 171.189 33.1263 165.407L32.2796 154.64C32.1974 153.205 31.8932 151.704 31.4082 150.195C35.987 149.736 40.8783 150.523 44.4049 152.549L56.8343 159.716C59.1525 161.061 60.5335 162.726 60.9857 164.472H60.9775Z" fill="#F6F4F2" stroke="#281D18" stroke-width="1.12" stroke-linecap="round" stroke-linejoin="round"/>
<path d="M60.9767 164.472C60.5163 166.219 59.1353 167.884 56.8253 169.212L45.6865 175.641H44.215C38.4031 175.641 33.5777 171.188 33.1255 165.407L32.2788 154.64C32.1966 153.205 31.8924 151.704 31.4074 150.195C31.1526 149.375 30.8402 148.547 30.4785 147.735C35.3122 147.062 40.6391 147.825 44.4041 149.982L56.8335 157.149C60.2862 159.142 61.6672 161.881 60.9849 164.472H60.9767Z" fill="#F6F4F2" stroke="#281D18" stroke-width="1.12" stroke-linecap="round" stroke-linejoin="round"/>
<path d="M56.8234 171.789L45.6846 178.218H45.6682L44.394 178.957C39.026 182.032 30.4684 182.253 24.6812 179.58C24.5825 179.531 24.4839 179.49 24.3934 179.44C24.0646 179.293 23.7522 179.129 23.4481 178.957L11.0104 171.789C10.6569 171.584 10.3199 171.363 9.99107 171.133C4.73815 167.492 0.841618 159.931 1.154 153.707L1.18688 153.051C1.12934 152.395 1.12112 151.755 1.154 151.132L1.81986 137.855C2.14868 131.221 7.13854 128.523 12.9094 131.836L21.097 136.552C24.936 138.766 28.4462 143.112 30.4931 147.729C30.8548 148.549 31.1672 149.377 31.422 150.189C31.907 151.698 32.2112 153.199 32.2934 154.634L33.1401 165.401C33.5922 171.182 38.4177 175.635 44.2296 175.635H45.701L56.8399 169.206C59.1498 167.878 60.5309 166.213 60.9912 164.466C61.6735 167.058 60.2843 169.797 56.8399 171.781L56.8234 171.789Z" fill="#F6F4F2" stroke="#281D18" stroke-width="1.12" stroke-linecap="round" stroke-linejoin="round"/>
<path d="M128.194 242.297C137.376 237.008 137.376 228.356 128.194 223.067C119.012 217.777 103.993 217.777 94.8106 223.067C85.6282 228.356 85.6282 237.008 94.8106 242.297C103.993 247.586 119.012 247.586 128.194 242.297Z" fill="#F6F4F2"/>
<path d="M128.194 242.297C137.376 237.008 137.376 228.356 128.194 223.067C119.012 217.777 103.993 217.777 94.8106 223.067C85.6282 228.356 85.6282 237.008 94.8106 242.297C103.993 247.586 119.012 247.586 128.194 242.297Z" stroke="#281D18" stroke-width="1.12" stroke-linecap="round" stroke-linejoin="round"/>
<path d="M111.498 194.603V234.409L116.471 231.539L114.507 192.873L111.498 194.603Z" stroke="#281D18" stroke-width="1.12" stroke-linecap="round" stroke-linejoin="round"/>
<path d="M106.525 231.539L111.499 234.409V194.603L108.49 192.873L106.525 231.539Z" stroke="#281D18" stroke-width="1.12" stroke-linecap="round" stroke-linejoin="round"/>
<path d="M138.693 205.239C138.232 206.985 136.851 208.65 134.541 209.979L123.386 216.408H121.915C116.111 216.408 111.285 211.955 110.833 206.173L109.987 195.406C109.896 193.971 109.592 192.47 109.115 190.953C113.694 190.502 118.585 191.29 122.112 193.315L134.541 200.482C136.86 201.827 138.241 203.492 138.693 205.239Z" fill="#F6F4F2" stroke="#281D18" stroke-width="1.12" stroke-linecap="round" stroke-linejoin="round"/>
<path d="M138.692 205.238C138.232 206.985 136.851 208.649 134.541 209.978L123.385 216.407H121.914C116.11 216.407 111.285 211.954 110.833 206.173L109.986 195.405C109.895 193.97 109.591 192.47 109.114 190.952C108.86 190.132 108.547 189.321 108.186 188.501C113.019 187.828 118.346 188.591 122.111 190.747L134.541 197.915C137.993 199.899 139.374 202.646 138.692 205.238Z" fill="#F6F4F2" stroke="#281D18" stroke-width="1.12" stroke-linecap="round" stroke-linejoin="round"/>
<path d="M134.542 212.543L123.387 218.964H123.379L122.105 219.702C116.737 222.786 108.179 223.007 102.392 220.325C102.293 220.293 102.194 220.243 102.104 220.194C101.775 220.038 101.463 219.874 101.159 219.702L88.721 212.543C88.3676 212.338 88.0305 212.117 87.7017 211.887C82.4406 208.246 78.5358 200.685 78.8646 194.461L78.8975 193.805C78.84 193.165 78.8235 192.517 78.8646 191.886L79.5305 178.609C79.8593 171.975 84.8492 169.277 90.6118 172.59L98.8076 177.305C102.647 179.52 106.157 183.866 108.204 188.483C108.565 189.303 108.878 190.115 109.133 190.935C109.609 192.452 109.914 193.961 110.004 195.388L110.851 206.155C111.303 211.936 116.128 216.389 121.932 216.389H123.403L134.559 209.96C136.869 208.632 138.25 206.967 138.71 205.22C139.392 207.811 138.003 210.55 134.559 212.535L134.542 212.543Z" fill="#F6F4F2" stroke="#281D18" stroke-width="1.12" stroke-linecap="round" stroke-linejoin="round"/>
<path d="M231.561 230.258C222.378 224.968 222.378 216.317 231.561 211.028C240.743 205.738 255.762 205.738 264.944 211.028C274.126 216.317 274.126 224.968 264.944 230.258C255.762 235.547 240.743 235.547 231.561 230.258Z" fill="#F6F4F2"/>
<path d="M231.561 230.258C222.378 224.968 222.378 216.317 231.561 211.028C240.743 205.738 255.762 205.738 264.944 211.028C274.126 216.317 274.126 224.968 264.944 230.258C255.762 235.547 240.743 235.547 231.561 230.258Z" stroke="#281D18" stroke-linecap="round" stroke-linejoin="round"/>
<path d="M248.253 182.572V222.369L243.279 219.507L245.244 180.842L248.253 182.572Z" stroke="#281D18" stroke-linecap="round" stroke-linejoin="round"/>
<path d="M253.229 219.507L248.256 222.369V182.572L251.265 180.842L253.229 219.507Z" stroke="#281D18" stroke-linecap="round" stroke-linejoin="round"/>
<path d="M251.568 176.461C251.206 177.282 250.894 178.11 250.639 178.922C250.154 180.439 249.858 181.931 249.768 183.374L248.921 194.134C248.469 199.915 243.644 204.368 237.84 204.368H236.368L225.213 197.939C222.903 196.61 221.522 194.945 221.062 193.199C220.379 190.607 221.761 187.868 225.213 185.876L237.643 178.708C241.408 176.552 246.734 175.789 251.568 176.461Z" fill="#F6F4F2" stroke="#281D18" stroke-linecap="round" stroke-linejoin="round"/>
<path d="M280.89 182.433C281.211 188.657 277.306 196.218 272.053 199.859C271.724 200.089 271.379 200.31 271.034 200.515L258.596 207.683C258.292 207.855 257.98 208.019 257.651 208.167C257.56 208.216 257.47 208.257 257.363 208.306C251.568 210.979 243.018 210.758 237.65 207.683L236.376 206.945H236.368L225.213 200.515C221.768 198.531 220.379 195.792 221.061 193.201C221.522 194.947 222.903 196.612 225.213 197.94L236.368 204.37H237.839C243.643 204.37 248.468 199.917 248.921 194.135L249.767 183.376C249.858 181.933 250.154 180.441 250.639 178.923C250.894 178.103 251.206 177.275 251.568 176.463C253.615 171.846 257.116 167.508 260.964 165.286L269.16 160.571C274.914 157.258 279.904 159.956 280.241 166.59L280.907 179.866C280.94 180.498 280.923 181.146 280.874 181.785L280.907 182.441L280.89 182.433Z" fill="#F6F4F2" stroke="#281D18" stroke-linecap="round" stroke-linejoin="round"/>
<path d="M56.8184 118.346L83.4858 133.706L100.848 123.71L74.1555 108.342L56.8184 118.346Z" fill="#F6F4F2" stroke="#281D18" stroke-width="1.12" stroke-linecap="round" stroke-linejoin="round"/>
<path d="M55.5332 117.6L56.8156 118.346L83.483 133.706L100.845 123.709L102.111 122.996L102.135 122.979L102.111 122.963L74.1527 106.865L55.5332 117.6Z" fill="#F6F4F2" stroke="#281D18" stroke-linecap="round" stroke-linejoin="round"/>
<path d="M66.7949 124.096L71.2176 121.537L77.8269 125.416L73.4536 127.934L66.7949 124.096Z" fill="#F6F4F2" stroke="#281D18" stroke-linecap="round" stroke-linejoin="round"/>
<path d="M106.921 101.124L78.9387 85.0098L75.4121 106.061L103.37 122.166L106.921 101.124Z" fill="#F6F4F2" stroke="#281D18" stroke-width="1.12" stroke-linecap="round" stroke-linejoin="round"/>
<path d="M55.5332 117.6V119.092L83.483 135.198L102.135 124.455L102.111 122.996L100.845 123.709L83.483 133.705L56.8156 118.346L55.5332 117.6Z" fill="#F6F4F2" stroke="#281D18" stroke-linecap="round" stroke-linejoin="round"/>
<path d="M102.111 122.996V122.963" stroke="#281D18" stroke-width="1.12" stroke-linecap="round" stroke-linejoin="round"/>
<path d="M105.664 101.928L77.6809 85.8145L74.1543 106.865L102.112 122.963L105.664 101.928Z" fill="#F6F4F2" stroke="#281D18" stroke-linecap="round" stroke-linejoin="round"/>
<path d="M103.63 102.879L79.0588 88.7246L76.1816 105.905L100.728 120.051L103.63 102.879Z" stroke="#281D18" stroke-linecap="round" stroke-linejoin="round"/>
<path d="M77.678 85.8134L78.9357 85.0098" stroke="#281D18" stroke-width="1.12" stroke-linecap="round" stroke-linejoin="round"/>
<path d="M105.662 101.927L106.92 101.123" stroke="#281D18" stroke-width="1.12" stroke-linecap="round" stroke-linejoin="round"/>
<path d="M102.111 122.961L103.369 122.166" stroke="#281D18" stroke-width="1.12" stroke-linecap="round" stroke-linejoin="round"/>
<path d="M73.1895 109.908L96.47 123.316" stroke="#281D18" stroke-linecap="round" stroke-linejoin="round"/>
<path d="M70.5527 111.529L93.8333 124.929" stroke="#281D18" stroke-linecap="round" stroke-linejoin="round"/>
<path d="M67.9122 113.146L91.201 126.546" stroke="#281D18" stroke-linecap="round" stroke-linejoin="round"/>
<path d="M65.2754 114.76L88.5642 128.168" stroke="#281D18" stroke-linecap="round" stroke-linejoin="round"/>
<path d="M64.5176 116.23L75.4673 109.916" stroke="#281D18" stroke-linecap="round" stroke-linejoin="round"/>
<path d="M67.5098 117.926L78.4513 111.611" stroke="#281D18" stroke-linecap="round" stroke-linejoin="round"/>
<path d="M70.4941 119.625L81.4357 113.311" stroke="#281D18" stroke-linecap="round" stroke-linejoin="round"/>
<path d="M73.4785 121.324L84.42 115.01" stroke="#281D18" stroke-linecap="round" stroke-linejoin="round"/>
<path d="M76.459 123.019L87.4005 116.705" stroke="#281D18" stroke-linecap="round" stroke-linejoin="round"/>
<path d="M79.4473 124.719L90.3888 118.404" stroke="#281D18" stroke-linecap="round" stroke-linejoin="round"/>
<path d="M82.4316 126.414L93.3732 120.107" stroke="#281D18" stroke-linecap="round" stroke-linejoin="round"/>
<path d="M85.4238 128.113L96.3654 121.807" stroke="#281D18" stroke-linecap="round" stroke-linejoin="round"/>
<path d="M198.768 144.048L215.932 134.158L239.245 147.55L222.097 157.431L198.768 144.048Z" fill="#F6F4F2" stroke="#281D18" stroke-linecap="round" stroke-linejoin="round"/>
<path d="M198.768 142.505L215.932 132.615L239.245 146.007L222.097 155.88L198.768 142.505Z" fill="#F6F4F2" stroke="#281D18" stroke-linecap="round" stroke-linejoin="round"/>
<path d="M198.768 142.506V144.048L222.097 157.431V155.881L198.768 142.506Z" fill="#F6F4F2" stroke="#281D18" stroke-linecap="round" stroke-linejoin="round"/>
<path d="M138.239 95.9811C138.033 95.776 137.869 95.5628 137.721 95.3496H137.959C138.041 95.5628 138.14 95.776 138.239 95.9811Z" fill="#F6F4F2" stroke="#281D18" stroke-linecap="round" stroke-linejoin="round"/>
<path d="M156.384 95.3496C156.253 95.5382 156.105 95.735 155.924 95.9154C156.014 95.7268 156.096 95.5382 156.17 95.3496H156.376H156.384Z" fill="#F6F4F2" stroke="#281D18" stroke-linecap="round" stroke-linejoin="round"/>
<path d="M157.903 95.9238L153.225 105.486C153.225 106.404 152.625 107.314 151.417 108.003C149.016 109.389 145.095 109.389 142.695 108.003C141.494 107.314 140.894 106.404 140.894 105.494L136.217 95.9484C136.759 96.8833 137.672 97.7608 138.954 98.4988C139.628 98.8842 140.376 99.2204 141.157 99.4911C144.807 100.746 149.427 100.738 153.052 99.4501C153.801 99.1876 154.499 98.876 155.14 98.507C156.439 97.7607 157.36 96.8669 157.894 95.9238H157.903Z" fill="#F6F4F2" stroke="#281D18" stroke-linecap="round" stroke-linejoin="round"/>
<path d="M136.216 95.9564C136.092 95.7514 135.994 95.5546 135.92 95.3496L136.216 95.9564Z" fill="#F6F4F2" stroke="#281D18" stroke-linecap="round" stroke-linejoin="round"/>
<path d="M138.24 95.9819C138.035 95.7769 137.871 95.5637 137.723 95.3505C137.394 94.8584 137.213 94.3582 137.213 93.8498C137.213 93.6037 137.254 93.3495 137.344 93.1035C137.46 93.8826 137.665 94.6288 137.961 95.3505C138.043 95.5637 138.142 95.7769 138.24 95.9819Z" fill="#F6F4F2" stroke="#281D18" stroke-linecap="round" stroke-linejoin="round"/>
<path d="M158.18 95.3512L157.901 95.9252C157.358 96.8683 156.446 97.7621 155.147 98.5084C154.505 98.8774 153.807 99.1972 153.059 99.4514C149.433 100.739 144.813 100.747 141.164 99.4924C140.383 99.2218 139.643 98.8938 138.96 98.5002C137.678 97.7621 136.757 96.8847 136.223 95.9498L135.927 95.343C135.269 93.6947 135.705 91.9316 137.251 90.4473V91.6773C137.251 92.153 137.292 92.6286 137.349 93.096C137.267 93.342 137.218 93.5963 137.218 93.8423C137.218 94.3507 137.39 94.8509 137.727 95.343C137.875 95.5644 138.04 95.7694 138.245 95.9744C138.648 96.3844 139.15 96.7699 139.758 97.1143C141.649 98.205 144.304 98.8282 147.049 98.8282C149.795 98.8282 152.459 98.205 154.341 97.1143C154.982 96.7453 155.508 96.3352 155.919 95.9088C156.092 95.7202 156.248 95.5316 156.38 95.343C156.709 94.8509 156.881 94.3425 156.889 93.8341C156.889 93.6045 156.848 93.3748 156.774 93.1452C156.848 92.6614 156.889 92.1858 156.889 91.6855V90.4637C158.41 91.948 158.846 93.7029 158.188 95.343L158.18 95.3512Z" fill="#F6F4F2" stroke="#281D18" stroke-linecap="round" stroke-linejoin="round"/>
<path d="M156.779 93.1543C156.853 93.3839 156.894 93.6135 156.894 93.8431C156.894 94.3516 156.721 94.86 156.384 95.352C156.253 95.5407 156.105 95.7375 155.924 95.9179C156.014 95.7293 156.096 95.5407 156.17 95.352C156.458 94.6468 156.664 93.9169 156.771 93.1543H156.779Z" fill="#F6F4F2" stroke="#281D18" stroke-linecap="round" stroke-linejoin="round"/>
<path d="M158.176 95.3613C158.102 95.5499 158.012 95.7467 157.896 95.9272L158.176 95.3613Z" fill="#F6F4F2" stroke="#281D18" stroke-linecap="round" stroke-linejoin="round"/>
<path d="M138.24 95.9819C138.035 95.7769 137.871 95.5637 137.723 95.3505C137.394 94.8584 137.213 94.3582 137.213 93.8498C137.213 93.6037 137.254 93.3495 137.344 93.1035C137.46 93.8826 137.665 94.6288 137.961 95.3505C138.043 95.5637 138.142 95.7769 138.24 95.9819Z" fill="#F6F4F2" stroke="#281D18" stroke-linecap="round" stroke-linejoin="round"/>
<path d="M156.882 93.851C156.882 94.3594 156.709 94.8678 156.372 95.3599C156.241 95.5485 156.093 95.7453 155.912 95.9257C156.003 95.7371 156.085 95.5485 156.159 95.3599C156.446 94.6546 156.652 93.9248 156.759 93.1621C156.833 93.3917 156.874 93.6213 156.874 93.851H156.882Z" fill="#F6F4F2" stroke="#281D18" stroke-linecap="round" stroke-linejoin="round"/>
<path d="M136.216 95.9564C136.092 95.7514 135.994 95.5546 135.92 95.3496L136.216 95.9564Z" fill="#F6F4F2" stroke="#281D18" stroke-linecap="round" stroke-linejoin="round"/>
<path d="M138.24 95.9819C138.035 95.7769 137.871 95.5637 137.723 95.3505C137.394 94.8584 137.213 94.3582 137.213 93.8498C137.213 93.6037 137.254 93.3495 137.344 93.1035C137.46 93.8826 137.665 94.6288 137.961 95.3505C138.043 95.5637 138.142 95.7769 138.24 95.9819Z" fill="#F6F4F2" stroke="#281D18" stroke-linecap="round" stroke-linejoin="round"/>
<path d="M156.779 93.1543C156.853 93.3839 156.894 93.6135 156.894 93.8431C156.894 94.3516 156.721 94.86 156.384 95.352C156.253 95.5407 156.105 95.7375 155.924 95.9179C156.014 95.7293 156.096 95.5407 156.17 95.352C156.458 94.6468 156.664 93.9169 156.771 93.1543H156.779Z" fill="#F6F4F2" stroke="#281D18" stroke-linecap="round" stroke-linejoin="round"/>
<path d="M158.176 95.3613C158.102 95.5499 158.012 95.7467 157.896 95.9272L158.176 95.3613Z" fill="#F6F4F2" stroke="#281D18" stroke-linecap="round" stroke-linejoin="round"/>
<path d="M138.24 95.9819C138.035 95.7769 137.871 95.5637 137.723 95.3505C137.394 94.8584 137.213 94.3582 137.213 93.8498C137.213 93.6037 137.254 93.3495 137.344 93.1035C137.46 93.8826 137.665 94.6288 137.961 95.3505C138.043 95.5637 138.142 95.7769 138.24 95.9819Z" fill="#F6F4F2" stroke="#281D18" stroke-linecap="round" stroke-linejoin="round"/>
<path d="M156.882 93.851C156.882 94.3594 156.709 94.8678 156.372 95.3599C156.241 95.5485 156.093 95.7453 155.912 95.9257C156.003 95.7371 156.085 95.5485 156.159 95.3599C156.446 94.6546 156.652 93.9248 156.759 93.1621C156.833 93.3917 156.874 93.6213 156.874 93.851H156.882Z" fill="#F6F4F2" stroke="#281D18" stroke-linecap="round" stroke-linejoin="round"/>
<path d="M156.883 80.3216V91.7039C156.883 92.1959 156.841 92.6798 156.767 93.1554C156.652 93.918 156.455 94.6561 156.167 95.3613C156.093 95.55 156.011 95.7468 155.921 95.9272C155.51 96.3618 154.984 96.7636 154.342 97.1327C152.452 98.2233 149.796 98.8466 147.051 98.8466C144.305 98.8466 141.642 98.2233 139.759 97.1327C139.159 96.7882 138.649 96.3946 138.247 95.9928C138.148 95.7796 138.049 95.5664 137.967 95.3531C137.671 94.6315 137.474 93.8852 137.351 93.1062C137.285 92.6388 137.252 92.1631 137.252 91.6875V80.3216C137.252 76.8609 139.085 73.6545 142.077 71.8996H142.094C145.168 70.0791 148.991 70.0791 152.065 71.8914C153.561 72.7689 154.77 74.0154 155.6 75.4668C156.439 76.9183 156.899 78.5831 156.899 80.3134L156.883 80.3216Z" fill="#F6F4F2" stroke="#281D18" stroke-linecap="round" stroke-linejoin="round"/>
<path d="M138.595 77.1378L142.401 80.1064C142.565 80.2376 142.713 80.3688 142.861 80.5247C143.083 80.7625 143.28 81.0167 143.436 81.2955C143.478 81.3693 143.527 81.4513 143.56 81.5251C143.601 81.7711 143.593 82.0582 143.56 82.3616C143.436 83.2718 142.951 84.3215 142.228 85.2318C141.505 86.142 140.609 86.8719 139.754 87.2163C139.482 87.3229 139.219 87.3967 138.981 87.4213C138.882 87.4049 138.792 87.3803 138.693 87.3475C138.381 87.2573 138.077 87.1261 137.781 86.9703C137.608 86.8719 137.444 86.7571 137.279 86.6341L133.481 83.6737C132.322 82.7716 131.73 81.3283 131.919 79.8768C132.117 78.3761 133.111 77.105 134.517 76.5474C135.199 76.2768 135.931 76.203 136.638 76.3014C137.345 76.3998 138.019 76.6786 138.595 77.1378Z" fill="#F6F4F2" stroke="#281D18" stroke-linecap="round" stroke-linejoin="round"/>
<path d="M157.4 75.2439L155.369 77.6712C155.279 77.7778 155.189 77.868 155.09 77.9582C154.934 78.0976 154.753 78.2206 154.572 78.3191C154.523 78.3437 154.473 78.3683 154.416 78.3929C154.251 78.4093 154.062 78.4011 153.865 78.3683C153.265 78.2616 152.591 77.9254 152.007 77.4334C151.424 76.9414 150.963 76.3427 150.758 75.7769C150.692 75.5965 150.651 75.4243 150.643 75.2685C150.659 75.2028 150.675 75.1454 150.692 75.0798C150.758 74.8748 150.848 74.678 150.963 74.4894C151.029 74.3746 151.111 74.268 151.193 74.1696L153.224 71.7504C153.84 71.0124 154.802 70.6598 155.756 70.8156C156.734 70.9796 157.548 71.652 157.877 72.5869C158.041 73.0379 158.074 73.5217 157.992 73.981C157.91 74.4402 157.712 74.8748 157.4 75.2439Z" fill="#F6F4F2" stroke="#281D18" stroke-linecap="round" stroke-linejoin="round"/>
<path d="M154.172 72.0639L153.967 68.9395" stroke="#281D18" stroke-linecap="round" stroke-linejoin="round"/>
<path d="M156.779 74.2363L159.287 74.5479" stroke="#281D18" stroke-linecap="round" stroke-linejoin="round"/>
<path d="M135.732 77.877L134.803 75.4824" stroke="#281D18" stroke-linecap="round" stroke-linejoin="round"/>
<path d="M133.62 81.8379L131.326 82.1495" stroke="#281D18" stroke-linecap="round" stroke-linejoin="round"/>
<path d="M141.025 80.6961L141.231 78.4082" stroke="#281D18" stroke-linecap="round" stroke-linejoin="round"/>
<path d="M156.104 81.5733L158.2 79.8184" stroke="#281D18" stroke-linecap="round" stroke-linejoin="round"/>
<path d="M155.939 87.2484L158.965 86.002" stroke="#281D18" stroke-linecap="round" stroke-linejoin="round"/>
<path d="M137.992 89.8751L135.287 88.9238" stroke="#281D18" stroke-linecap="round" stroke-linejoin="round"/>
<path d="M146.163 71.9387L144.174 68.4043" stroke="#281D18" stroke-linecap="round" stroke-linejoin="round"/>
<path d="M149.475 71.9545L150.831 68.8301" stroke="#281D18" stroke-linecap="round" stroke-linejoin="round"/>
<path d="M149.139 84.2129L151.038 81.7363" stroke="#281D18" stroke-linecap="round" stroke-linejoin="round"/>
<path d="M149.896 91.5284L153.135 89.9785" stroke="#281D18" stroke-linecap="round" stroke-linejoin="round"/>
<path d="M145.204 88.1853L143.346 86.291" stroke="#281D18" stroke-linecap="round" stroke-linejoin="round"/>
<path d="M141.346 74.7511L138.74 72.0449" stroke="#281D18" stroke-linecap="round" stroke-linejoin="round"/>
</svg>
