<svg width="34" height="34" viewBox="0 0 34 34" fill="none" xmlns="http://www.w3.org/2000/svg">
<path fill-rule="evenodd" clip-rule="evenodd" d="M0.635986 17.0154C0.635986 8.0258 7.9235 0.738281 16.9131 0.738281C25.9027 0.738281 33.1902 8.0258 33.1902 17.0154C33.1902 26.005 25.9027 33.2925 16.9131 33.2925C7.9235 33.2925 0.635986 26.005 0.635986 17.0154ZM16.9131 8.87684C21.3893 8.87684 25.0517 12.5392 25.0517 17.0154C25.0517 21.0847 22.1014 24.5436 18.0322 25.154V19.3552H19.9651L20.372 17.0154H18.1339V15.4894C18.1339 14.879 18.4391 14.2686 19.4564 14.2686H20.4737V12.234C20.4737 12.234 19.5581 12.0305 18.6426 12.0305C16.8114 12.0305 15.5906 13.1496 15.5906 15.1842V17.0154H13.556V19.3552H15.5906V25.0522C11.7248 24.4418 8.77455 21.0847 8.77455 17.0154C8.77455 12.5392 12.4369 8.87684 16.9131 8.87684Z" fill="#F2BDEB"/>
</svg>
