<svg width="196" height="44" viewBox="0 0 196 44" fill="none" xmlns="http://www.w3.org/2000/svg">
<path d="M21.5084 2.92937C19.4184 0.169375 15.2684 0.169375 13.1784 2.92937L1.89839 17.8394C-0.701614 21.2794 1.74839 26.2094 6.05839 26.2094H12.3884V33.0294C12.3884 35.7594 14.5984 37.9794 17.3384 37.9794C20.0784 37.9794 22.2884 35.7694 22.2884 33.0294V26.2094H28.6184C32.9284 26.2094 35.3884 21.2794 32.7784 17.8394L21.4984 2.92937H21.5084Z" fill="black"/>
<path d="M114.09 18.7994H104.27L108.8 14.2694C110.11 12.9594 110.11 10.8294 108.8 9.50937C107.49 8.19937 105.36 8.19937 104.04 9.50937L99.5096 14.0394V4.21937C99.5096 2.35937 97.9996 0.859375 96.1496 0.859375C94.2996 0.859375 92.7896 2.36937 92.7896 4.21937V14.0394L88.2596 9.50937C86.9496 8.19937 84.8196 8.19937 83.4996 9.50937C82.1896 10.8194 82.1896 12.9494 83.4996 14.2694L88.0296 18.7994H78.2096C76.3496 18.7994 74.8496 20.3094 74.8496 22.1594C74.8496 24.0094 76.3596 25.5194 78.2096 25.5194H88.0296L83.4996 30.0494C82.1896 31.3594 82.1896 33.4894 83.4996 34.8094C84.8096 36.1294 86.9396 36.1194 88.2596 34.8094L92.7896 30.2794V40.0994C92.7896 41.9594 94.2996 43.4594 96.1496 43.4594C97.9996 43.4594 99.5096 41.9494 99.5096 40.0994V30.2794L104.04 34.8094C105.35 36.1194 107.48 36.1194 108.8 34.8094C110.12 33.4994 110.11 31.3694 108.8 30.0494L104.27 25.5194H114.09C115.95 25.5194 117.45 24.0094 117.45 22.1594C117.45 20.3094 115.94 18.7994 114.09 18.7994Z" fill="black"/>
<path d="M191.269 15.2294H180.979V4.93938C180.979 2.68938 179.149 0.859375 176.899 0.859375C174.649 0.859375 172.819 2.68938 172.819 4.93938V15.2294H162.529C160.279 15.2294 158.449 17.0594 158.449 19.3094C158.449 21.5594 160.279 23.3894 162.529 23.3894H172.819V33.6794C172.819 35.9294 174.649 37.7594 176.899 37.7594C179.149 37.7594 180.979 35.9294 180.979 33.6794V23.3894H191.269C193.519 23.3894 195.349 21.5594 195.349 19.3094C195.349 17.0594 193.519 15.2294 191.269 15.2294Z" fill="black"/>
</svg>
