<svg width="33" height="34" viewBox="0 0 33 34" fill="none" xmlns="http://www.w3.org/2000/svg">
<path d="M16.5908 19.8639C15.0649 19.8639 13.7423 18.6431 13.7423 17.0154C13.7423 15.4894 14.9631 14.1669 16.5908 14.1669C18.1168 14.1669 19.4393 15.3877 19.4393 17.0154C19.4393 18.5414 18.1168 19.8639 16.5908 19.8639Z" fill="#F2BDEB"/>
<path fill-rule="evenodd" clip-rule="evenodd" d="M20.0497 10.0976H13.132C12.3181 10.1994 11.9112 10.3011 11.606 10.4028C11.199 10.5046 10.8939 10.708 10.5887 11.0132C10.3472 11.2547 10.2331 11.4962 10.0951 11.7881C10.0588 11.865 10.0207 11.9457 9.97826 12.0305C9.96253 12.0777 9.94435 12.1274 9.92488 12.1806C9.81845 12.4714 9.67307 12.8686 9.67307 13.5565V20.4743C9.7748 21.2882 9.87653 21.6951 9.97826 22.0003C10.08 22.4072 10.2835 22.7124 10.5887 23.0176C10.8302 23.2591 11.0717 23.3732 11.3636 23.5111C11.4405 23.5475 11.521 23.5855 11.606 23.628C11.6532 23.6437 11.7028 23.6619 11.7561 23.6814C12.0468 23.7878 12.444 23.9332 13.132 23.9332H20.0497C20.8636 23.8315 21.2705 23.7297 21.5757 23.628C21.9826 23.5263 22.2878 23.3228 22.593 23.0176C22.8345 22.7761 22.9486 22.5346 23.0866 22.2427C23.1229 22.1657 23.161 22.0852 23.2034 22.0003C23.2192 21.9531 23.2373 21.9034 23.2568 21.8502C23.3632 21.5594 23.5086 21.1622 23.5086 20.4743V13.5565C23.4069 12.7427 23.3052 12.3357 23.2034 12.0305C23.1017 11.6236 22.8982 11.3184 22.593 11.0132C22.3515 10.7717 22.11 10.6576 21.8181 10.5197C21.7413 10.4834 21.6605 10.4452 21.5757 10.4028C21.5285 10.3871 21.4789 10.3689 21.4256 10.3494C21.1349 10.243 20.7377 10.0976 20.0497 10.0976ZM16.5908 12.6409C14.1493 12.6409 12.2164 14.5738 12.2164 17.0154C12.2164 19.457 14.1493 21.3899 16.5908 21.3899C19.0324 21.3899 20.9653 19.457 20.9653 17.0154C20.9653 14.5738 19.0324 12.6409 16.5908 12.6409ZM22.0844 12.5392C22.0844 13.101 21.6289 13.5565 21.0671 13.5565C20.5052 13.5565 20.0497 13.101 20.0497 12.5392C20.0497 11.9773 20.5052 11.5219 21.0671 11.5219C21.6289 11.5219 22.0844 11.9773 22.0844 12.5392Z" fill="#F2BDEB"/>
<path fill-rule="evenodd" clip-rule="evenodd" d="M0.313721 17.0154C0.313721 8.0258 7.60124 0.738281 16.5908 0.738281C25.5805 0.738281 32.868 8.0258 32.868 17.0154C32.868 26.005 25.5805 33.2925 16.5908 33.2925C7.60124 33.2925 0.313721 26.005 0.313721 17.0154ZM13.132 8.57165H20.0497C20.9653 8.67338 21.5757 8.77511 22.0844 8.97857C22.6948 9.28377 23.1017 9.48723 23.6104 9.99589C24.119 10.5046 24.4242 11.0132 24.6277 11.5219C24.8311 12.0305 25.0346 12.6409 25.0346 13.5565V20.4743C24.9329 21.3899 24.8311 22.0003 24.6277 22.5089C24.3225 23.1193 24.119 23.5263 23.6104 24.0349C23.1017 24.5436 22.593 24.8488 22.0844 25.0522C21.5757 25.2557 20.9653 25.4592 20.0497 25.4592H13.132C12.2164 25.3574 11.606 25.2557 11.0973 25.0522C10.4869 24.747 10.08 24.5436 9.57134 24.0349C9.06268 23.5263 8.75748 23.0176 8.55402 22.5089C8.35055 22.0003 8.14709 21.3899 8.14709 20.4743V13.5565C8.24882 12.6409 8.35055 12.0305 8.55402 11.5219C8.85921 10.9115 9.06268 10.5046 9.57134 9.99589C10.08 9.48723 10.5887 9.18204 11.0973 8.97857C11.606 8.77511 12.2164 8.57165 13.132 8.57165Z" fill="#F2BDEB"/>
</svg>
