<svg width="403" height="225" viewBox="0 0 403 225" fill="none" xmlns="http://www.w3.org/2000/svg">
<path d="M312.234 125.819L212.753 182.746L83.2637 104.595L171.219 54.7068L197.45 53.5195L312.234 125.819Z" fill="#281D18" stroke="#281D18" stroke-linecap="round" stroke-linejoin="round"/>
<path d="M317.186 122.214L217.705 179.142L85.1421 102.56L169.341 54.7917L197.45 53.5195L317.186 122.214Z" fill="#EAE6DE" stroke="#281D18" stroke-linecap="round" stroke-linejoin="round"/>
<path d="M197.45 53.5195L183.321 62.4668L169.341 54.7917L197.45 53.5195Z" fill="#EAE6DE" stroke="#281D18" stroke-linecap="round" stroke-linejoin="round"/>
<path d="M123.667 106.439L134.53 100.121L145.18 106.439L134.359 112.694L123.667 106.439Z" fill="#EAE6DE" stroke="#281D18" stroke-linecap="round" stroke-linejoin="round"/>
<path d="M145.181 118.779L156.044 112.461L166.695 118.779L155.874 125.034L145.181 118.779Z" fill="#EAE6DE" stroke="#281D18" stroke-linecap="round" stroke-linejoin="round"/>
<path d="M166.695 131.119L177.559 124.801L188.209 131.119L177.388 137.374L166.695 131.119Z" fill="#EAE6DE" stroke="#281D18" stroke-linecap="round" stroke-linejoin="round"/>
<path d="M188.208 143.438L199.072 137.141L209.722 143.438L198.901 149.713L188.208 143.438Z" fill="#EAE6DE" stroke="#281D18" stroke-linecap="round" stroke-linejoin="round"/>
<path d="M143.025 93.867L188.806 67.5977L199.456 73.8947L153.718 100.122L143.025 93.867Z" fill="#281D18" stroke="#281D18" stroke-linecap="round" stroke-linejoin="round"/>
<path d="M164.539 106.207L210.32 79.9375L220.971 86.2345L175.232 112.461L164.539 106.207Z" fill="#281D18" stroke="#281D18" stroke-linecap="round" stroke-linejoin="round"/>
<path d="M186.053 118.523L231.834 92.2539L242.484 98.5721L196.746 124.799L186.053 118.523Z" fill="#281D18" stroke="#281D18" stroke-linecap="round" stroke-linejoin="round"/>
<path d="M207.567 130.863L253.348 104.594L263.998 110.912L218.26 137.139L207.567 130.863Z" fill="#281D18" stroke="#281D18" stroke-linecap="round" stroke-linejoin="round"/>
<path d="M130.902 106.42H135.918L137.155 88.8008" stroke="#281D18" stroke-linecap="round" stroke-linejoin="round"/>
<path d="M174.314 131.777H179.33L180.568 114.18" stroke="#281D18" stroke-linecap="round" stroke-linejoin="round"/>
</svg>
