<svg width="361" height="203" viewBox="0 0 361 203" fill="none" xmlns="http://www.w3.org/2000/svg">
<path d="M62.0801 143.811L182.207 75.3242L265.37 124.672L145.739 192.662L62.0801 143.811Z" fill="#281D18"/>
<path d="M145.739 193.624C145.567 193.624 145.414 193.586 145.261 193.49L61.6019 144.658C61.3152 144.486 61.124 144.161 61.124 143.836C61.124 143.511 61.3152 143.186 61.6019 143.014L181.729 74.508C182.035 74.3359 182.398 74.3359 182.685 74.508L265.828 123.856C266.115 124.028 266.306 124.353 266.306 124.697C266.306 125.041 266.115 125.347 265.828 125.519L146.198 193.509C146.045 193.586 145.892 193.643 145.72 193.643L145.739 193.624ZM63.991 143.836L145.739 191.559L263.458 124.659L182.207 76.4391L63.991 143.836Z" fill="#281D18"/>
<path d="M247.613 11.121L243.332 8.21484L123.931 76.7973L128.575 79.455L247.613 11.121Z" fill="#281D18"/>
<path d="M128.575 80.4124C128.403 80.4124 128.25 80.3742 128.097 80.2786L123.453 77.6209C123.147 77.4489 122.975 77.143 122.975 76.7988C122.975 76.4547 123.166 76.1487 123.453 75.9767L242.854 7.39417C243.179 7.22209 243.561 7.22209 243.867 7.43241L248.148 10.3386C248.416 10.5298 248.588 10.8357 248.569 11.1608C248.569 11.4858 248.378 11.7917 248.091 11.9638L129.053 80.2977C128.9 80.3742 128.747 80.4315 128.575 80.4315V80.4124ZM125.861 76.7988L128.575 78.3666L245.817 11.0652L243.294 9.3635L125.861 76.7988Z" fill="#281D18"/>
<path d="M131.404 93.1639L250.48 25.002L247.613 11.1211L128.575 79.455L131.404 93.1639Z" fill="#281D18"/>
<path d="M131.404 94.1244C131.27 94.1244 131.137 94.1053 131.003 94.048C130.716 93.9141 130.525 93.6656 130.468 93.3788L127.639 79.6699C127.562 79.2684 127.735 78.8478 128.098 78.6566L247.136 10.3035C247.403 10.1506 247.728 10.1314 247.996 10.2653C248.282 10.3991 248.474 10.6477 248.531 10.9345L251.398 24.8154C251.474 25.2169 251.302 25.6375 250.939 25.8479L131.863 93.9906C131.71 94.0671 131.557 94.1244 131.385 94.1244H131.404ZM129.646 79.9376L132.073 91.6771L249.41 24.5286L246.945 12.617L129.646 79.9567V79.9376Z" fill="#281D18"/>
<path d="M207.628 195.227L191.955 186.222L279.876 136.262L292.568 136.644L294.135 137.791L290.14 148.212L207.628 195.227Z" fill="#281D18"/>
<path d="M207.628 196.186C207.456 196.186 207.303 196.148 207.15 196.052L191.477 187.047C191.172 186.875 191 186.549 191 186.205C191 185.861 191.191 185.555 191.477 185.383L279.38 135.442C279.533 135.347 279.685 135.309 279.877 135.309L292.568 135.691C292.759 135.691 292.95 135.767 293.103 135.882L294.67 137.01C295.014 137.259 295.148 137.718 294.995 138.119L291.001 148.539C290.924 148.75 290.771 148.922 290.58 149.037L208.068 196.052C207.915 196.128 207.762 196.186 207.59 196.186H207.628ZM193.886 186.224L207.628 194.121L289.357 147.545L292.969 138.119L292.243 137.584L280.106 137.221L193.886 186.205V186.224Z" fill="#281D18"/>
<path d="M299.869 133.512L297.04 137.795L294.518 136.265L294.135 134.487L299.869 133.512Z" fill="#281D18"/>
<path d="M297.041 137.793L290.81 147.18C291.001 146.683 291.115 146.09 291.115 145.402C291.115 144.714 291.001 143.987 290.81 143.28C290.37 141.636 289.453 139.972 288.306 138.691C287.675 137.984 286.968 137.372 286.222 136.951C285.267 136.397 284.388 136.206 283.623 136.32V136.282L294.116 134.504L294.518 136.282L297.041 137.793Z" fill="#F2BDEB"/>
<path d="M290.809 143.257C291 143.984 291.115 144.711 291.115 145.38C291.115 146.049 291 146.661 290.809 147.158L290.121 148.19L289.146 148.745L221.523 187.864C222.269 187.309 222.728 186.277 222.728 184.862C222.728 184.212 222.632 183.543 222.46 182.854L290.809 143.238V143.257Z" fill="#F2BDEB"/>
<path d="M290.809 143.257L222.46 182.873C222.021 181.171 221.084 179.45 219.899 178.131L288.306 138.668C289.452 139.968 290.37 141.612 290.809 143.257Z" fill="#281D18"/>
<path d="M288.306 138.669L219.899 178.132C219.268 177.444 218.58 176.851 217.854 176.43C216.707 175.761 215.637 175.627 214.796 175.914L282.4 136.872C282.744 136.566 283.145 136.374 283.623 136.317C284.368 136.202 285.267 136.394 286.222 136.948C286.968 137.369 287.675 137.98 288.306 138.688V138.669Z" fill="#F2BDEB"/>
<path d="M222.479 182.875C222.651 183.563 222.747 184.233 222.747 184.883C222.747 186.297 222.288 187.33 221.543 187.884H221.524L221.122 188.133L211.489 193.811C212.235 193.257 212.693 192.225 212.693 190.81C212.693 187.712 210.495 183.907 207.8 182.34C206.654 181.67 205.583 181.537 204.742 181.823L214.031 176.355L214.796 175.896C215.637 175.61 216.688 175.743 217.854 176.413C218.58 176.833 219.287 177.426 219.899 178.114C221.084 179.433 222.021 181.154 222.46 182.856L222.479 182.875Z" fill="#F2BDEB"/>
<path d="M212.693 190.812C212.693 192.227 212.234 193.26 211.489 193.814C210.591 194.483 209.272 194.483 207.8 193.623C205.124 192.074 202.926 188.269 202.926 185.172C202.926 183.834 203.328 182.839 204.016 182.266C204.245 182.075 204.494 181.941 204.761 181.826C205.602 181.539 206.653 181.673 207.819 182.342C210.514 183.891 212.712 187.696 212.712 190.812H212.693Z" fill="#F2BDEB"/>
<path d="M204.761 181.824L214.031 176.355" stroke="#281D18" stroke-linecap="round" stroke-linejoin="round"/>
<path d="M221.122 188.137L211.489 193.815" stroke="#281D18" stroke-linecap="round" stroke-linejoin="round"/>
<path d="M214.069 176.334C214.299 176.143 214.547 176.009 214.815 175.895L214.05 176.353C214.05 176.353 214.05 176.353 214.069 176.334Z" stroke="#281D18" stroke-linecap="round" stroke-linejoin="round"/>
<path d="M221.543 187.887C221.409 187.982 221.275 188.059 221.122 188.135L221.523 187.906H221.543V187.887Z" stroke="#281D18" stroke-linecap="round" stroke-linejoin="round"/>
<path d="M204.761 181.826C205.602 181.539 206.653 181.673 207.819 182.342C210.514 183.891 212.712 187.696 212.712 190.812C212.712 192.227 212.254 193.26 211.508 193.814C210.61 194.483 209.291 194.483 207.819 193.623C205.143 192.074 202.945 188.269 202.945 185.172C202.945 183.834 203.347 182.839 204.035 182.266C204.264 182.075 204.513 181.941 204.78 181.826H204.761Z" stroke="#281D18" stroke-linecap="round" stroke-linejoin="round"/>
<path d="M290.141 148.215C289.873 148.483 289.529 148.674 289.166 148.769" stroke="#281D18" stroke-linecap="round" stroke-linejoin="round"/>
<path d="M290.809 147.184C290.637 147.604 290.408 147.948 290.121 148.216" stroke="#281D18" stroke-linecap="round" stroke-linejoin="round"/>
<path d="M290.81 143.261C291.001 143.988 291.116 144.714 291.116 145.383C291.116 146.052 291.001 146.664 290.81 147.161L290.122 148.194L289.147 148.748L221.524 187.867C222.269 187.313 222.728 186.28 222.728 184.866C222.728 184.215 222.632 183.546 222.46 182.858C222.021 181.156 221.084 179.436 219.899 178.116C219.268 177.428 218.58 176.835 217.854 176.415C216.707 175.745 215.637 175.612 214.796 175.898L282.4 136.856C282.744 136.55 283.145 136.359 283.623 136.301C284.369 136.187 285.267 136.378 286.223 136.932C286.968 137.353 287.675 137.965 288.306 138.672C289.453 139.972 290.37 141.617 290.81 143.261Z" stroke="#281D18" stroke-linecap="round" stroke-linejoin="round"/>
<path d="M214.815 175.895L214.069 176.334" stroke="#281D18" stroke-linecap="round" stroke-linejoin="round"/>
<path d="M297.041 137.793L290.81 147.181" stroke="#281D18" stroke-linecap="round" stroke-linejoin="round"/>
<path d="M283.642 136.259L294.135 134.48" stroke="#281D18" stroke-linecap="round" stroke-linejoin="round"/>
<path d="M219.918 178.112L288.306 138.668" stroke="#281D18" stroke-linecap="round" stroke-linejoin="round"/>
<path d="M222.479 182.878L290.81 143.262" stroke="#281D18" stroke-linecap="round" stroke-linejoin="round"/>
<path d="M294.135 134.487L294.518 136.265L297.04 137.795L299.869 133.512L294.135 134.487Z" stroke="#281D18" stroke-linecap="round" stroke-linejoin="round"/>
<path d="M139.317 188.784L113.629 173.622L136.527 160.41L139.317 188.784Z" fill="#F2BDEB"/>
<path d="M139.317 189.741C139.107 189.741 138.915 189.665 138.763 189.55L113.151 174.446C112.864 174.274 112.673 173.948 112.673 173.623C112.673 173.298 112.864 172.973 113.151 172.801L136.048 159.59C136.335 159.437 136.679 159.417 136.966 159.57C137.253 159.723 137.444 160.01 137.482 160.335L140.273 188.709C140.33 189.225 139.948 189.703 139.412 189.761C139.374 189.761 139.355 189.761 139.317 189.761V189.741ZM115.521 173.643L138.17 187.007L135.704 161.98L115.521 173.643Z" fill="#281D18"/>
<path d="M258.355 120.142L139.317 188.782L136.526 160.408L128.575 79.455L247.613 11.1211L258.355 120.142Z" fill="#F2BDEB"/>
<path d="M139.317 189.738C139.164 189.738 139.011 189.7 138.877 189.624C138.591 189.471 138.4 189.184 138.361 188.859L127.62 79.5321C127.581 79.1497 127.772 78.8055 128.097 78.6143L247.135 10.2995C247.422 10.1274 247.766 10.1274 248.053 10.2804C248.34 10.4334 248.531 10.7202 248.569 11.0452L259.311 120.066C259.349 120.448 259.158 120.792 258.833 120.984L139.795 189.624C139.642 189.7 139.489 189.757 139.317 189.757V189.738ZM129.588 79.9718L140.12 187.214L257.342 119.626L246.81 12.6895L129.588 79.9718Z" fill="#281D18"/>
<path d="M269.88 118.88L150.842 187.52L128.575 79.455L247.613 11.1211L269.88 118.88Z" fill="#F2BDEB"/>
<path d="M150.843 188.48C150.709 188.48 150.575 188.461 150.441 188.404C150.154 188.27 149.963 188.021 149.906 187.735L127.639 79.6699C127.562 79.2684 127.735 78.8478 128.098 78.6566L247.136 10.3035C247.403 10.1506 247.728 10.1314 247.996 10.2653C248.282 10.3991 248.474 10.6477 248.531 10.9345L270.798 118.693C270.874 119.095 270.702 119.515 270.339 119.707L151.301 188.346C151.148 188.423 150.995 188.48 150.823 188.48H150.843ZM129.646 79.9376L151.512 186.033L268.81 118.407L246.944 12.617L129.646 79.9567V79.9376Z" fill="#281D18"/>
<path d="M136.527 160.411L113.629 173.623L123.931 76.8008L128.576 79.4584L136.527 160.411Z" fill="#F2BDEB"/>
<path d="M113.629 174.581C113.457 174.581 113.265 174.523 113.113 174.428C112.807 174.237 112.635 173.892 112.692 173.529L122.994 76.7067C123.032 76.3817 123.224 76.0949 123.51 75.9611C123.797 75.8081 124.141 75.8272 124.428 75.9802L129.072 78.6378C129.34 78.7908 129.512 79.0585 129.55 79.3644L137.501 160.317C137.539 160.7 137.348 161.044 137.023 161.235L114.126 174.447C113.973 174.523 113.82 174.581 113.648 174.581H113.629ZM124.734 78.351L114.775 171.847L135.513 159.878L127.677 80.0336L124.734 78.351Z" fill="#281D18"/>
<path d="M144.287 102.688C143.962 102.688 143.637 102.516 143.465 102.21C143.197 101.751 143.35 101.178 143.809 100.91L243.523 43.245C243.963 42.9773 244.555 43.1303 244.823 43.5892C245.09 44.048 244.937 44.6216 244.479 44.8893L144.764 102.554C144.611 102.65 144.439 102.688 144.287 102.688Z" fill="#281D18"/>
<path d="M149.313 123.946C148.988 123.946 148.664 123.774 148.492 123.468C148.224 123.009 148.377 122.436 148.836 122.168L248.55 64.5028C249.009 64.2351 249.582 64.3881 249.85 64.847C250.117 65.3058 249.964 65.8794 249.506 66.1471L149.791 123.812C149.638 123.908 149.466 123.946 149.313 123.946Z" fill="#281D18"/>
<path d="M154.321 145.188C153.996 145.188 153.671 145.016 153.499 144.71C153.231 144.251 153.384 143.678 153.843 143.41L253.557 85.745C254.016 85.4773 254.589 85.6303 254.857 86.0892C255.125 86.548 254.972 87.1216 254.513 87.3893L154.799 145.054C154.646 145.15 154.474 145.188 154.321 145.188Z" fill="#281D18"/>
<path d="M159.348 166.43C159.023 166.43 158.698 166.258 158.526 165.952C158.259 165.494 158.412 164.92 158.87 164.652L258.585 106.987C259.043 106.72 259.617 106.872 259.884 107.331C260.152 107.79 259.999 108.364 259.54 108.631L159.826 166.297C159.673 166.392 159.501 166.43 159.348 166.43Z" fill="#281D18"/>
<path d="M172.632 166.551C172.192 166.551 171.81 166.264 171.695 165.824L153.384 88.7142C153.27 88.198 153.576 87.6817 154.092 87.567C154.589 87.4523 155.124 87.7582 155.238 88.2744L173.549 165.384C173.664 165.901 173.358 166.417 172.842 166.532C172.765 166.532 172.689 166.551 172.612 166.551H172.632Z" fill="#281D18"/>
<path d="M192.758 155.252C192.318 155.252 191.936 154.965 191.821 154.526L173.511 77.4156C173.396 76.8994 173.702 76.3832 174.218 76.2684C174.715 76.1346 175.25 76.4596 175.365 76.9759L193.675 154.086C193.79 154.602 193.484 155.118 192.968 155.233C192.892 155.233 192.815 155.252 192.739 155.252H192.758Z" fill="#281D18"/>
<path d="M212.903 143.949C212.464 143.949 212.082 143.662 211.967 143.223L193.656 66.1126C193.542 65.5964 193.847 65.0802 194.364 64.9654C194.88 64.8507 195.396 65.1566 195.51 65.6729L213.821 142.783C213.936 143.299 213.63 143.815 213.114 143.93C213.037 143.93 212.961 143.949 212.884 143.949H212.903Z" fill="#281D18"/>
<path d="M233.03 132.666C232.59 132.666 232.208 132.379 232.093 131.94L213.783 54.8297C213.668 54.3135 213.974 53.7972 214.49 53.6825C215.006 53.5487 215.522 53.8737 215.637 54.3899L233.947 131.5C234.062 132.016 233.756 132.532 233.24 132.647C233.164 132.647 233.087 132.666 233.011 132.666H233.03Z" fill="#281D18"/>
<path d="M253.156 121.371C252.716 121.371 252.334 121.084 252.219 120.644L233.909 43.5345C233.794 43.0183 234.1 42.502 234.616 42.3873C235.113 42.2726 235.648 42.5785 235.763 43.0947L254.073 120.205C254.188 120.721 253.882 121.237 253.366 121.352C253.29 121.352 253.213 121.371 253.137 121.371H253.156Z" fill="#281D18"/>
<path d="M194.191 122.285C188.553 122.285 183.125 118.556 181.213 113.203C179.761 109.149 180.468 104.541 182.8 100.985C180.984 101.291 179.187 101.731 177.41 102.285C176.913 102.438 176.378 102.171 176.206 101.654C176.034 101.138 176.32 100.622 176.837 100.45C179.359 99.6468 181.959 99.0923 184.577 98.7673C185.17 98.1746 185.82 97.6392 186.527 97.1612C186.967 96.8744 187.559 96.9891 187.846 97.4289C188.056 97.7539 188.056 98.1746 187.846 98.4805C191.401 98.3275 194.975 98.5952 198.492 99.3218C200.958 99.838 204.054 100.717 205.965 103.146C207.437 105 208.049 107.696 207.647 110.507C206.787 116.549 201.55 121.577 195.472 122.189C195.052 122.227 194.631 122.246 194.211 122.246L194.191 122.285ZM185.495 100.641C182.685 103.815 181.577 108.595 183.01 112.591C184.749 117.447 190.12 120.87 195.281 120.334C200.422 119.818 205.01 115.401 205.755 110.296C206.08 107.983 205.621 105.842 204.474 104.388C202.945 102.457 200.269 101.693 198.129 101.253C193.981 100.412 189.719 100.201 185.514 100.641H185.495Z" fill="#281D18"/>
</svg>
