<svg width="33" height="34" viewBox="0 0 33 34" fill="none" xmlns="http://www.w3.org/2000/svg">
<path fill-rule="evenodd" clip-rule="evenodd" d="M0.098877 17.0154C0.098877 8.0258 7.38639 0.738281 16.376 0.738281C25.3656 0.738281 32.6531 8.0258 32.6531 17.0154C32.6531 26.005 25.3656 33.2925 16.376 33.2925C7.38639 33.2925 0.098877 26.005 0.098877 17.0154ZM8.4409 14.2686V25.154H11.8998V14.2686H8.4409ZM8.23744 10.8098C8.23744 11.9288 9.0513 12.7427 10.1704 12.7427C11.2894 12.7427 12.1033 11.9288 12.1033 10.8098C12.1033 9.6907 11.2894 8.87684 10.1704 8.87684C9.15303 8.87684 8.23744 9.6907 8.23744 10.8098ZM21.0557 25.154H24.3111V18.4397C24.3111 15.0825 22.2765 13.9634 20.3435 13.9634C18.6141 13.9634 17.3933 15.0825 17.0881 15.7946V14.2686H13.8327V25.154H17.2916V19.3552C17.2916 17.8293 18.3089 17.0154 19.3262 17.0154C20.3435 17.0154 21.0557 17.5241 21.0557 19.2535V25.154Z" fill="#F2BDEB"/>
</svg>
