<svg width="237" height="196" viewBox="0 0 237 196" fill="none" xmlns="http://www.w3.org/2000/svg">
<g clip-path="url(#clip0_1646_8007)">
<path d="M24.0794 147.093C-6.6837 129.386 -6.6837 100.415 24.0794 82.7081L41.5229 72.6667C72.286 54.9601 122.623 54.9601 153.379 72.6667L213.925 107.51C244.688 125.217 244.688 154.189 213.925 171.895L196.481 181.937C165.718 199.643 115.382 199.643 84.625 181.937L24.0794 147.093Z" fill="#281D18"/>
<path d="M37.9992 97.5388L31.466 101.3L24.9329 97.5388L31.466 93.7773L37.9992 97.5388Z" fill="#F2BDEB" stroke="#281D18" stroke-width="1.12" stroke-linecap="round" stroke-linejoin="round"/>
<path d="M39.4504 94.9431V137.407L35.4954 135.134L32.9172 91.1816L39.4504 94.9431Z" fill="#F2BDEB" stroke="#281D18" stroke-linecap="round" stroke-linejoin="round"/>
<path d="M45.9853 91.1816L43.4006 135.134L39.4521 137.407V94.9431L45.9853 91.1816Z" fill="#F2BDEB" stroke="#281D18" stroke-linecap="round" stroke-linejoin="round"/>
<path d="M118.572 140.482V182.946L114.623 180.673L112.038 136.721L118.572 140.482Z" fill="#F2BDEB" stroke="#281D18" stroke-linecap="round" stroke-linejoin="round"/>
<path d="M125.107 136.721L122.522 180.673L118.573 182.946V140.482L125.107 136.721Z" fill="#F2BDEB" stroke="#281D18" stroke-linecap="round" stroke-linejoin="round"/>
<path d="M197.693 94.9431V137.407L193.744 135.134L191.159 91.1816L197.693 94.9431Z" fill="#F2BDEB" stroke="#281D18" stroke-linecap="round" stroke-linejoin="round"/>
<path d="M204.224 91.1816L201.639 135.134L197.691 137.407V94.9431L204.224 91.1816Z" fill="#F2BDEB" stroke="#281D18" stroke-linecap="round" stroke-linejoin="round"/>
<path d="M35.8261 109.101C9.03095 93.6801 9.03095 68.4441 35.8261 53.0228L47.3988 46.3609C74.1939 30.9396 118.036 30.9396 144.832 46.3609L192.739 73.9341C219.535 89.3554 219.535 114.591 192.739 130.013L181.167 136.675C154.372 152.096 110.529 152.096 83.7339 136.675L35.8261 109.101Z" fill="#F2BDEB"/>
<path d="M35.8261 109.101C9.03095 93.6801 9.03095 68.4441 35.8261 53.0228L47.3988 46.3609C74.1939 30.9396 118.036 30.9396 144.832 46.3609L192.739 73.9341C219.535 89.3554 219.535 114.591 192.739 130.013L181.167 136.675C154.372 152.096 110.529 152.096 83.7339 136.675L35.8261 109.101Z" stroke="#281D18" stroke-linecap="round" stroke-linejoin="round"/>
<path d="M195.53 101.722C188.276 97.546 188.276 90.7158 195.53 86.5401C202.784 82.3643 214.649 82.3643 221.903 86.5401C229.157 90.7158 229.157 97.546 221.903 101.722C214.649 105.898 202.784 105.898 195.53 101.722Z" fill="#F2BDEB"/>
<path d="M195.53 101.722C188.276 97.546 188.276 90.7158 195.53 86.5401C202.784 82.3643 214.649 82.3643 221.903 86.5401C229.157 90.7158 229.157 97.546 221.903 101.722C214.649 105.898 202.784 105.898 195.53 101.722Z" stroke="#281D18" stroke-width="1.12" stroke-linecap="round" stroke-linejoin="round"/>
<path d="M208.718 64.1395V95.5583L204.789 93.2988L206.341 62.7734L208.718 64.1395Z" stroke="#281D18" stroke-width="1.12" stroke-linecap="round" stroke-linejoin="round"/>
<path d="M212.647 93.2988L208.718 95.5583V64.1395L211.095 62.7734L212.647 93.2988Z" stroke="#281D18" stroke-width="1.12" stroke-linecap="round" stroke-linejoin="round"/>
<path d="M225.473 39.3176C230.025 41.9396 233.935 48.3619 234.155 53.5995L234.675 65.6996C234.902 70.9371 231.363 77.3595 226.81 79.9815L216.991 85.6334C212.439 88.2554 204.977 88.2683 200.418 85.6722L190.345 79.9426C185.78 77.3465 185.78 73.093 190.345 70.4969L200.418 64.7609C204.983 62.1647 208.977 55.7554 209.289 50.5308L209.913 40.2046C210.231 34.9735 214.212 32.837 218.764 35.4591L225.473 39.3176Z" fill="#F2BDEB"/>
<path d="M225.473 39.3176C230.025 41.9396 233.935 48.3619 234.155 53.5995L234.675 65.6996C234.902 70.9371 231.363 77.3595 226.81 79.9815L216.991 85.6334C212.439 88.2554 204.977 88.2683 200.418 85.6722L190.345 79.9426C185.78 77.3465 185.78 73.093 190.345 70.4969L200.418 64.7609C204.983 62.1647 208.977 55.7554 209.289 50.5308L209.913 40.2046C210.231 34.9735 214.212 32.837 218.764 35.4591L225.473 39.3176Z" stroke="#281D18" stroke-width="1.12" stroke-linecap="round" stroke-linejoin="round"/>
<path d="M225.473 37.4075C230.025 40.0295 233.935 46.4518 234.155 51.6893L234.675 63.7894C234.902 69.027 231.363 75.4493 226.81 78.0713L216.991 83.7232C212.439 86.3452 204.977 86.3582 200.418 83.7621L190.345 78.0325C185.78 75.4364 185.78 71.1829 190.345 68.5868L200.418 62.8507C204.983 60.2546 208.977 53.8452 209.289 48.6206L209.913 38.2944C210.231 33.0633 214.212 30.9269 218.764 33.5489L225.473 37.4075Z" fill="#F2BDEB"/>
<path d="M225.473 37.4075C230.025 40.0295 233.935 46.4518 234.155 51.6893L234.675 63.7894C234.902 69.027 231.363 75.4493 226.81 78.0713L216.991 83.7232C212.439 86.3452 204.977 86.3582 200.418 83.7621L190.345 78.0325C185.78 75.4364 185.78 71.1829 190.345 68.5868L200.418 62.8507C204.983 60.2546 208.977 53.8452 209.289 48.6206L209.913 38.2944C210.231 33.0633 214.212 30.9269 218.764 33.5489L225.473 37.4075Z" stroke="#281D18" stroke-width="1.12" stroke-linecap="round" stroke-linejoin="round"/>
<path d="M223.212 71.358C219.939 67.357 215.308 64.4889 210.269 63.3301" stroke="#281D18" stroke-width="1.12" stroke-linecap="round" stroke-linejoin="round"/>
<path d="M138.924 69.8683C131.67 65.6925 131.67 58.8623 138.924 54.6865C146.178 50.5107 158.043 50.5107 165.297 54.6865C172.551 58.8623 172.551 65.6925 165.297 69.8683C158.043 74.0441 146.178 74.0441 138.924 69.8683Z" fill="#F2BDEB"/>
<path d="M138.924 69.8683C131.67 65.6925 131.67 58.8623 138.924 54.6865C146.178 50.5107 158.043 50.5107 165.297 54.6865C172.551 58.8623 172.551 65.6925 165.297 69.8683C158.043 74.0441 146.178 74.0441 138.924 69.8683Z" stroke="#281D18" stroke-width="1.12" stroke-linecap="round" stroke-linejoin="round"/>
<path d="M152.108 32.286V63.7048L148.179 61.4453L149.731 30.9199L152.108 32.286Z" stroke="#281D18" stroke-width="1.12" stroke-linecap="round" stroke-linejoin="round"/>
<path d="M156.034 61.4453L152.105 63.7048V32.286L154.482 30.9199L156.034 61.4453Z" stroke="#281D18" stroke-width="1.12" stroke-linecap="round" stroke-linejoin="round"/>
<path d="M168.863 7.46606C173.416 10.0881 177.325 16.5104 177.546 21.7479L178.065 33.848C178.293 39.0856 174.753 45.5079 170.201 48.1299L160.382 53.7818C155.829 56.4038 148.367 56.4168 143.808 53.8206L133.736 48.0911C129.17 45.4949 129.17 41.2415 133.736 38.6453L143.808 32.9093C148.374 30.3132 152.368 23.9038 152.679 18.6792L153.303 8.35302C153.621 3.12194 157.602 0.985486 162.155 3.6075L168.863 7.46606Z" fill="#F2BDEB"/>
<path d="M168.863 7.46606C173.416 10.0881 177.325 16.5104 177.546 21.7479L178.065 33.848C178.293 39.0856 174.753 45.5079 170.201 48.1299L160.382 53.7818C155.829 56.4038 148.367 56.4168 143.808 53.8206L133.736 48.0911C129.17 45.4949 129.17 41.2415 133.736 38.6453L143.808 32.9093C148.374 30.3132 152.368 23.9038 152.679 18.6792L153.303 8.35302C153.621 3.12194 157.602 0.985486 162.155 3.6075L168.863 7.46606Z" stroke="#281D18" stroke-width="1.12" stroke-linecap="round" stroke-linejoin="round"/>
<path d="M168.863 5.56177C173.416 8.18378 177.325 14.6061 177.546 19.8436L178.065 31.9437C178.293 37.1813 174.753 43.6036 170.201 46.2256L160.382 51.8775C155.829 54.4995 148.367 54.5125 143.808 51.9163L133.736 46.1868C129.17 43.5907 129.17 39.3372 133.736 36.741L143.808 31.005C148.374 28.4089 152.368 21.9995 152.679 16.7749L153.303 6.44872C153.621 1.21764 157.602 -0.918811 162.155 1.7032L168.863 5.56177Z" fill="#F2BDEB"/>
<path d="M168.863 5.56177C173.416 8.18378 177.325 14.6061 177.546 19.8436L178.065 31.9437C178.293 37.1813 174.753 43.6036 170.201 46.2256L160.382 51.8775C155.829 54.4995 148.367 54.5125 143.808 51.9163L133.736 46.1868C129.17 43.5907 129.17 39.3372 133.736 36.741L143.808 31.005C148.374 28.4089 152.368 21.9995 152.679 16.7749L153.303 6.44872C153.621 1.21764 157.602 -0.918811 162.155 1.7032L168.863 5.56177Z" stroke="#281D18" stroke-width="1.12" stroke-linecap="round" stroke-linejoin="round"/>
<path d="M166.025 38.7291C162.751 34.7281 158.121 31.86 153.082 30.7012" stroke="#281D18" stroke-width="1.12" stroke-linecap="round" stroke-linejoin="round"/>
<path d="M35.8261 104.623C9.03095 89.2016 9.03095 63.9656 35.8261 48.5442L47.3988 41.8824C74.1939 26.4611 118.036 26.4611 144.832 41.8824L192.739 69.4556C219.535 84.8769 219.535 110.113 192.739 125.534L181.167 132.196C154.372 147.617 110.529 147.617 83.7339 132.196L35.8261 104.623Z" fill="#F2BDEB"/>
<path d="M35.8261 104.623C9.03095 89.2016 9.03095 63.9656 35.8261 48.5442L47.3988 41.8824C74.1939 26.4611 118.036 26.4611 144.832 41.8824L192.739 69.4556C219.535 84.8769 219.535 110.113 192.739 125.534L181.167 132.196C154.372 147.617 110.529 147.617 83.7339 132.196L35.8261 104.623Z" stroke="#281D18" stroke-linecap="round" stroke-linejoin="round"/>
<path d="M39.348 158.907C46.602 154.732 46.602 147.901 39.348 143.726C32.0939 139.55 20.229 139.55 12.975 143.726C5.72091 147.901 5.72091 154.732 12.975 158.907C20.229 163.083 32.0939 163.083 39.348 158.907Z" fill="#F2BDEB"/>
<path d="M39.348 158.907C46.602 154.732 46.602 147.901 39.348 143.726C32.0939 139.55 20.229 139.55 12.975 143.726C5.72091 147.901 5.72091 154.732 12.975 158.907C20.229 163.083 32.0939 163.083 39.348 158.907Z" stroke="#281D18" stroke-width="1.12" stroke-linecap="round" stroke-linejoin="round"/>
<path d="M26.1672 121.261V152.68L30.0962 150.421L28.5441 119.889L26.1672 121.261Z" stroke="#281D18" stroke-width="1.12" stroke-linecap="round" stroke-linejoin="round"/>
<path d="M22.2375 150.421L26.1666 152.68V121.261L23.7897 119.889L22.2375 150.421Z" stroke="#281D18" stroke-width="1.12" stroke-linecap="round" stroke-linejoin="round"/>
<path d="M47.6478 129.651C47.2841 131.03 46.1931 132.344 44.3682 133.393L35.5685 138.469H34.4061C29.8147 138.469 26.0026 134.953 25.6454 130.389L24.9765 121.888C24.9115 120.756 24.6712 119.571 24.2881 118.38C27.9054 118.017 31.7694 118.638 34.5554 120.238L44.3747 125.896C46.2061 126.958 47.2971 128.272 47.6543 129.651H47.6478Z" fill="#F2BDEB" stroke="#281D18" stroke-width="1.12" stroke-linecap="round" stroke-linejoin="round"/>
<path d="M47.6475 129.651C47.2838 131.03 46.1928 132.344 44.3679 133.393L35.5683 138.468H34.4058C29.8144 138.468 26.0023 134.953 25.6451 130.389L24.9762 121.888C24.9112 120.755 24.671 119.57 24.2878 118.379C24.0865 117.732 23.8397 117.078 23.554 116.437C27.3726 115.906 31.5808 116.508 34.5552 118.211L44.3744 123.869C47.102 125.442 48.193 127.605 47.654 129.651H47.6475Z" fill="#F2BDEB" stroke="#281D18" stroke-width="1.12" stroke-linecap="round" stroke-linejoin="round"/>
<path d="M44.3683 135.426L35.5686 140.501H35.5557L34.549 141.084C30.3083 143.512 23.5478 143.687 18.9759 141.576C18.898 141.537 18.8201 141.505 18.7486 141.466C18.4888 141.349 18.2421 141.22 18.0018 141.084L8.17603 135.426C7.89678 135.264 7.63051 135.089 7.37075 134.908C3.22094 132.033 0.142681 126.064 0.389461 121.15L0.415438 120.632C0.369979 120.114 0.363484 119.609 0.389461 119.117L0.915493 108.636C1.17526 103.398 5.11725 101.268 9.67619 103.884L16.1444 107.606C19.1772 109.354 21.9503 112.786 23.5673 116.431C23.8531 117.078 24.0999 117.732 24.3012 118.373C24.6843 119.564 24.9246 120.749 24.9896 121.882L25.6585 130.382C26.0156 134.947 29.8278 138.462 34.4192 138.462H35.5816L44.3813 133.386C46.2062 132.337 47.2972 131.023 47.6609 129.644C48.1999 131.69 47.1024 133.852 44.3813 135.419L44.3683 135.426Z" fill="#F2BDEB" stroke="#281D18" stroke-width="1.12" stroke-linecap="round" stroke-linejoin="round"/>
<path d="M100.75 191.091C108.004 186.915 108.004 180.085 100.75 175.909C93.4963 171.733 81.6313 171.733 74.3773 175.909C67.1233 180.085 67.1233 186.915 74.3773 191.091C81.6313 195.267 93.4963 195.267 100.75 191.091Z" fill="#F2BDEB"/>
<path d="M100.75 191.091C108.004 186.915 108.004 180.085 100.75 175.909C93.4963 171.733 81.6313 171.733 74.3773 175.909C67.1233 180.085 67.1233 186.915 74.3773 191.091C81.6313 195.267 93.4963 195.267 100.75 191.091Z" stroke="#281D18" stroke-width="1.12" stroke-linecap="round" stroke-linejoin="round"/>
<path d="M87.5618 153.436V184.862L91.4908 182.596L89.9387 152.07L87.5618 153.436Z" stroke="#281D18" stroke-width="1.12" stroke-linecap="round" stroke-linejoin="round"/>
<path d="M83.6321 182.596L87.5611 184.862V153.436L85.1842 152.07L83.6321 182.596Z" stroke="#281D18" stroke-width="1.12" stroke-linecap="round" stroke-linejoin="round"/>
<path d="M109.045 161.834C108.681 163.213 107.59 164.527 105.766 165.576L96.9529 170.652H95.7905C91.2055 170.652 87.3934 167.136 87.0363 162.572L86.3674 154.072C86.2959 152.939 86.0556 151.754 85.679 150.556C89.2962 150.2 93.1603 150.822 95.9463 152.421L105.766 158.079C107.597 159.141 108.688 160.455 109.045 161.834Z" fill="#F2BDEB" stroke="#281D18" stroke-width="1.12" stroke-linecap="round" stroke-linejoin="round"/>
<path d="M109.045 161.834C108.681 163.213 107.59 164.527 105.765 165.576L96.9524 170.652H95.7899C91.205 170.652 87.3929 167.137 87.0357 162.572L86.3668 154.072C86.2954 152.939 86.0551 151.754 85.6784 150.556C85.4771 149.909 85.2303 149.268 84.9446 148.621C88.7632 148.09 92.9714 148.692 95.9458 150.394L105.765 156.053C108.493 157.62 109.584 159.788 109.045 161.834Z" fill="#F2BDEB" stroke="#281D18" stroke-width="1.12" stroke-linecap="round" stroke-linejoin="round"/>
<path d="M105.764 167.601L96.9517 172.671H96.9452L95.9386 173.253C91.6979 175.688 84.9374 175.862 80.3655 173.745C80.2875 173.719 80.2096 173.681 80.1382 173.642C79.8784 173.519 79.6316 173.389 79.3913 173.253L69.5656 167.601C69.2863 167.44 69.0201 167.265 68.7603 167.083C64.604 164.209 61.5193 158.24 61.779 153.326L61.805 152.808C61.7595 152.303 61.7466 151.792 61.779 151.293L62.3051 140.812C62.5648 135.574 66.5068 133.444 71.0593 136.06L77.534 139.782C80.5668 141.53 83.3398 144.961 84.9569 148.606C85.2426 149.254 85.4894 149.895 85.6907 150.542C86.0674 151.74 86.3077 152.931 86.3791 154.058L87.048 162.558C87.4052 167.122 91.2173 170.638 95.8022 170.638H96.9647L105.777 165.562C107.602 164.513 108.693 163.199 109.057 161.82C109.596 163.866 108.498 166.028 105.777 167.595L105.764 167.601Z" fill="#F2BDEB" stroke="#281D18" stroke-width="1.12" stroke-linecap="round" stroke-linejoin="round"/>
<path d="M182.409 181.587C175.155 177.411 175.155 170.581 182.409 166.405C189.663 162.229 201.528 162.229 208.782 166.405C216.036 170.581 216.036 177.411 208.782 181.587C201.528 185.763 189.663 185.763 182.409 181.587Z" fill="#F2BDEB"/>
<path d="M182.409 181.587C175.155 177.411 175.155 170.581 182.409 166.405C189.663 162.229 201.528 162.229 208.782 166.405C216.036 170.581 216.036 177.411 208.782 181.587C201.528 185.763 189.663 185.763 182.409 181.587Z" stroke="#281D18" stroke-linecap="round" stroke-linejoin="round"/>
<path d="M195.6 143.938V175.357L191.671 173.098L193.223 142.572L195.6 143.938Z" stroke="#281D18" stroke-linecap="round" stroke-linejoin="round"/>
<path d="M199.526 173.1L195.597 175.359V143.94L197.974 142.574L199.526 173.1Z" stroke="#281D18" stroke-linecap="round" stroke-linejoin="round"/>
<path d="M198.213 139.117C197.928 139.764 197.681 140.418 197.48 141.059C197.096 142.257 196.863 143.435 196.791 144.574L196.122 153.068C195.765 157.633 191.953 161.148 187.368 161.148H186.206L177.393 156.072C175.568 155.024 174.477 153.709 174.113 152.33C173.574 150.285 174.665 148.122 177.393 146.549L187.212 140.891C190.187 139.188 194.395 138.586 198.213 139.117Z" fill="#F2BDEB" stroke="#281D18" stroke-linecap="round" stroke-linejoin="round"/>
<path d="M221.382 143.829C221.635 148.743 218.55 154.712 214.401 157.587C214.141 157.768 213.868 157.943 213.595 158.105L203.769 163.763C203.529 163.899 203.282 164.029 203.023 164.145C202.951 164.184 202.88 164.216 202.795 164.255C198.217 166.366 191.463 166.191 187.222 163.763L186.216 163.18H186.209L177.396 158.105C174.675 156.538 173.578 154.376 174.117 152.33C174.481 153.709 175.572 155.023 177.396 156.072L186.209 161.148H187.372C191.956 161.148 195.769 157.632 196.126 153.068L196.795 144.574C196.866 143.434 197.1 142.256 197.483 141.058C197.684 140.411 197.931 139.757 198.217 139.116C199.834 135.471 202.6 132.046 205.64 130.292L212.115 126.569C216.66 123.954 220.602 126.084 220.869 131.321L221.395 141.803C221.421 142.301 221.408 142.813 221.369 143.318L221.395 143.836L221.382 143.829Z" fill="#F2BDEB" stroke="#281D18" stroke-linecap="round" stroke-linejoin="round"/>
<path d="M44.3625 93.2343L65.4298 105.36L79.1456 97.4684L58.0589 85.3359L44.3625 93.2343Z" fill="#F2BDEB" stroke="#281D18" stroke-width="1.12" stroke-linecap="round" stroke-linejoin="round"/>
<path d="M43.3469 92.6445L44.36 93.2337L65.4273 105.36L79.1431 97.4677L80.1432 96.9045L80.1626 96.8915L80.1432 96.8786L58.0563 84.1699L43.3469 92.6445Z" fill="#F2BDEB" stroke="#281D18" stroke-linecap="round" stroke-linejoin="round"/>
<path d="M52.2454 97.7719L55.7393 95.752L60.9606 98.8142L57.5057 100.802L52.2454 97.7719Z" fill="#F2BDEB" stroke="#281D18" stroke-linecap="round" stroke-linejoin="round"/>
<path d="M83.9424 79.6376L61.8361 66.916L59.05 83.535L81.1369 96.2502L83.9424 79.6376Z" fill="#F2BDEB" stroke="#281D18" stroke-width="1.12" stroke-linecap="round" stroke-linejoin="round"/>
<path d="M43.3469 92.6445V93.8228L65.4273 106.538L80.1626 98.0569L80.1432 96.9045L79.1431 97.4677L65.4273 105.36L44.36 93.2337L43.3469 92.6445Z" fill="#F2BDEB" stroke="#281D18" stroke-linecap="round" stroke-linejoin="round"/>
<path d="M80.1438 96.9049V96.8789" stroke="#281D18" stroke-width="1.12" stroke-linecap="round" stroke-linejoin="round"/>
<path d="M82.9502 80.2724L60.8439 67.5508L58.0579 84.1698L80.1447 96.8785L82.9502 80.2724Z" fill="#F2BDEB" stroke="#281D18" stroke-linecap="round" stroke-linejoin="round"/>
<path d="M81.3436 81.0239L61.9324 69.8496L59.6594 83.4129L79.0512 94.5807L81.3436 81.0239Z" stroke="#281D18" stroke-linecap="round" stroke-linejoin="round"/>
<path d="M60.8469 67.5505L61.8405 66.916" stroke="#281D18" stroke-width="1.12" stroke-linecap="round" stroke-linejoin="round"/>
<path d="M82.9524 80.2731L83.946 79.6387" stroke="#281D18" stroke-width="1.12" stroke-linecap="round" stroke-linejoin="round"/>
<path d="M80.1438 96.878L81.1374 96.25" stroke="#281D18" stroke-width="1.12" stroke-linecap="round" stroke-linejoin="round"/>
<path d="M57.3 86.5723L75.6917 97.1574" stroke="#281D18" stroke-linecap="round" stroke-linejoin="round"/>
<path d="M55.2141 87.8535L73.6057 98.4322" stroke="#281D18" stroke-linecap="round" stroke-linejoin="round"/>
<path d="M53.1282 89.1289L71.5263 99.7076" stroke="#281D18" stroke-linecap="round" stroke-linejoin="round"/>
<path d="M51.0461 90.4043L69.4443 100.989" stroke="#281D18" stroke-linecap="round" stroke-linejoin="round"/>
<path d="M50.4485 91.5632L59.0988 86.5781" stroke="#281D18" stroke-linecap="round" stroke-linejoin="round"/>
<path d="M52.8079 92.903L61.4517 87.918" stroke="#281D18" stroke-linecap="round" stroke-linejoin="round"/>
<path d="M55.1672 94.2448L63.811 89.2598" stroke="#281D18" stroke-linecap="round" stroke-linejoin="round"/>
<path d="M57.5266 95.5847L66.1704 90.5996" stroke="#281D18" stroke-linecap="round" stroke-linejoin="round"/>
<path d="M59.8821 96.9245L68.5259 91.9395" stroke="#281D18" stroke-linecap="round" stroke-linejoin="round"/>
<path d="M62.2375 98.2644L70.8814 93.2793" stroke="#281D18" stroke-linecap="round" stroke-linejoin="round"/>
<path d="M64.5969 99.6055L73.2407 94.627" stroke="#281D18" stroke-linecap="round" stroke-linejoin="round"/>
<path d="M66.9641 100.945L75.6079 95.9668" stroke="#281D18" stroke-linecap="round" stroke-linejoin="round"/>
<path d="M156.503 113.525L170.063 105.717L188.481 116.289L174.934 124.09L156.503 113.525Z" fill="#F2BDEB" stroke="#281D18" stroke-linecap="round" stroke-linejoin="round"/>
<path d="M156.503 112.306L170.063 104.498L188.481 115.07L174.934 122.865L156.503 112.306Z" fill="#F2BDEB" stroke="#281D18" stroke-linecap="round" stroke-linejoin="round"/>
<path d="M156.503 112.307V113.524L174.934 124.09V122.866L156.503 112.307Z" fill="#F2BDEB" stroke="#281D18" stroke-linecap="round" stroke-linejoin="round"/>
<path d="M108.686 75.5786C108.523 75.4167 108.394 75.2484 108.277 75.0801H108.465C108.53 75.2484 108.608 75.4167 108.686 75.5786Z" fill="#F2BDEB" stroke="#281D18" stroke-linecap="round" stroke-linejoin="round"/>
<path d="M123.019 75.0801C122.915 75.229 122.798 75.3844 122.656 75.5268C122.727 75.3779 122.792 75.229 122.85 75.0801H123.013H123.019Z" fill="#F2BDEB" stroke="#281D18" stroke-linecap="round" stroke-linejoin="round"/>
<path d="M124.221 75.5332L120.526 83.082C120.526 83.8071 120.052 84.5257 119.097 85.0696C117.201 86.1637 114.103 86.1637 112.207 85.0696C111.258 84.5257 110.784 83.8071 110.784 83.0885L107.089 75.5526C107.518 76.2907 108.239 76.9834 109.252 77.5661C109.784 77.8704 110.375 78.1358 110.992 78.3494C113.876 79.34 117.525 79.3335 120.389 78.3171C120.98 78.1099 121.532 77.8639 122.039 77.5725C123.065 76.9834 123.792 76.2777 124.214 75.5332H124.221Z" fill="#F2BDEB" stroke="#281D18" stroke-linecap="round" stroke-linejoin="round"/>
<path d="M107.089 75.5592C106.991 75.3973 106.913 75.2419 106.855 75.0801L107.089 75.5592Z" fill="#F2BDEB" stroke="#281D18" stroke-linecap="round" stroke-linejoin="round"/>
<path d="M108.69 75.5791C108.528 75.4172 108.398 75.2489 108.281 75.0805C108.021 74.6921 107.878 74.2972 107.878 73.8958C107.878 73.7016 107.911 73.5009 107.982 73.3066C108.073 73.9217 108.235 74.5108 108.469 75.0805C108.534 75.2489 108.612 75.4172 108.69 75.5791Z" fill="#F2BDEB" stroke="#281D18" stroke-linecap="round" stroke-linejoin="round"/>
<path d="M124.442 75.0805L124.221 75.5337C123.793 76.2782 123.072 76.9839 122.046 77.573C121.539 77.8644 120.987 78.1168 120.396 78.3175C117.532 79.334 113.882 79.3405 110.999 78.3499C110.382 78.1363 109.798 77.8773 109.259 77.5666C108.245 76.9839 107.518 76.2912 107.096 75.5531L106.862 75.074C106.343 73.7727 106.687 72.3808 107.908 71.209V72.1801C107.908 72.5556 107.94 72.9311 107.986 73.3001C107.921 73.4943 107.882 73.695 107.882 73.8893C107.882 74.2907 108.018 74.6856 108.284 75.074C108.401 75.2488 108.531 75.4107 108.694 75.5725C109.012 75.8962 109.408 76.2005 109.889 76.4724C111.382 77.3335 113.48 77.8255 115.649 77.8255C117.818 77.8255 119.922 77.3335 121.409 76.4724C121.916 76.1811 122.331 75.8574 122.656 75.5207C122.793 75.3718 122.916 75.2229 123.02 75.074C123.28 74.6856 123.416 74.2842 123.422 73.8828C123.422 73.7015 123.39 73.5202 123.332 73.339C123.39 72.957 123.422 72.5815 123.422 72.1866V71.2219C124.624 72.3937 124.968 73.7792 124.449 75.074L124.442 75.0805Z" fill="#F2BDEB" stroke="#281D18" stroke-linecap="round" stroke-linejoin="round"/>
<path d="M123.331 73.3457C123.389 73.527 123.422 73.7083 123.422 73.8895C123.422 74.2909 123.285 74.6923 123.019 75.0808C122.915 75.2297 122.798 75.385 122.656 75.5275C122.727 75.3786 122.792 75.2297 122.85 75.0808C123.078 74.524 123.24 73.9478 123.324 73.3457H123.331Z" fill="#F2BDEB" stroke="#281D18" stroke-linecap="round" stroke-linejoin="round"/>
<path d="M124.435 75.0879C124.376 75.2368 124.305 75.3922 124.214 75.5346L124.435 75.0879Z" fill="#F2BDEB" stroke="#281D18" stroke-linecap="round" stroke-linejoin="round"/>
<path d="M108.69 75.5791C108.528 75.4172 108.398 75.2489 108.281 75.0805C108.021 74.6921 107.878 74.2972 107.878 73.8958C107.878 73.7016 107.911 73.5009 107.982 73.3066C108.073 73.9217 108.235 74.5108 108.469 75.0805C108.534 75.2489 108.612 75.4172 108.69 75.5791Z" fill="#F2BDEB" stroke="#281D18" stroke-linecap="round" stroke-linejoin="round"/>
<path d="M123.414 73.8954C123.414 74.2968 123.278 74.6982 123.011 75.0866C122.907 75.2355 122.791 75.3909 122.648 75.5333C122.719 75.3844 122.784 75.2355 122.843 75.0866C123.07 74.5298 123.232 73.9537 123.317 73.3516C123.375 73.5328 123.408 73.7141 123.408 73.8954H123.414Z" fill="#F2BDEB" stroke="#281D18" stroke-linecap="round" stroke-linejoin="round"/>
<path d="M107.089 75.5592C106.991 75.3973 106.913 75.2419 106.855 75.0801L107.089 75.5592Z" fill="#F2BDEB" stroke="#281D18" stroke-linecap="round" stroke-linejoin="round"/>
<path d="M108.69 75.5791C108.528 75.4172 108.398 75.2489 108.281 75.0805C108.021 74.6921 107.878 74.2972 107.878 73.8958C107.878 73.7016 107.911 73.5009 107.982 73.3066C108.073 73.9217 108.235 74.5108 108.469 75.0805C108.534 75.2489 108.612 75.4172 108.69 75.5791Z" fill="#F2BDEB" stroke="#281D18" stroke-linecap="round" stroke-linejoin="round"/>
<path d="M123.331 73.3457C123.389 73.527 123.422 73.7083 123.422 73.8895C123.422 74.2909 123.285 74.6923 123.019 75.0808C122.915 75.2297 122.798 75.385 122.656 75.5275C122.727 75.3786 122.792 75.2297 122.85 75.0808C123.078 74.524 123.24 73.9478 123.324 73.3457H123.331Z" fill="#F2BDEB" stroke="#281D18" stroke-linecap="round" stroke-linejoin="round"/>
<path d="M124.435 75.0879C124.376 75.2368 124.305 75.3922 124.214 75.5346L124.435 75.0879Z" fill="#F2BDEB" stroke="#281D18" stroke-linecap="round" stroke-linejoin="round"/>
<path d="M108.69 75.5791C108.528 75.4172 108.398 75.2489 108.281 75.0805C108.021 74.6921 107.878 74.2972 107.878 73.8958C107.878 73.7016 107.911 73.5009 107.982 73.3066C108.073 73.9217 108.235 74.5108 108.469 75.0805C108.534 75.2489 108.612 75.4172 108.69 75.5791Z" fill="#F2BDEB" stroke="#281D18" stroke-linecap="round" stroke-linejoin="round"/>
<path d="M123.414 73.8954C123.414 74.2968 123.278 74.6982 123.011 75.0866C122.907 75.2355 122.791 75.3909 122.648 75.5333C122.719 75.3844 122.784 75.2355 122.843 75.0866C123.07 74.5298 123.232 73.9537 123.317 73.3516C123.375 73.5328 123.408 73.7141 123.408 73.8954H123.414Z" fill="#F2BDEB" stroke="#281D18" stroke-linecap="round" stroke-linejoin="round"/>
<path d="M123.418 63.214V72.2C123.418 72.5885 123.385 72.9705 123.327 73.346C123.236 73.948 123.08 74.5307 122.853 75.0875C122.794 75.2364 122.729 75.3918 122.658 75.5342C122.333 75.8773 121.917 76.1946 121.411 76.4859C119.917 77.3469 117.82 77.839 115.651 77.839C113.481 77.839 111.377 77.3469 109.89 76.4859C109.416 76.214 109.013 75.9032 108.695 75.586C108.617 75.4177 108.539 75.2493 108.474 75.081C108.241 74.5113 108.085 73.9221 107.987 73.3071C107.935 72.9381 107.909 72.5626 107.909 72.1871V63.214C107.909 60.4819 109.358 57.9505 111.722 56.5651H111.735C114.163 55.1278 117.183 55.1278 119.612 56.5586C120.794 57.2513 121.749 58.2354 122.405 59.3813C123.067 60.5272 123.431 61.8415 123.431 63.2075L123.418 63.214Z" fill="#F2BDEB" stroke="#281D18" stroke-linecap="round" stroke-linejoin="round"/>
<path d="M108.968 60.701L111.975 63.0447C112.105 63.1482 112.222 63.2518 112.338 63.3748C112.514 63.5626 112.67 63.7633 112.793 63.9834C112.826 64.0417 112.865 64.1064 112.89 64.1647C112.923 64.3589 112.916 64.5855 112.89 64.825C112.793 65.5437 112.41 66.3723 111.838 67.091C111.267 67.8096 110.559 68.3858 109.884 68.6577C109.669 68.7419 109.462 68.8001 109.273 68.8196C109.195 68.8066 109.124 68.7872 109.046 68.7613C108.799 68.6901 108.559 68.5865 108.325 68.4635C108.189 68.3858 108.059 68.2951 107.929 68.198L104.929 65.8609C104.013 65.1487 103.545 64.0093 103.695 62.8634C103.851 61.6786 104.636 60.6751 105.747 60.2349C106.286 60.0212 106.864 59.963 107.422 60.0407C107.981 60.1184 108.513 60.3385 108.968 60.701Z" fill="#F2BDEB" stroke="#281D18" stroke-linecap="round" stroke-linejoin="round"/>
<path d="M123.826 59.2063L122.222 61.1226C122.15 61.2068 122.079 61.278 122.001 61.3492C121.878 61.4593 121.735 61.5564 121.592 61.6341C121.553 61.6535 121.514 61.6729 121.468 61.6923C121.339 61.7053 121.189 61.6988 121.033 61.6729C120.559 61.5888 120.027 61.3233 119.566 60.9349C119.105 60.5464 118.741 60.0738 118.578 59.6271C118.527 59.4847 118.494 59.3487 118.488 59.2257C118.501 59.1739 118.514 59.1286 118.527 59.0768C118.578 58.915 118.65 58.7596 118.741 58.6107C118.793 58.52 118.858 58.4359 118.923 58.3582L120.527 56.4483C121.014 55.8657 121.774 55.5873 122.527 55.7103C123.3 55.8398 123.943 56.3706 124.202 57.1087C124.332 57.4648 124.358 57.8467 124.293 58.2093C124.228 58.5718 124.073 58.915 123.826 59.2063Z" fill="#F2BDEB" stroke="#281D18" stroke-linecap="round" stroke-linejoin="round"/>
<path d="M121.271 56.6951L121.109 54.2285" stroke="#281D18" stroke-linecap="round" stroke-linejoin="round"/>
<path d="M123.332 58.4102L125.312 58.6562" stroke="#281D18" stroke-linecap="round" stroke-linejoin="round"/>
<path d="M106.706 61.285L105.972 59.3945" stroke="#281D18" stroke-linecap="round" stroke-linejoin="round"/>
<path d="M105.038 64.4121L103.226 64.6581" stroke="#281D18" stroke-linecap="round" stroke-linejoin="round"/>
<path d="M110.886 63.5113L111.048 61.7051" stroke="#281D18" stroke-linecap="round" stroke-linejoin="round"/>
<path d="M122.8 64.2038L124.456 62.8184" stroke="#281D18" stroke-linecap="round" stroke-linejoin="round"/>
<path d="M122.667 68.6833L125.057 67.6992" stroke="#281D18" stroke-linecap="round" stroke-linejoin="round"/>
<path d="M108.491 70.7569L106.355 70.0059" stroke="#281D18" stroke-linecap="round" stroke-linejoin="round"/>
<path d="M114.95 56.597L113.378 53.8066" stroke="#281D18" stroke-linecap="round" stroke-linejoin="round"/>
<path d="M117.566 56.6092L118.637 54.1426" stroke="#281D18" stroke-linecap="round" stroke-linejoin="round"/>
<path d="M117.3 66.2892L118.8 64.334" stroke="#281D18" stroke-linecap="round" stroke-linejoin="round"/>
<path d="M117.898 72.0635L120.456 70.8398" stroke="#281D18" stroke-linecap="round" stroke-linejoin="round"/>
<path d="M114.186 69.4213L112.718 67.9258" stroke="#281D18" stroke-linecap="round" stroke-linejoin="round"/>
<path d="M111.14 58.8181L109.081 56.6816" stroke="#281D18" stroke-linecap="round" stroke-linejoin="round"/>
</g>
<defs>
<clipPath id="clip0_1646_8007">
<rect width="237" height="195" fill="white" transform="translate(-0.000732422 0.214844)"/>
</clipPath>
</defs>
</svg>
