<svg width="33" height="34" viewBox="0 0 33 34" fill="none" xmlns="http://www.w3.org/2000/svg">
<path fill-rule="evenodd" clip-rule="evenodd" d="M0.206299 17.0779C0.206299 8.0883 7.49382 0.800781 16.4834 0.800781C25.473 0.800781 32.7606 8.0883 32.7606 17.0779C32.7606 26.0675 25.473 33.355 16.4834 33.355C7.49382 33.355 0.206299 26.0675 0.206299 17.0779ZM8.34486 17.0779C8.34486 12.6017 12.0072 8.93934 16.4834 8.93934C20.9596 8.93934 24.622 12.6017 24.5203 16.671C24.5203 21.1472 20.8579 24.8095 16.3817 24.8095C15.5678 24.8095 14.754 24.7078 14.0419 24.5043C14.3471 23.9957 14.6522 23.3853 14.8557 22.7749C14.9574 22.368 15.4661 20.5368 15.4661 20.5368C15.7713 21.0455 16.5852 21.5541 17.5007 21.5541C20.1458 21.5541 21.8752 19.1125 21.8752 15.9589C21.8752 13.5173 19.8406 11.2792 16.6869 11.2792C12.8211 11.2792 10.8882 14.0259 10.8882 16.3658C10.8882 17.79 11.3968 19.0108 12.5159 19.5195C12.7193 19.6212 12.8211 19.5195 12.9228 19.316C13.0245 19.2143 13.1263 18.8073 13.1263 18.7056C13.1982 18.5618 13.1684 18.5196 13.1088 18.4353C13.0841 18.4004 13.0543 18.3583 13.0245 18.2987C12.7193 17.8918 12.5159 17.3831 12.5159 16.671C12.5159 14.6363 14.0419 12.8052 16.4834 12.8052C18.6198 12.8052 19.8406 14.1277 19.8406 15.9589C19.8406 18.4004 18.8233 20.3333 17.2973 20.3333C16.3817 20.3333 15.7713 19.6212 15.9748 18.8073C16.0597 18.3827 16.1978 17.9403 16.3299 17.5172C16.5142 16.9267 16.6869 16.3737 16.6869 15.9589C16.6869 15.2467 16.28 14.7381 15.5678 14.7381C14.754 14.7381 14.0419 15.6537 14.0419 16.8744C14.0419 17.6883 14.347 18.197 14.347 18.197C14.347 18.197 13.5332 21.961 13.3297 22.6732C13.228 23.2835 13.228 23.8939 13.228 24.5042C10.3795 23.2834 8.34486 20.4351 8.34486 17.0779Z" fill="#F2BDEB"/>
</svg>
