<svg width="238" height="196" viewBox="0 0 238 196" fill="none" xmlns="http://www.w3.org/2000/svg">
<g clip-path="url(#clip0_1646_7887)">
<path d="M25.0079 147.093C-5.75523 129.386 -5.75523 100.415 25.0079 82.7081L42.4513 72.6667C73.2145 54.9601 123.551 54.9601 154.308 72.6667L214.853 107.51C245.616 125.217 245.616 154.189 214.853 171.895L197.41 181.937C166.647 199.643 116.31 199.643 85.5535 181.937L25.0079 147.093Z" fill="#281D18"/>
<path d="M38.9277 97.5388L32.3945 101.3L25.8613 97.5388L32.3945 93.7773L38.9277 97.5388Z" fill="#EAE6DE" stroke="#281D18" stroke-width="1.12" stroke-linecap="round" stroke-linejoin="round"/>
<path d="M40.3789 94.9431V137.407L36.4239 135.134L33.8457 91.1816L40.3789 94.9431Z" fill="#EAE6DE" stroke="#281D18" stroke-linecap="round" stroke-linejoin="round"/>
<path d="M46.9138 91.1816L44.3291 135.134L40.3806 137.407V94.9431L46.9138 91.1816Z" fill="#EAE6DE" stroke="#281D18" stroke-linecap="round" stroke-linejoin="round"/>
<path d="M119.5 140.482V182.946L115.551 180.673L112.967 136.721L119.5 140.482Z" fill="#EAE6DE" stroke="#281D18" stroke-linecap="round" stroke-linejoin="round"/>
<path d="M126.035 136.721L123.45 180.673L119.502 182.946V140.482L126.035 136.721Z" fill="#EAE6DE" stroke="#281D18" stroke-linecap="round" stroke-linejoin="round"/>
<path d="M198.621 94.9431V137.407L194.673 135.134L192.088 91.1816L198.621 94.9431Z" fill="#EAE6DE" stroke="#281D18" stroke-linecap="round" stroke-linejoin="round"/>
<path d="M205.152 91.1816L202.568 135.134L198.619 137.407V94.9431L205.152 91.1816Z" fill="#EAE6DE" stroke="#281D18" stroke-linecap="round" stroke-linejoin="round"/>
<path d="M36.7546 109.101C9.95942 93.6801 9.95942 68.4441 36.7546 53.0228L48.3273 46.3609C75.1224 30.9396 118.965 30.9396 145.76 46.3609L193.668 73.9341C220.463 89.3554 220.463 114.591 193.668 130.013L182.095 136.675C155.3 152.096 111.458 152.096 84.6624 136.675L36.7546 109.101Z" fill="#EAE6DE"/>
<path d="M36.7546 109.101C9.95942 93.6801 9.95942 68.4441 36.7546 53.0228L48.3273 46.3609C75.1224 30.9396 118.965 30.9396 145.76 46.3609L193.668 73.9341C220.463 89.3554 220.463 114.591 193.668 130.013L182.095 136.675C155.3 152.096 111.458 152.096 84.6624 136.675L36.7546 109.101Z" stroke="#281D18" stroke-linecap="round" stroke-linejoin="round"/>
<path d="M196.458 101.722C189.204 97.546 189.204 90.7158 196.458 86.5401C203.712 82.3643 215.577 82.3643 222.831 86.5401C230.085 90.7158 230.085 97.546 222.831 101.722C215.577 105.898 203.712 105.898 196.458 101.722Z" fill="#EAE6DE"/>
<path d="M196.458 101.722C189.204 97.546 189.204 90.7158 196.458 86.5401C203.712 82.3643 215.577 82.3643 222.831 86.5401C230.085 90.7158 230.085 97.546 222.831 101.722C215.577 105.898 203.712 105.898 196.458 101.722Z" stroke="#281D18" stroke-width="1.12" stroke-linecap="round" stroke-linejoin="round"/>
<path d="M209.646 64.1395V95.5583L205.717 93.2988L207.269 62.7734L209.646 64.1395Z" stroke="#281D18" stroke-width="1.12" stroke-linecap="round" stroke-linejoin="round"/>
<path d="M213.575 93.2988L209.646 95.5583V64.1395L212.023 62.7734L213.575 93.2988Z" stroke="#281D18" stroke-width="1.12" stroke-linecap="round" stroke-linejoin="round"/>
<path d="M226.401 39.3176C230.954 41.9396 234.863 48.3619 235.084 53.5995L235.603 65.6996C235.831 70.9371 232.291 77.3595 227.739 79.9815L217.92 85.6334C213.367 88.2554 205.905 88.2683 201.346 85.6722L191.274 79.9426C186.708 77.3465 186.708 73.093 191.274 70.4969L201.346 64.7609C205.912 62.1647 209.906 55.7554 210.218 50.5308L210.841 40.2046C211.159 34.9735 215.14 32.837 219.693 35.4591L226.401 39.3176Z" fill="#EAE6DE"/>
<path d="M226.401 39.3176C230.954 41.9396 234.863 48.3619 235.084 53.5995L235.603 65.6996C235.831 70.9371 232.291 77.3595 227.739 79.9815L217.92 85.6334C213.367 88.2554 205.905 88.2683 201.346 85.6722L191.274 79.9426C186.708 77.3465 186.708 73.093 191.274 70.4969L201.346 64.7609C205.912 62.1647 209.906 55.7554 210.218 50.5308L210.841 40.2046C211.159 34.9735 215.14 32.837 219.693 35.4591L226.401 39.3176Z" stroke="#281D18" stroke-width="1.12" stroke-linecap="round" stroke-linejoin="round"/>
<path d="M226.401 37.4075C230.954 40.0295 234.863 46.4518 235.084 51.6893L235.603 63.7894C235.831 69.027 232.291 75.4493 227.739 78.0713L217.92 83.7232C213.367 86.3452 205.905 86.3582 201.346 83.7621L191.274 78.0325C186.708 75.4364 186.708 71.1829 191.274 68.5868L201.346 62.8507C205.912 60.2546 209.906 53.8452 210.218 48.6206L210.841 38.2944C211.159 33.0633 215.14 30.9269 219.693 33.5489L226.401 37.4075Z" fill="#EAE6DE"/>
<path d="M226.401 37.4075C230.954 40.0295 234.863 46.4518 235.084 51.6893L235.603 63.7894C235.831 69.027 232.291 75.4493 227.739 78.0713L217.92 83.7232C213.367 86.3452 205.905 86.3582 201.346 83.7621L191.274 78.0325C186.708 75.4364 186.708 71.1829 191.274 68.5868L201.346 62.8507C205.912 60.2546 209.906 53.8452 210.218 48.6206L210.841 38.2944C211.159 33.0633 215.14 30.9269 219.693 33.5489L226.401 37.4075Z" stroke="#281D18" stroke-width="1.12" stroke-linecap="round" stroke-linejoin="round"/>
<path d="M224.14 71.358C220.867 67.357 216.237 64.4889 211.197 63.3301" stroke="#281D18" stroke-width="1.12" stroke-linecap="round" stroke-linejoin="round"/>
<path d="M139.853 69.8683C132.599 65.6925 132.599 58.8623 139.853 54.6865C147.107 50.5107 158.972 50.5107 166.226 54.6865C173.48 58.8623 173.48 65.6925 166.226 69.8683C158.972 74.0441 147.107 74.0441 139.853 69.8683Z" fill="#EAE6DE"/>
<path d="M139.853 69.8683C132.599 65.6925 132.599 58.8623 139.853 54.6865C147.107 50.5107 158.972 50.5107 166.226 54.6865C173.48 58.8623 173.48 65.6925 166.226 69.8683C158.972 74.0441 147.107 74.0441 139.853 69.8683Z" stroke="#281D18" stroke-width="1.12" stroke-linecap="round" stroke-linejoin="round"/>
<path d="M153.036 32.286V63.7048L149.107 61.4453L150.66 30.9199L153.036 32.286Z" stroke="#281D18" stroke-width="1.12" stroke-linecap="round" stroke-linejoin="round"/>
<path d="M156.962 61.4453L153.033 63.7048V32.286L155.41 30.9199L156.962 61.4453Z" stroke="#281D18" stroke-width="1.12" stroke-linecap="round" stroke-linejoin="round"/>
<path d="M169.792 7.46606C174.344 10.0881 178.254 16.5104 178.474 21.7479L178.994 33.848C179.221 39.0856 175.682 45.5079 171.129 48.1299L161.31 53.7818C156.758 56.4038 149.296 56.4168 144.737 53.8206L134.664 48.0911C130.099 45.4949 130.099 41.2415 134.664 38.6453L144.737 32.9093C149.302 30.3132 153.296 23.9038 153.608 18.6792L154.231 8.35302C154.55 3.12194 158.531 0.985486 163.083 3.6075L169.792 7.46606Z" fill="#EAE6DE"/>
<path d="M169.792 7.46606C174.344 10.0881 178.254 16.5104 178.474 21.7479L178.994 33.848C179.221 39.0856 175.682 45.5079 171.129 48.1299L161.31 53.7818C156.758 56.4038 149.296 56.4168 144.737 53.8206L134.664 48.0911C130.099 45.4949 130.099 41.2415 134.664 38.6453L144.737 32.9093C149.302 30.3132 153.296 23.9038 153.608 18.6792L154.231 8.35302C154.55 3.12194 158.531 0.985486 163.083 3.6075L169.792 7.46606Z" stroke="#281D18" stroke-width="1.12" stroke-linecap="round" stroke-linejoin="round"/>
<path d="M169.792 5.56177C174.344 8.18378 178.254 14.6061 178.474 19.8436L178.994 31.9437C179.221 37.1813 175.682 43.6036 171.129 46.2256L161.31 51.8775C156.758 54.4995 149.296 54.5125 144.737 51.9163L134.664 46.1868C130.099 43.5907 130.099 39.3372 134.664 36.741L144.737 31.005C149.302 28.4089 153.296 21.9995 153.608 16.7749L154.231 6.44872C154.55 1.21764 158.531 -0.918811 163.083 1.7032L169.792 5.56177Z" fill="#EAE6DE"/>
<path d="M169.792 5.56177C174.344 8.18378 178.254 14.6061 178.474 19.8436L178.994 31.9437C179.221 37.1813 175.682 43.6036 171.129 46.2256L161.31 51.8775C156.758 54.4995 149.296 54.5125 144.737 51.9163L134.664 46.1868C130.099 43.5907 130.099 39.3372 134.664 36.741L144.737 31.005C149.302 28.4089 153.296 21.9995 153.608 16.7749L154.231 6.44872C154.55 1.21764 158.531 -0.918811 163.083 1.7032L169.792 5.56177Z" stroke="#281D18" stroke-width="1.12" stroke-linecap="round" stroke-linejoin="round"/>
<path d="M166.953 38.7291C163.68 34.7281 159.05 31.86 154.01 30.7012" stroke="#281D18" stroke-width="1.12" stroke-linecap="round" stroke-linejoin="round"/>
<path d="M36.7546 104.623C9.95942 89.2016 9.95942 63.9656 36.7546 48.5442L48.3273 41.8824C75.1224 26.4611 118.965 26.4611 145.76 41.8824L193.668 69.4556C220.463 84.8769 220.463 110.113 193.668 125.534L182.095 132.196C155.3 147.617 111.458 147.617 84.6624 132.196L36.7546 104.623Z" fill="#EAE6DE"/>
<path d="M36.7546 104.623C9.95942 89.2016 9.95942 63.9656 36.7546 48.5442L48.3273 41.8824C75.1224 26.4611 118.965 26.4611 145.76 41.8824L193.668 69.4556C220.463 84.8769 220.463 110.113 193.668 125.534L182.095 132.196C155.3 147.617 111.458 147.617 84.6624 132.196L36.7546 104.623Z" stroke="#281D18" stroke-linecap="round" stroke-linejoin="round"/>
<path d="M40.2764 158.907C47.5305 154.732 47.5305 147.901 40.2764 143.726C33.0224 139.55 21.1575 139.55 13.9034 143.726C6.64938 147.901 6.64938 154.732 13.9034 158.907C21.1575 163.083 33.0224 163.083 40.2764 158.907Z" fill="#EAE6DE"/>
<path d="M40.2764 158.907C47.5305 154.732 47.5305 147.901 40.2764 143.726C33.0224 139.55 21.1575 139.55 13.9034 143.726C6.64938 147.901 6.64938 154.732 13.9034 158.907C21.1575 163.083 33.0224 163.083 40.2764 158.907Z" stroke="#281D18" stroke-width="1.12" stroke-linecap="round" stroke-linejoin="round"/>
<path d="M27.0957 121.261V152.68L31.0247 150.421L29.4726 119.889L27.0957 121.261Z" stroke="#281D18" stroke-width="1.12" stroke-linecap="round" stroke-linejoin="round"/>
<path d="M23.166 150.421L27.095 152.68V121.261L24.7181 119.889L23.166 150.421Z" stroke="#281D18" stroke-width="1.12" stroke-linecap="round" stroke-linejoin="round"/>
<path d="M48.5763 129.651C48.2126 131.03 47.1215 132.344 45.2967 133.393L36.497 138.469H35.3345C30.7431 138.469 26.931 134.953 26.5738 130.389L25.9049 121.888C25.84 120.756 25.5997 119.571 25.2166 118.38C28.8338 118.017 32.6979 118.638 35.4839 120.238L45.3032 125.896C47.1345 126.958 48.2256 128.272 48.5827 129.651H48.5763Z" fill="#EAE6DE" stroke="#281D18" stroke-width="1.12" stroke-linecap="round" stroke-linejoin="round"/>
<path d="M48.576 129.651C48.2123 131.03 47.1213 132.344 45.2964 133.393L36.4967 138.468H35.3343C30.7428 138.468 26.9307 134.953 26.5736 130.389L25.9047 121.888C25.8397 120.755 25.5994 119.57 25.2163 118.379C25.0149 117.732 24.7682 117.078 24.4824 116.437C28.301 115.906 32.5093 116.508 35.4836 118.211L45.3029 123.869C48.0305 125.442 49.1215 127.605 48.5825 129.651H48.576Z" fill="#EAE6DE" stroke="#281D18" stroke-width="1.12" stroke-linecap="round" stroke-linejoin="round"/>
<path d="M45.2968 135.426L36.4971 140.501H36.4841L35.4775 141.084C31.2368 143.512 24.4763 143.687 19.9044 141.576C19.8264 141.537 19.7485 141.505 19.6771 141.466C19.4173 141.349 19.1705 141.22 18.9302 141.084L9.1045 135.426C8.82524 135.264 8.55898 135.089 8.29921 134.908C4.14941 132.033 1.07115 126.064 1.31793 121.15L1.3439 120.632C1.29845 120.114 1.29195 119.609 1.31793 119.117L1.84396 108.636C2.10373 103.398 6.04572 101.268 10.6047 103.884L17.0729 107.606C20.1057 109.354 22.8787 112.786 24.4958 116.431C24.7815 117.078 25.0283 117.732 25.2296 118.373C25.6128 119.564 25.8531 120.749 25.918 121.882L26.5869 130.382C26.9441 134.947 30.7562 138.462 35.3476 138.462H36.5101L45.3098 133.386C47.1346 132.337 48.2257 131.023 48.5893 129.644C49.1284 131.69 48.0308 133.852 45.3098 135.419L45.2968 135.426Z" fill="#EAE6DE" stroke="#281D18" stroke-width="1.12" stroke-linecap="round" stroke-linejoin="round"/>
<path d="M101.679 191.091C108.933 186.915 108.933 180.085 101.679 175.909C94.4247 171.733 82.5598 171.733 75.3058 175.909C68.0517 180.085 68.0517 186.915 75.3058 191.091C82.5598 195.267 94.4247 195.267 101.679 191.091Z" fill="#EAE6DE"/>
<path d="M101.679 191.091C108.933 186.915 108.933 180.085 101.679 175.909C94.4247 171.733 82.5598 171.733 75.3058 175.909C68.0517 180.085 68.0517 186.915 75.3058 191.091C82.5598 195.267 94.4247 195.267 101.679 191.091Z" stroke="#281D18" stroke-width="1.12" stroke-linecap="round" stroke-linejoin="round"/>
<path d="M88.4902 153.436V184.862L92.4192 182.596L90.8671 152.07L88.4902 153.436Z" stroke="#281D18" stroke-width="1.12" stroke-linecap="round" stroke-linejoin="round"/>
<path d="M84.5605 182.596L88.4896 184.862V153.436L86.1127 152.07L84.5605 182.596Z" stroke="#281D18" stroke-width="1.12" stroke-linecap="round" stroke-linejoin="round"/>
<path d="M109.974 161.834C109.61 163.213 108.519 164.527 106.694 165.576L97.8814 170.652H96.7189C92.134 170.652 88.3219 167.136 87.9647 162.572L87.2958 154.072C87.2244 152.939 86.9841 151.754 86.6074 150.556C90.2247 150.2 94.0888 150.822 96.8748 152.421L106.694 158.079C108.525 159.141 109.616 160.455 109.974 161.834Z" fill="#EAE6DE" stroke="#281D18" stroke-width="1.12" stroke-linecap="round" stroke-linejoin="round"/>
<path d="M109.973 161.834C109.609 163.213 108.518 164.527 106.694 165.576L97.8809 170.652H96.7184C92.1335 170.652 88.3214 167.137 87.9642 162.572L87.2953 154.072C87.2238 152.939 86.9836 151.754 86.6069 150.556C86.4056 149.909 86.1588 149.268 85.873 148.621C89.6916 148.09 93.8999 148.692 96.8743 150.394L106.694 156.053C109.421 157.62 110.512 159.788 109.973 161.834Z" fill="#EAE6DE" stroke="#281D18" stroke-width="1.12" stroke-linecap="round" stroke-linejoin="round"/>
<path d="M106.693 167.601L97.8802 172.671H97.8737L96.8671 173.253C92.6264 175.688 85.8659 175.862 81.2939 173.745C81.216 173.719 81.1381 173.681 81.0666 173.642C80.8069 173.519 80.5601 173.389 80.3198 173.253L70.4941 167.601C70.2148 167.44 69.9485 167.265 69.6888 167.083C65.5325 164.209 62.4477 158.24 62.7075 153.326L62.7335 152.808C62.688 152.303 62.675 151.792 62.7075 151.293L63.2335 140.812C63.4933 135.574 67.4353 133.444 71.9877 136.06L78.4625 139.782C81.4953 141.53 84.2683 144.961 85.8854 148.606C86.1711 149.254 86.4179 149.895 86.6192 150.542C86.9959 151.74 87.2362 152.931 87.3076 154.058L87.9765 162.558C88.3337 167.122 92.1458 170.638 96.7307 170.638H97.8932L106.706 165.562C108.531 164.513 109.622 163.199 109.985 161.82C110.524 163.866 109.427 166.028 106.706 167.595L106.693 167.601Z" fill="#EAE6DE" stroke="#281D18" stroke-width="1.12" stroke-linecap="round" stroke-linejoin="round"/>
<path d="M183.337 181.587C176.083 177.411 176.083 170.581 183.337 166.405C190.591 162.229 202.456 162.229 209.71 166.405C216.964 170.581 216.964 177.411 209.71 181.587C202.456 185.763 190.591 185.763 183.337 181.587Z" fill="#EAE6DE"/>
<path d="M183.337 181.587C176.083 177.411 176.083 170.581 183.337 166.405C190.591 162.229 202.456 162.229 209.71 166.405C216.964 170.581 216.964 177.411 209.71 181.587C202.456 185.763 190.591 185.763 183.337 181.587Z" stroke="#281D18" stroke-linecap="round" stroke-linejoin="round"/>
<path d="M196.529 143.938V175.357L192.6 173.098L194.152 142.572L196.529 143.938Z" stroke="#281D18" stroke-linecap="round" stroke-linejoin="round"/>
<path d="M200.454 173.1L196.525 175.359V143.94L198.902 142.574L200.454 173.1Z" stroke="#281D18" stroke-linecap="round" stroke-linejoin="round"/>
<path d="M199.142 139.117C198.856 139.764 198.609 140.418 198.408 141.059C198.025 142.257 197.791 143.435 197.72 144.574L197.051 153.068C196.694 157.633 192.881 161.148 188.297 161.148H187.134L178.321 156.072C176.497 155.024 175.406 153.709 175.042 152.33C174.503 150.285 175.594 148.122 178.321 146.549L188.141 140.891C191.115 139.188 195.323 138.586 199.142 139.117Z" fill="#EAE6DE" stroke="#281D18" stroke-linecap="round" stroke-linejoin="round"/>
<path d="M222.31 143.829C222.564 148.743 219.479 154.712 215.329 157.587C215.069 157.768 214.796 157.943 214.524 158.105L204.698 163.763C204.458 163.899 204.211 164.029 203.951 164.145C203.88 164.184 203.808 164.216 203.724 164.255C199.145 166.366 192.391 166.191 188.151 163.763L187.144 163.18H187.138L178.325 158.105C175.604 156.538 174.506 154.376 175.045 152.33C175.409 153.709 176.5 155.023 178.325 156.072L187.138 161.148H188.3C192.885 161.148 196.697 157.632 197.054 153.068L197.723 144.574C197.795 143.434 198.028 142.256 198.412 141.058C198.613 140.411 198.86 139.757 199.145 139.116C200.762 135.471 203.529 132.046 206.568 130.292L213.043 126.569C217.589 123.954 221.531 126.084 221.797 131.321L222.323 141.803C222.349 142.301 222.336 142.813 222.297 143.318L222.323 143.836L222.31 143.829Z" fill="#EAE6DE" stroke="#281D18" stroke-linecap="round" stroke-linejoin="round"/>
<path d="M45.291 93.2343L66.3583 105.36L80.0741 97.4684L58.9873 85.3359L45.291 93.2343Z" fill="#EAE6DE" stroke="#281D18" stroke-width="1.12" stroke-linecap="round" stroke-linejoin="round"/>
<path d="M44.2754 92.6445L45.2885 93.2337L66.3557 105.36L80.0715 97.4677L81.0716 96.9045L81.0911 96.8915L81.0716 96.8786L58.9848 84.1699L44.2754 92.6445Z" fill="#EAE6DE" stroke="#281D18" stroke-linecap="round" stroke-linejoin="round"/>
<path d="M53.1738 97.7719L56.6677 95.752L61.8891 98.8142L58.4341 100.802L53.1738 97.7719Z" fill="#EAE6DE" stroke="#281D18" stroke-linecap="round" stroke-linejoin="round"/>
<path d="M84.8708 79.6376L62.7645 66.916L59.9785 83.535L82.0654 96.2502L84.8708 79.6376Z" fill="#EAE6DE" stroke="#281D18" stroke-width="1.12" stroke-linecap="round" stroke-linejoin="round"/>
<path d="M44.2754 92.6445V93.8228L66.3557 106.538L81.0911 98.0569L81.0716 96.9045L80.0715 97.4677L66.3557 105.36L45.2885 93.2337L44.2754 92.6445Z" fill="#EAE6DE" stroke="#281D18" stroke-linecap="round" stroke-linejoin="round"/>
<path d="M81.0723 96.9049V96.8789" stroke="#281D18" stroke-width="1.12" stroke-linecap="round" stroke-linejoin="round"/>
<path d="M83.8787 80.2724L61.7723 67.5508L58.9863 84.1698L81.0732 96.8785L83.8787 80.2724Z" fill="#EAE6DE" stroke="#281D18" stroke-linecap="round" stroke-linejoin="round"/>
<path d="M82.2721 81.0239L62.8609 69.8496L60.5879 83.4129L79.9796 94.5807L82.2721 81.0239Z" stroke="#281D18" stroke-linecap="round" stroke-linejoin="round"/>
<path d="M61.7754 67.5505L62.769 66.916" stroke="#281D18" stroke-width="1.12" stroke-linecap="round" stroke-linejoin="round"/>
<path d="M83.8809 80.2731L84.8745 79.6387" stroke="#281D18" stroke-width="1.12" stroke-linecap="round" stroke-linejoin="round"/>
<path d="M81.0723 96.878L82.0659 96.25" stroke="#281D18" stroke-width="1.12" stroke-linecap="round" stroke-linejoin="round"/>
<path d="M58.2285 86.5723L76.6201 97.1574" stroke="#281D18" stroke-linecap="round" stroke-linejoin="round"/>
<path d="M56.1426 87.8535L74.5342 98.4322" stroke="#281D18" stroke-linecap="round" stroke-linejoin="round"/>
<path d="M54.0566 89.1289L72.4548 99.7076" stroke="#281D18" stroke-linecap="round" stroke-linejoin="round"/>
<path d="M51.9746 90.4043L70.3727 100.989" stroke="#281D18" stroke-linecap="round" stroke-linejoin="round"/>
<path d="M51.377 91.5632L60.0273 86.5781" stroke="#281D18" stroke-linecap="round" stroke-linejoin="round"/>
<path d="M53.7363 92.903L62.3801 87.918" stroke="#281D18" stroke-linecap="round" stroke-linejoin="round"/>
<path d="M56.0957 94.2448L64.7395 89.2598" stroke="#281D18" stroke-linecap="round" stroke-linejoin="round"/>
<path d="M58.4551 95.5847L67.0989 90.5996" stroke="#281D18" stroke-linecap="round" stroke-linejoin="round"/>
<path d="M60.8105 96.9245L69.4543 91.9395" stroke="#281D18" stroke-linecap="round" stroke-linejoin="round"/>
<path d="M63.166 98.2644L71.8098 93.2793" stroke="#281D18" stroke-linecap="round" stroke-linejoin="round"/>
<path d="M65.5254 99.6055L74.1692 94.627" stroke="#281D18" stroke-linecap="round" stroke-linejoin="round"/>
<path d="M67.8926 100.945L76.5364 95.9668" stroke="#281D18" stroke-linecap="round" stroke-linejoin="round"/>
<path d="M157.432 113.525L170.992 105.717L189.409 116.289L175.862 124.09L157.432 113.525Z" fill="#EAE6DE" stroke="#281D18" stroke-linecap="round" stroke-linejoin="round"/>
<path d="M157.432 112.306L170.992 104.498L189.409 115.07L175.862 122.865L157.432 112.306Z" fill="#EAE6DE" stroke="#281D18" stroke-linecap="round" stroke-linejoin="round"/>
<path d="M157.432 112.307V113.524L175.862 124.09V122.866L157.432 112.307Z" fill="#EAE6DE" stroke="#281D18" stroke-linecap="round" stroke-linejoin="round"/>
<path d="M109.614 75.5786C109.452 75.4167 109.322 75.2484 109.205 75.0801H109.393C109.458 75.2484 109.536 75.4167 109.614 75.5786Z" fill="#EAE6DE" stroke="#281D18" stroke-linecap="round" stroke-linejoin="round"/>
<path d="M123.948 75.0801C123.844 75.229 123.727 75.3844 123.584 75.5268C123.655 75.3779 123.72 75.229 123.779 75.0801H123.941H123.948Z" fill="#EAE6DE" stroke="#281D18" stroke-linecap="round" stroke-linejoin="round"/>
<path d="M125.149 75.5332L121.454 83.082C121.454 83.8071 120.98 84.5257 120.025 85.0696C118.129 86.1637 115.031 86.1637 113.135 85.0696C112.187 84.5257 111.713 83.8071 111.713 83.0885L108.018 75.5526C108.446 76.2907 109.167 76.9834 110.18 77.5661C110.713 77.8704 111.304 78.1358 111.921 78.3494C114.804 79.34 118.454 79.3335 121.318 78.3171C121.909 78.1099 122.461 77.8639 122.967 77.5725C123.993 76.9834 124.721 76.2777 125.143 75.5332H125.149Z" fill="#EAE6DE" stroke="#281D18" stroke-linecap="round" stroke-linejoin="round"/>
<path d="M108.017 75.5592C107.92 75.3973 107.842 75.2419 107.783 75.0801L108.017 75.5592Z" fill="#EAE6DE" stroke="#281D18" stroke-linecap="round" stroke-linejoin="round"/>
<path d="M109.618 75.5791C109.456 75.4172 109.326 75.2489 109.209 75.0805C108.95 74.6921 108.807 74.2972 108.807 73.8958C108.807 73.7016 108.839 73.5009 108.911 73.3066C109.001 73.9217 109.164 74.5108 109.398 75.0805C109.463 75.2489 109.54 75.4172 109.618 75.5791Z" fill="#EAE6DE" stroke="#281D18" stroke-linecap="round" stroke-linejoin="round"/>
<path d="M125.371 75.0805L125.15 75.5337C124.721 76.2782 124 76.9839 122.974 77.573C122.468 77.8644 121.916 78.1168 121.325 78.3175C118.461 79.334 114.811 79.3405 111.927 78.3499C111.311 78.1363 110.726 77.8773 110.187 77.5666C109.174 76.9839 108.447 76.2912 108.024 75.5531L107.791 75.074C107.271 73.7727 107.615 72.3808 108.836 71.209V72.1801C108.836 72.5556 108.869 72.9311 108.914 73.3001C108.849 73.4943 108.81 73.695 108.81 73.8893C108.81 74.2907 108.947 74.6856 109.213 75.074C109.33 75.2488 109.46 75.4107 109.622 75.5725C109.94 75.8962 110.336 76.2005 110.817 76.4724C112.311 77.3335 114.408 77.8255 116.577 77.8255C118.746 77.8255 120.851 77.3335 122.338 76.4724C122.844 76.1811 123.26 75.8574 123.585 75.5207C123.721 75.3718 123.844 75.2229 123.948 75.074C124.208 74.6856 124.344 74.2842 124.351 73.8828C124.351 73.7015 124.318 73.5202 124.26 73.339C124.318 72.957 124.351 72.5815 124.351 72.1866V71.2219C125.552 72.3937 125.897 73.7792 125.377 75.074L125.371 75.0805Z" fill="#EAE6DE" stroke="#281D18" stroke-linecap="round" stroke-linejoin="round"/>
<path d="M124.259 73.3457C124.318 73.527 124.35 73.7083 124.35 73.8895C124.35 74.2909 124.214 74.6923 123.948 75.0808C123.844 75.2297 123.727 75.385 123.584 75.5275C123.655 75.3786 123.72 75.2297 123.779 75.0808C124.006 74.524 124.168 73.9478 124.253 73.3457H124.259Z" fill="#EAE6DE" stroke="#281D18" stroke-linecap="round" stroke-linejoin="round"/>
<path d="M125.363 75.0879C125.305 75.2368 125.233 75.3922 125.143 75.5346L125.363 75.0879Z" fill="#EAE6DE" stroke="#281D18" stroke-linecap="round" stroke-linejoin="round"/>
<path d="M109.618 75.5791C109.456 75.4172 109.326 75.2489 109.209 75.0805C108.95 74.6921 108.807 74.2972 108.807 73.8958C108.807 73.7016 108.839 73.5009 108.911 73.3066C109.001 73.9217 109.164 74.5108 109.398 75.0805C109.463 75.2489 109.54 75.4172 109.618 75.5791Z" fill="#EAE6DE" stroke="#281D18" stroke-linecap="round" stroke-linejoin="round"/>
<path d="M124.342 73.8954C124.342 74.2968 124.206 74.6982 123.94 75.0866C123.836 75.2355 123.719 75.3909 123.576 75.5333C123.648 75.3844 123.713 75.2355 123.771 75.0866C123.998 74.5298 124.161 73.9537 124.245 73.3516C124.304 73.5328 124.336 73.7141 124.336 73.8954H124.342Z" fill="#EAE6DE" stroke="#281D18" stroke-linecap="round" stroke-linejoin="round"/>
<path d="M108.017 75.5592C107.92 75.3973 107.842 75.2419 107.783 75.0801L108.017 75.5592Z" fill="#EAE6DE" stroke="#281D18" stroke-linecap="round" stroke-linejoin="round"/>
<path d="M109.618 75.5791C109.456 75.4172 109.326 75.2489 109.209 75.0805C108.95 74.6921 108.807 74.2972 108.807 73.8958C108.807 73.7016 108.839 73.5009 108.911 73.3066C109.001 73.9217 109.164 74.5108 109.398 75.0805C109.463 75.2489 109.54 75.4172 109.618 75.5791Z" fill="#EAE6DE" stroke="#281D18" stroke-linecap="round" stroke-linejoin="round"/>
<path d="M124.259 73.3457C124.318 73.527 124.35 73.7083 124.35 73.8895C124.35 74.2909 124.214 74.6923 123.948 75.0808C123.844 75.2297 123.727 75.385 123.584 75.5275C123.655 75.3786 123.72 75.2297 123.779 75.0808C124.006 74.524 124.168 73.9478 124.253 73.3457H124.259Z" fill="#EAE6DE" stroke="#281D18" stroke-linecap="round" stroke-linejoin="round"/>
<path d="M125.363 75.0879C125.305 75.2368 125.233 75.3922 125.143 75.5346L125.363 75.0879Z" fill="#EAE6DE" stroke="#281D18" stroke-linecap="round" stroke-linejoin="round"/>
<path d="M109.618 75.5791C109.456 75.4172 109.326 75.2489 109.209 75.0805C108.95 74.6921 108.807 74.2972 108.807 73.8958C108.807 73.7016 108.839 73.5009 108.911 73.3066C109.001 73.9217 109.164 74.5108 109.398 75.0805C109.463 75.2489 109.54 75.4172 109.618 75.5791Z" fill="#EAE6DE" stroke="#281D18" stroke-linecap="round" stroke-linejoin="round"/>
<path d="M124.342 73.8954C124.342 74.2968 124.206 74.6982 123.94 75.0866C123.836 75.2355 123.719 75.3909 123.576 75.5333C123.648 75.3844 123.713 75.2355 123.771 75.0866C123.998 74.5298 124.161 73.9537 124.245 73.3516C124.304 73.5328 124.336 73.7141 124.336 73.8954H124.342Z" fill="#EAE6DE" stroke="#281D18" stroke-linecap="round" stroke-linejoin="round"/>
<path d="M124.346 63.214V72.2C124.346 72.5885 124.314 72.9705 124.255 73.346C124.164 73.948 124.008 74.5307 123.781 75.0875C123.723 75.2364 123.658 75.3918 123.586 75.5342C123.262 75.8773 122.846 76.1946 122.339 76.4859C120.846 77.3469 118.748 77.839 116.579 77.839C114.41 77.839 112.306 77.3469 110.819 76.4859C110.345 76.214 109.942 75.9032 109.624 75.586C109.546 75.4177 109.468 75.2493 109.403 75.081C109.169 74.5113 109.013 73.9221 108.916 73.3071C108.864 72.9381 108.838 72.5626 108.838 72.1871V63.214C108.838 60.4819 110.286 57.9505 112.65 56.5651H112.663C115.092 55.1278 118.112 55.1278 120.54 56.5586C121.722 57.2513 122.677 58.2354 123.333 59.3813C123.995 60.5272 124.359 61.8415 124.359 63.2075L124.346 63.214Z" fill="#EAE6DE" stroke="#281D18" stroke-linecap="round" stroke-linejoin="round"/>
<path d="M109.896 60.701L112.903 63.0447C113.033 63.1482 113.15 63.2518 113.267 63.3748C113.442 63.5626 113.598 63.7633 113.722 63.9834C113.754 64.0417 113.793 64.1064 113.819 64.1647C113.851 64.3589 113.845 64.5855 113.819 64.825C113.722 65.5437 113.338 66.3723 112.767 67.091C112.195 67.8096 111.488 68.3858 110.812 68.6577C110.598 68.7419 110.39 68.8001 110.202 68.8196C110.124 68.8066 110.052 68.7872 109.974 68.7613C109.728 68.6901 109.487 68.5865 109.254 68.4635C109.117 68.3858 108.987 68.2951 108.857 68.198L105.857 65.8609C104.941 65.1487 104.474 64.0093 104.623 62.8634C104.779 61.6786 105.565 60.6751 106.675 60.2349C107.214 60.0212 107.792 59.963 108.351 60.0407C108.909 60.1184 109.442 60.3385 109.896 60.701Z" fill="#EAE6DE" stroke="#281D18" stroke-linecap="round" stroke-linejoin="round"/>
<path d="M124.754 59.2063L123.15 61.1226C123.079 61.2068 123.007 61.278 122.929 61.3492C122.806 61.4593 122.663 61.5564 122.52 61.6341C122.481 61.6535 122.442 61.6729 122.397 61.6923C122.267 61.7053 122.118 61.6988 121.962 61.6729C121.488 61.5888 120.955 61.3233 120.494 60.9349C120.033 60.5464 119.669 60.0738 119.507 59.6271C119.455 59.4847 119.423 59.3487 119.416 59.2257C119.429 59.1739 119.442 59.1286 119.455 59.0768C119.507 58.915 119.578 58.7596 119.669 58.6107C119.721 58.52 119.786 58.4359 119.851 58.3582L121.455 56.4483C121.942 55.8657 122.702 55.5873 123.455 55.7103C124.228 55.8398 124.871 56.3706 125.131 57.1087C125.261 57.4648 125.287 57.8467 125.222 58.2093C125.157 58.5718 125.001 58.915 124.754 59.2063Z" fill="#EAE6DE" stroke="#281D18" stroke-linecap="round" stroke-linejoin="round"/>
<path d="M122.199 56.6951L122.037 54.2285" stroke="#281D18" stroke-linecap="round" stroke-linejoin="round"/>
<path d="M124.26 58.4102L126.241 58.6562" stroke="#281D18" stroke-linecap="round" stroke-linejoin="round"/>
<path d="M107.634 61.285L106.9 59.3945" stroke="#281D18" stroke-linecap="round" stroke-linejoin="round"/>
<path d="M105.966 64.4121L104.154 64.6581" stroke="#281D18" stroke-linecap="round" stroke-linejoin="round"/>
<path d="M111.814 63.5113L111.977 61.7051" stroke="#281D18" stroke-linecap="round" stroke-linejoin="round"/>
<path d="M123.729 64.2038L125.385 62.8184" stroke="#281D18" stroke-linecap="round" stroke-linejoin="round"/>
<path d="M123.596 68.6833L125.986 67.6992" stroke="#281D18" stroke-linecap="round" stroke-linejoin="round"/>
<path d="M109.42 70.7569L107.283 70.0059" stroke="#281D18" stroke-linecap="round" stroke-linejoin="round"/>
<path d="M115.878 56.597L114.307 53.8066" stroke="#281D18" stroke-linecap="round" stroke-linejoin="round"/>
<path d="M118.494 56.6092L119.566 54.1426" stroke="#281D18" stroke-linecap="round" stroke-linejoin="round"/>
<path d="M118.229 66.2892L119.729 64.334" stroke="#281D18" stroke-linecap="round" stroke-linejoin="round"/>
<path d="M118.826 72.0635L121.385 70.8398" stroke="#281D18" stroke-linecap="round" stroke-linejoin="round"/>
<path d="M115.114 69.4213L113.646 67.9258" stroke="#281D18" stroke-linecap="round" stroke-linejoin="round"/>
<path d="M112.068 58.8181L110.01 56.6816" stroke="#281D18" stroke-linecap="round" stroke-linejoin="round"/>
</g>
<defs>
<clipPath id="clip0_1646_7887">
<rect width="237" height="195" fill="white" transform="translate(0.927734 0.214844)"/>
</clipPath>
</defs>
</svg>
