<svg width="406" height="228" viewBox="0 0 406 228" fill="none" xmlns="http://www.w3.org/2000/svg">
<g clip-path="url(#clip0_4001_6323)">
<path d="M78.0396 113.599L161.01 66.0273L290.411 141.349L208.237 188.792L78.0396 113.599Z" fill="#281D18" stroke="#281D18" stroke-width="2.15452" stroke-linecap="round" stroke-linejoin="round"/>
<path d="M140.154 95.6187L223.125 48.0469L272.636 74.5044L190.462 121.947L140.154 95.6187Z" fill="#281D18" stroke="#281D18" stroke-width="2.15452" stroke-linecap="round" stroke-linejoin="round"/>
<path d="M180.229 159.99L263.199 112.418L287.545 125.647L205.372 173.089L180.229 159.99Z" fill="#281D18" stroke="#281D18" stroke-width="2.15452" stroke-linecap="round" stroke-linejoin="round"/>
<path d="M85.5806 113.951L168.551 66.3789L291.036 137.672L208.862 185.114L85.5806 113.951Z" fill="#17CCD4" stroke="#281D18" stroke-width="2.15452" stroke-linecap="round" stroke-linejoin="round"/>
<path d="M125.805 123.857L175.488 95.0508" stroke="#281D18" stroke-width="2.15452" stroke-linecap="round" stroke-linejoin="round"/>
<path d="M131.364 127.036L181.047 98.2305" stroke="#281D18" stroke-width="2.15452" stroke-linecap="round" stroke-linejoin="round"/>
<path d="M136.923 130.236L186.606 101.43" stroke="#281D18" stroke-width="2.15452" stroke-linecap="round" stroke-linejoin="round"/>
<path d="M142.481 133.415L192.165 104.609" stroke="#281D18" stroke-width="2.15452" stroke-linecap="round" stroke-linejoin="round"/>
<path d="M148.019 136.615L197.702 107.809" stroke="#281D18" stroke-width="2.15452" stroke-linecap="round" stroke-linejoin="round"/>
<path d="M153.577 139.792L203.26 111.008" stroke="#281D18" stroke-width="2.15452" stroke-linecap="round" stroke-linejoin="round"/>
<path d="M159.136 142.984L208.819 114.199" stroke="#281D18" stroke-width="2.15452" stroke-linecap="round" stroke-linejoin="round"/>
<path d="M164.694 146.171L214.378 117.387" stroke="#281D18" stroke-width="2.15452" stroke-linecap="round" stroke-linejoin="round"/>
<path d="M170.253 149.363L219.936 120.578" stroke="#281D18" stroke-width="2.15452" stroke-linecap="round" stroke-linejoin="round"/>
<path d="M175.79 152.572L225.495 123.766" stroke="#281D18" stroke-width="2.15452" stroke-linecap="round" stroke-linejoin="round"/>
<path d="M181.349 155.771L231.032 126.965" stroke="#281D18" stroke-width="2.15452" stroke-linecap="round" stroke-linejoin="round"/>
<path d="M186.908 158.95L236.591 130.145" stroke="#281D18" stroke-width="2.15452" stroke-linecap="round" stroke-linejoin="round"/>
<path d="M238.81 135.366C237.733 134.741 237.733 133.728 238.81 133.104L270.115 115.027C271.192 114.402 272.959 114.402 274.058 115.027L291.014 124.809C292.091 125.434 292.091 126.468 291.014 127.093L260.14 145.384C259.062 146.031 257.296 146.031 256.218 145.406L238.788 135.344L238.81 135.366Z" fill="#17CCD4"/>
<path d="M238.81 135.366C237.733 134.741 237.733 133.728 238.81 133.104L270.115 115.027C271.192 114.402 272.959 114.402 274.058 115.027L291.014 124.809C292.091 125.434 292.091 126.468 291.014 127.093L260.14 145.384C259.062 146.031 257.296 146.031 256.218 145.406L238.788 135.344L238.81 135.366Z" stroke="#281D18" stroke-width="2.15452" stroke-linecap="round" stroke-linejoin="round"/>
<path d="M242.731 137.639L278 117.301L281.555 119.348L246.243 139.665L242.731 137.639Z" fill="#281D18" stroke="#281D18" stroke-width="2.15452" stroke-linecap="round" stroke-linejoin="round"/>
<path d="M149.009 97.0289L231.29 49.4141L272.291 73.3077L189.902 120.642L149.009 97.0289Z" fill="#17CCD4" stroke="#281D18" stroke-width="2.15452" stroke-linecap="round" stroke-linejoin="round"/>
<path d="M149.009 97.0304L159.825 93.1953L192.207 111.832L189.902 120.644L149.009 97.0304Z" fill="#17CCD4" stroke="#281D18" stroke-width="2.15452" stroke-linecap="round" stroke-linejoin="round"/>
</g>
<defs>
<clipPath id="clip0_4001_6323">
<rect width="405.804" height="227.625" fill="white" transform="translate(0.153809 0.332031)"/>
</clipPath>
</defs>
</svg>
