<svg width="48" height="61" viewBox="0 0 48 61" fill="none" xmlns="http://www.w3.org/2000/svg">
<path d="M30.9723 9.78458C30.204 9.78458 29.5814 9.1619 29.5814 8.39365C29.5814 7.62539 30.204 7.00272 30.9723 7.00272C33.5701 7.00272 35.6412 9.0633 35.6879 11.6937C35.7015 12.4618 35.0898 13.0954 34.3217 13.109C34.3133 13.1092 34.305 13.1092 34.2966 13.1092C33.5398 13.1092 32.9198 12.5026 32.9063 11.7428C32.8868 10.6448 32.0373 9.78458 30.9723 9.78458ZM14.0974 24.5151C14.3697 24.7918 14.729 24.9304 15.0888 24.9304C15.441 24.9304 15.7936 24.7975 16.0645 24.5309C16.6119 23.9921 16.619 23.1114 16.0802 22.5638C11.8569 18.2725 9.65076 14.5409 9.69991 11.7721C9.77131 7.71658 12.9374 4.5397 16.9077 4.5397C19.282 4.5397 21.5041 5.71008 22.8516 7.67037C23.1111 8.04777 23.5398 8.27326 23.9977 8.27341C24.4558 8.27341 24.8844 8.04793 25.1438 7.67052C26.4918 5.71008 28.7139 4.5397 31.0879 4.5397C35.0581 4.5397 38.2244 7.71658 38.296 11.7722C38.345 14.5406 36.1387 18.2723 31.9155 22.564C31.3767 23.1115 31.3839 23.9921 31.9314 24.531C32.479 25.0698 33.3594 25.0628 33.8985 24.5153C38.7936 19.5409 41.1418 15.3566 41.0777 11.7232C41.0304 9.05681 39.9815 6.55809 38.1238 4.68775C36.2472 2.79841 33.7486 1.75784 31.0881 1.75784C28.4026 1.75784 25.8577 2.83782 23.998 4.71109C22.1384 2.83766 19.5936 1.75784 16.9079 1.75784C14.2472 1.75784 11.7484 2.79825 9.87223 4.68744C8.01457 6.55793 6.96565 9.0565 6.91867 11.7228C6.85391 15.3566 9.20211 19.541 14.0974 24.5151ZM42.0357 3.85582C42.3481 3.85582 42.6623 3.75119 42.9215 3.53668L43.5158 3.04491C44.1078 2.55531 44.1906 1.6784 43.701 1.08664C43.2114 0.494723 42.3343 0.411886 41.7427 0.901492L41.1483 1.39311C40.5564 1.88271 40.4736 2.75962 40.9632 3.35153C41.2383 3.68397 41.6355 3.85582 42.0357 3.85582ZM2.84588 7.90497L2.08535 7.77561C1.32868 7.64687 0.60973 8.15626 0.480837 8.91355C0.352099 9.67083 0.861487 10.3892 1.61877 10.5181L2.3793 10.6474C2.45827 10.6609 2.53678 10.6674 2.61421 10.6674C3.28 10.6674 3.86836 10.1878 3.98381 9.50948C4.1127 8.7522 3.60316 8.03386 2.84588 7.90497ZM42.6192 23.1498H39.6035C38.8909 23.1498 38.2934 23.6886 38.22 24.3975C37.4636 31.699 31.3495 37.2049 23.9982 37.2049C16.6462 37.2049 10.532 31.699 9.7761 24.3975C9.70269 23.6886 9.10536 23.1498 8.39259 23.1498H5.37659C4.60834 23.1498 3.98567 23.7725 3.98567 24.5408C3.98567 25.309 4.60834 25.9317 5.37659 25.9317H7.1848C7.84626 29.6277 9.71382 33.0098 12.5246 35.5597C15.3264 38.1016 18.8638 39.6266 22.6071 39.9305V49.1379H10.4629C7.30767 49.1379 4.74079 51.7048 4.74079 54.8599C4.74079 58.0152 7.30767 60.5822 10.4629 60.5822H19.6665C19.9469 60.5822 20.2209 60.4973 20.4522 60.3389L26.7788 56.0076C27.4128 55.5736 27.5747 54.708 27.1408 54.0742C26.7068 53.4402 25.841 53.2783 25.2074 53.7122L19.236 57.8005H10.4629C8.84171 57.8005 7.52264 56.4814 7.52264 54.8601C7.52264 53.2389 8.84171 51.92 10.4629 51.92H37.5328C39.154 51.92 40.4731 53.2389 40.4731 54.8601C40.4731 56.4814 39.154 57.8005 37.5328 57.8005H28.3291C27.5608 57.8005 26.9381 58.4232 26.9381 59.1914C26.9381 59.9597 27.5608 60.5823 28.3291 60.5823H37.533C40.6882 60.5823 43.2551 58.0153 43.2551 54.8601C43.2551 51.705 40.6882 49.1381 37.533 49.1381H25.3891V39.9306C29.1321 39.6268 32.6691 38.1019 35.4709 35.5599C38.2818 33.0098 40.1492 29.6277 40.8111 25.9319H42.6192C43.3874 25.9319 44.0101 25.3092 44.0101 24.5409C44.0101 23.7727 43.3874 23.1498 42.6192 23.1498ZM47.5151 8.9137C47.3862 8.15642 46.6669 7.64687 45.9106 7.77561L45.1499 7.90497C44.3926 8.03371 43.883 8.75204 44.0119 9.50948C44.1272 10.1879 44.7157 10.6674 45.3814 10.6674C45.4588 10.6674 45.5375 10.6609 45.6163 10.6474L46.377 10.5181C47.1343 10.3893 47.6438 9.67098 47.5151 8.9137ZM24.4204 21.7197C27.2426 22.6188 29.1387 25.2141 29.1387 28.1777C29.1387 31.1412 27.2424 33.7365 24.4204 34.6357C24.283 34.6794 24.1405 34.7014 23.9982 34.7014C23.8558 34.7014 23.7134 34.6794 23.576 34.6357C20.7533 33.7365 18.8569 31.1412 18.8569 28.1776C18.8569 25.2138 20.7533 22.6185 23.576 21.7195C23.8507 21.632 24.1455 21.632 24.4204 21.7197ZM23.998 24.531C22.5702 25.1685 21.6387 26.5825 21.6387 28.1776C21.6387 29.7727 22.5702 31.1866 23.998 31.8241C25.4257 31.1866 26.3569 29.7727 26.3569 28.1776C26.3569 26.5825 25.4257 25.1685 23.998 24.531ZM4.4796 3.0446L5.07368 3.53622C5.33317 3.75104 5.64736 3.85567 5.9597 3.85567C6.35983 3.85567 6.75701 3.68381 7.03195 3.35153C7.52171 2.75977 7.43919 1.88302 6.84742 1.39311L6.25334 0.901492C5.66158 0.411731 4.78468 0.494259 4.29507 1.08618C3.805 1.67809 3.88784 2.55484 4.4796 3.0446Z" fill="#FF5B00"/>
</svg>
