<svg width="33" height="34" viewBox="0 0 33 34" fill="none" xmlns="http://www.w3.org/2000/svg">
<path d="M19.3433 17.0154L15.0706 14.5738V19.457L19.3433 17.0154Z" fill="#F2BDEB"/>
<path fill-rule="evenodd" clip-rule="evenodd" d="M0.421143 17.0154C0.421143 8.0258 7.70866 0.738281 16.6983 0.738281C25.6879 0.738281 32.9754 8.0258 32.9754 17.0154C32.9754 26.005 25.6879 33.2925 16.6983 33.2925C7.70866 33.2925 0.421143 26.005 0.421143 17.0154ZM23.0057 11.6236C23.7178 11.8271 24.2264 12.3357 24.4299 13.0479C24.8368 14.3704 24.8368 17.0154 24.8368 17.0154C24.8368 17.0154 24.8368 19.6604 24.5316 20.983C24.3282 21.6951 23.8195 22.2037 23.1074 22.4072C21.7849 22.7124 16.6983 22.7124 16.6983 22.7124C16.6983 22.7124 11.5099 22.7124 10.2891 22.4072C9.57702 22.2037 9.06837 21.6951 8.8649 20.983C8.55971 19.6604 8.55971 17.0154 8.55971 17.0154C8.55971 17.0154 8.5597 14.3704 8.76317 13.0479C8.96663 12.3357 9.4753 11.8271 10.1874 11.6236C11.5099 11.3184 16.5965 11.3184 16.5965 11.3184C16.5965 11.3184 21.7849 11.3184 23.0057 11.6236Z" fill="#F2BDEB"/>
</svg>
